{
.appVersion = "3260";
.formatVersion = 3;
DisplayStrings = (
"ABCDEFGHIJKLMN
OPQRSTUVWXYZ
0123456789 
.,:;!?•*#///backslash -–—_
(){}[]“”‘’\"'@&©|
$+−×÷=><~^%↑↗→↘↓↙←↖",
B,
C,
E,
F,
G,
H,
N,
P,
"→",
"0",
"↙",
Q,
W,
Y,
"‘",
"“",
"%",
"×",
"←",
"8",
"]",
"[",
Z,
"&"
);
axes = (
{
name = Scribble;
tag = SCRI;
},
{
name = Scrabble;
tag = SCRA;
}
);
date = "2024-10-09 18:42:11 +0000";
familyName = "TMT M Krone";
fontMaster = (
{
axesValues = (
0,
0
);
customParameters = (
{
name = "Master Icon Glyph Name";
value = A;
}
);
id = m01;
metricValues = (
{
over = 16;
pos = 800;
},
{
over = 16;
pos = 700;
},
{
over = 16;
pos = 500;
},
{
over = -16;
},
{
over = -16;
pos = -200;
},
{
}
);
name = Regular;
},
{
axesValues = (
1000,
0
);
customParameters = (
{
name = "Master Icon Glyph Name";
value = A;
}
);
id = "3EED4E43-93E5-49B5-B4F5-8693E91ADEE2";
metricValues = (
{
over = 16;
pos = 800;
},
{
over = 16;
pos = 700;
},
{
over = 16;
pos = 500;
},
{
over = -16;
},
{
over = -16;
pos = -200;
},
{
}
);
name = Scribble;
},
{
axesValues = (
0,
1000
);
customParameters = (
{
name = "Master Icon Glyph Name";
value = A;
}
);
id = "B7F60EEF-5018-4FBA-9984-B24EB61DE206";
metricValues = (
{
over = 16;
pos = 800;
},
{
over = 16;
pos = 700;
},
{
over = 16;
pos = 500;
},
{
over = -16;
},
{
over = -16;
pos = -200;
},
{
}
);
name = Scrabble;
},
{
axesValues = (
1000,
1000
);
customParameters = (
{
name = "Master Icon Glyph Name";
value = A;
}
);
id = "33631C71-1333-4331-8A89-BDCD639A4A27";
metricValues = (
{
over = 16;
pos = 800;
},
{
over = 16;
pos = 700;
},
{
over = 16;
pos = 500;
},
{
over = -16;
},
{
over = -16;
pos = -200;
},
{
}
);
name = Scrobble;
}
);
glyphs = (
{
glyphname = A;
lastChange = "2024-10-10 14:00:47 +0000";
layers = (
{
layerId = m01;
shapes = (
{
closed = 1;
nodes = (
(214,352,o),
(226,451,o),
(191,471,c),
(173,469,o),
(178,547,o),
(150,508,c),
(137,500,o),
(113,380,o),
(125,368,c),
(108,319,o),
(193,355,o),
(215,328,c)
);
},
{
closed = 1;
nodes = (
(296,281,o),
(339,227,o),
(346,161,c),
(329,147,o),
(333,138,o),
(330,114,c),
(340,103,o),
(357,82,o),
(350,71,c),
(337,14,o),
(316,17,o),
(284,40,c),
(267,106,o),
(263,110,o),
(277,174,c),
(255,199,o),
(252,268,o),
(215,273,c),
(217,264,o),
(173,273,o),
(172,272,c),
(142,255,o),
(138,267,o),
(124,274,c),
(70,261,o),
(100,80,o),
(24,81,cs),
(-38,84,o),
(25,285,o),
(19,340,c),
(71,422,o),
(76,503,o),
(94,577,cs),
(125,684,o),
(207,606,o),
(242,554,c),
(280,508,o),
(266,489,o),
(261,418,c),
(295,389,o),
(300,344,o),
(301,298,c)
);
}
);
width = 340;
},
{
layerId = "3EED4E43-93E5-49B5-B4F5-8693E91ADEE2";
shapes = (
{
closed = 1;
nodes = (
(282,324,o),
(261,452,o),
(263,470,c),
(247,507,o),
(278,593,o),
(227,527,c),
(175,513,o),
(138,396,o),
(126,393,c),
(133,343,o),
(212,355,o),
(266,332,cs)
);
},
{
closed = 1;
nodes = (
(353,198,o),
(378,149,o),
(386,80,c),
(374,87,o),
(374,38,o),
(382,39,c),
(352,5,o),
(376,-19,o),
(363,-42,c),
(342,-118,o),
(307,-86,o),
(313,-56,c),
(275,5,o),
(309,35,o),
(291,121,c),
(309,162,o),
(293,204,o),
(256,235,cs),
(235,251,o),
(210,238,o),
(205,234,c),
(163,266,o),
(118,258,o),
(120,295,c),
(21,278,o),
(71,63,o),
(-58,71,c),
(-114,98,o),
(-4,305,o),
(21,378,c),
(65,452,o),
(117,555,o),
(151,642,c),
(224,748,o),
(336,667,o),
(342,579,c),
(381,506,o),
(358,457,o),
(371,421,c),
(379,378,o),
(400,311,o),
(360,258,c)
);
}
);
width = 340;
},
{
layerId = "B7F60EEF-5018-4FBA-9984-B24EB61DE206";
shapes = (
{
closed = 1;
nodes = (
(226,331,o),
(164,418,o),
(181,409,c),
(148,445,o),
(156,489,o),
(149,443,c),
(107,422,o),
(112,348,o),
(134,347,c),
(141,330,o),
(193,347,o),
(208,350,c)
);
},
{
closed = 1;
nodes = (
(282,317,o),
(309,267,o),
(318,244,c),
(303,222,o),
(334,236,o),
(344,217,c),
(332,195,o),
(328,185,o),
(356,153,c),
(336,125,o),
(337,119,o),
(326,158,c),
(285,164,o),
(275,186,o),
(264,224,c),
(256,230,o),
(239,286,o),
(225,288,cs),
(201,293,o),
(206,286,o),
(184,297,c),
(191,297,o),
(145,275,o),
(156,274,c),
(98,251,o),
(159,138,o),
(123,133,c),
(90,111,o),
(91,269,o),
(85,289,c),
(93,354,o),
(73,440,o),
(70,501,c),
(87,539,o),
(156,549,o),
(188,485,c),
(226,482,o),
(230,441,o),
(214,425,c),
(255,378,o),
(286,343,o),
(281,323,c)
);
}
);
width = 340;
},
{
layerId = "33631C71-1333-4331-8A89-BDCD639A4A27";
shapes = (
{
closed = 1;
nodes = (
(282,325,o),
(249,424,o),
(251,442,cs),
(254,464,o),
(214,523,o),
(161,495,cs),
(117,472,o),
(75,381,o),
(82,377,cs),
(150,341,o),
(189,333,o),
(252,328,cs)
);
},
{
closed = 1;
nodes = (
(432,276,o),
(434,234,o),
(434,196,cs),
(434,163,o),
(439,163,o),
(439,153,cs),
(439,126,o),
(468,114,o),
(477,89,cs),
(487,58,o),
(393,43,o),
(368,83,cs),
(343,124,o),
(331,149,o),
(331,193,cs),
(331,229,o),
(350,270,o),
(270,285,cs),
(247,290,o),
(231,279,o),
(193,279,cs),
(163,279,o),
(104,294,o),
(82,288,cs),
(13,269,o),
(79,125,o),
(-37,125,cs),
(-166,125,o),
(-67,299,o),
(-67,332,cs),
(-67,419,o),
(16,496,o),
(70,564,cs),
(133,642,o),
(246,582,o),
(290,537,cs),
(350,479,o),
(340,445,o),
(340,416,cs),
(340,386,o),
(402,339,o),
(417,307,cs)
);
}
);
width = 340;
}
);
unicode = (65,97);
},
{
glyphname = B;
lastChange = "2024-10-10 14:03:19 +0000";
layers = (
{
layerId = m01;
shapes = (
{
closed = 1;
nodes = (
(244,481,o),
(213,502,o),
(227,466,c),
(192,476,o),
(238,457,o),
(216,438,c),
(220,415,o),
(324,536,o),
(342,563,c),
(340,624,o),
(207,583,o),
(203,546,c),
(180,510,o),
(235,514,o),
(242,495,c)
);
},
{
closed = 1;
nodes = (
(302,117,o),
(374,137,o),
(412,223,c),
(445,263,o),
(411,330,o),
(350,354,c),
(340,349,o),
(262,336,o),
(235,355,c),
(234,338,o),
(238,260,o),
(230,238,c),
(231,212,o),
(223,178,o),
(233,146,c),
(218,153,o),
(215,121,o),
(215,111,cs),
(216,140,o),
(260,112,o),
(263,110,c)
);
},
{
closed = 1;
nodes = (
(137,318,o),
(131,352,o),
(123,362,c),
(131,408,o),
(163,435,o),
(142,480,c),
(123,564,o),
(93,490,o),
(57,496,c),
(27,482,o),
(38,502,o),
(18,547,c),
(29,549,o),
(61,591,o),
(85,596,c),
(130,632,o),
(212,654,o),
(273,654,c),
(314,650,o),
(411,676,o),
(447,594,c),
(418,556,o),
(352,479,o),
(318,445,c),
(332,444,o),
(295,418,o),
(325,410,c),
(331,393,o),
(372,425,o),
(377,419,c),
(380,407,o),
(383,390,o),
(412,397,c),
(433,398,o),
(459,378,o),
(510,347,c),
(519,306,o),
(495,270,o),
(507,249,c),
(490,215,o),
(437,136,o),
(401,78,c),
(355,42,o),
(291,15,o),
(221,36,cs),
(145,61,o),
(105,78,o),
(84,175,c),
(85,205,o),
(84,212,o),
(93,237,c),
(116,275,o),
(109,252,o),
(163,261,c),
(159,240,o),
(157,288,o),
(157,267,c)
);
}
);
width = 527;
},
{
layerId = "3EED4E43-93E5-49B5-B4F5-8693E91ADEE2";
shapes = (
{
closed = 1;
nodes = (
(189,520,o),
(205,488,o),
(206,515,c),
(185,485,o),
(203,500,o),
(211,487,c),
(231,427,o),
(315,579,o),
(318,630,cs),
(319,689,o),
(164,677,o),
(168,608,c),
(157,560,o),
(222,541,o),
(219,509,c)
);
},
{
closed = 1;
nodes = (
(331,105,o),
(381,122,o),
(436,189,c),
(452,274,o),
(424,335,o),
(374,342,c),
(328,378,o),
(255,383,o),
(238,370,c),
(232,350,o),
(247,251,o),
(244,245,c),
(245,206,o),
(244,146,o),
(223,132,c),
(253,133,o),
(227,103,o),
(215,103,c),
(231,80,o),
(270,64,o),
(255,93,c)
);
},
{
closed = 1;
nodes = (
(123,316,o),
(99,339,o),
(107,391,c),
(125,447,o),
(113,492,o),
(102,521,c),
(91,622,o),
(59,502,o),
(11,513,c),
(4,532,o),
(-46,556,o),
(-28,581,c),
(-39,605,o),
(1,613,o),
(14,637,c),
(69,712,o),
(147,730,o),
(249,744,cs),
(297,753,o),
(408,757,o),
(424,703,c),
(452,641,o),
(373,558,o),
(328,505,c),
(328,498,o),
(297,463,o),
(326,468,c),
(329,429,o),
(337,455,o),
(356,464,c),
(400,464,o),
(421,446,o),
(436,442,c),
(442,413,o),
(510,395,o),
(531,378,c),
(524,345,o),
(547,290,o),
(557,281,c),
(531,212,o),
(473,93,o),
(426,61,c),
(369,-12,o),
(326,-42,o),
(226,-15,cs),
(177,-2,o),
(98,23,o),
(71,110,c),
(53,156,o),
(41,195,o),
(74,234,c),
(106,236,o),
(89,220,o),
(136,206,c),
(150,233,o),
(130,243,o),
(130,280,c)
);
}
);
width = 527;
},
{
layerId = "B7F60EEF-5018-4FBA-9984-B24EB61DE206";
shapes = (
{
closed = 1;
nodes = (
(264,420,o),
(249,417,o),
(248,442,c),
(260,412,o),
(282,415,o),
(277,423,c),
(246,377,o),
(348,441,o),
(363,489,c),
(340,518,o),
(256,498,o),
(250,501,c),
(227,487,o),
(284,428,o),
(251,429,c)
);
},
{
closed = 1;
nodes = (
(277,192,o),
(319,205,o),
(358,241,cs),
(403,284,o),
(391,294,o),
(324,331,c),
(313,345,o),
(277,366,o),
(262,323,c),
(247,347,o),
(248,306,o),
(255,288,c),
(226,247,o),
(209,243,o),
(209,243,c),
(227,228,o),
(213,203,o),
(204,212,c),
(218,219,o),
(240,198,o),
(248,180,c)
);
},
{
closed = 1;
nodes = (
(187,340,o),
(182,342,o),
(183,394,c),
(186,416,o),
(209,444,o),
(201,444,c),
(200,497,o),
(183,466,o),
(137,471,c),
(129,462,o),
(131,470,o),
(116,512,c),
(138,525,o),
(147,538,o),
(190,538,c),
(230,550,o),
(267,546,o),
(317,549,c),
(350,524,o),
(427,516,o),
(443,460,c),
(408,431,o),
(356,423,o),
(340,420,c),
(345,392,o),
(325,397,o),
(333,363,c),
(338,364,o),
(364,362,o),
(361,387,c),
(362,373,o),
(393,349,o),
(391,353,c),
(398,322,o),
(432,330,o),
(431,287,c),
(441,293,o),
(444,254,o),
(440,230,c),
(420,197,o),
(348,171,o),
(355,143,c),
(282,152,o),
(247,146,o),
(209,153,c),
(152,187,o),
(112,215,o),
(132,257,c),
(104,280,o),
(112,304,o),
(133,318,c),
(175,331,o),
(159,311,o),
(169,276,c),
(188,274,o),
(164,297,o),
(191,325,c)
);
}
);
width = 527;
},
{
layerId = "33631C71-1333-4331-8A89-BDCD639A4A27";
shapes = (
{
closed = 1;
nodes = (
(233,488,o),
(229,475,o),
(231,472,c),
(219,495,o),
(225,476,o),
(245,458,c),
(243,417,o),
(317,559,o),
(313,593,c),
(318,642,o),
(191,649,o),
(197,596,c),
(197,539,o),
(239,516,o),
(230,489,c)
);
},
{
closed = 1;
nodes = (
(313,75,o),
(364,109,o),
(372,172,c),
(406,246,o),
(385,324,o),
(345,316,c),
(319,350,o),
(277,339,o),
(251,351,c),
(224,319,o),
(247,250,o),
(233,212,c),
(240,183,o),
(234,169,o),
(235,145,c),
(226,119,o),
(210,111,o),
(222,103,c),
(228,69,o),
(246,67,o),
(252,88,c)
);
},
{
closed = 1;
nodes = (
(173,322,o),
(163,337,o),
(156,390,c),
(164,416,o),
(171,459,o),
(154,490,c),
(130,578,o),
(126,491,o),
(82,494,c),
(70,516,o),
(67,517,o),
(64,555,c),
(53,588,o),
(93,616,o),
(114,648,c),
(156,681,o),
(222,685,o),
(271,698,cs),
(319,708,o),
(392,731,o),
(405,616,c),
(398,568,o),
(362,506,o),
(325,465,c),
(316,461,o),
(288,456,o),
(312,437,c),
(321,410,o),
(340,426,o),
(340,422,c),
(353,406,o),
(384,421,o),
(395,383,c),
(423,397,o),
(435,375,o),
(441,328,c),
(463,325,o),
(476,274,o),
(455,246,c),
(458,183,o),
(418,75,o),
(379,42,c),
(327,12,o),
(277,-31,o),
(221,-6,c),
(173,29,o),
(109,42,o),
(96,124,c),
(112,169,o),
(103,216,o),
(129,210,c),
(157,244,o),
(142,223,o),
(180,238,c),
(186,228,o),
(163,263,o),
(170,268,c)
);
}
);
width = 527;
}
);
unicode = (66,98);
},
{
glyphname = C;
lastChange = "2024-10-10 14:03:25 +0000";
layers = (
{
layerId = m01;
shapes = (
{
closed = 1;
nodes = (
(276,161,o),
(297,167,o),
(336,177,c),
(359,165,o),
(374,178,o),
(377,184,c),
(397,169,o),
(378,144,o),
(362,130,c),
(292,59,o),
(223,66,o),
(155,118,c),
(75,141,o),
(45,234,o),
(39,296,c),
(-3,385,o),
(4,499,o),
(53,559,cs),
(104,622,o),
(245,627,o),
(258,573,c),
(314,521,o),
(305,478,o),
(260,493,c),
(206,479,o),
(209,516,o),
(180,539,c),
(93,539,o),
(122,347,o),
(114,301,c),
(128,232,o),
(183,173,o),
(252,170,c)
);
}
);
width = 398;
},
{
layerId = "3EED4E43-93E5-49B5-B4F5-8693E91ADEE2";
shapes = (
{
closed = 1;
nodes = (
(320,118,o),
(340,112,o),
(385,104,c),
(409,92,o),
(430,118,o),
(449,97,c),
(500,91,o),
(439,71,o),
(420,58,cs),
(296,-21,o),
(155,51,o),
(76,101,cs),
(-28,161,o),
(-48,268,o),
(-76,350,c),
(-73,445,o),
(-61,575,o),
(70,616,c),
(140,711,o),
(331,668,o),
(356,594,c),
(380,550,o),
(374,500,o),
(306,503,c),
(267,491,o),
(268,541,o),
(220,570,c),
(75,578,o),
(87,398,o),
(62,360,c),
(63,223,o),
(128,158,o),
(263,107,c)
);
}
);
width = 398;
},
{
layerId = "B7F60EEF-5018-4FBA-9984-B24EB61DE206";
shapes = (
{
closed = 1;
nodes = (
(298,257,o),
(298,235,o),
(321,266,c),
(345,255,o),
(370,293,o),
(362,270,c),
(420,269,o),
(389,251,o),
(377,235,c),
(306,205,o),
(261,163,o),
(200,188,c),
(128,203,o),
(97,260,o),
(64,294,c),
(42,354,o),
(35,403,o),
(71,442,c),
(90,524,o),
(172,510,o),
(239,491,c),
(226,480,o),
(231,451,o),
(206,437,c),
(173,442,o),
(175,472,o),
(148,465,c),
(108,463,o),
(137,332,o),
(143,300,c),
(168,254,o),
(186,226,o),
(270,229,c)
);
}
);
width = 398;
},
{
layerId = "33631C71-1333-4331-8A89-BDCD639A4A27";
shapes = (
{
closed = 1;
nodes = (
(303,199,o),
(327,205,o),
(352,203,c),
(372,191,o),
(414,213,o),
(400,213,c),
(460,200,o),
(422,173,o),
(414,149,c),
(332,103,o),
(219,122,o),
(118,159,c),
(52,186,o),
(-3,241,o),
(-21,300,c),
(-18,391,o),
(-41,468,o),
(52,510,c),
(96,559,o),
(238,574,o),
(278,517,c),
(309,484,o),
(297,459,o),
(269,456,c),
(232,446,o),
(219,489,o),
(185,498,c),
(83,486,o),
(93,352,o),
(93,318,c),
(121,243,o),
(168,188,o),
(289,179,c)
);
}
);
width = 398;
}
);
unicode = (67,99);
},
{
glyphname = D;
lastChange = "2024-10-10 14:00:50 +0000";
layers = (
{
layerId = m01;
shapes = (
{
closed = 1;
nodes = (
(99,312,o),
(119,434,o),
(78,538,c),
(89,564,o),
(81,563,o),
(58,593,c),
(55,599,o),
(27,611,o),
(56,612,c),
(40,666,o),
(67,689,o),
(82,684,c),
(171,686,o),
(273,608,o),
(341,575,c),
(404,503,o),
(488,456,o),
(514,350,cs),
(528,289,o),
(454,222,o),
(409,164,c),
(323,117,o),
(253,55,o),
(172,30,c),
(158,21,o),
(97,-6,o),
(51,27,cs),
(34,40,o),
(25,68,o),
(49,72,c),
(43,78,o),
(66,69,o),
(105,101,c),
(128,98,o),
(128,101,o),
(187,109,c),
(222,121,o),
(282,135,o),
(334,197,c),
(379,234,o),
(484,321,o),
(415,436,c),
(386,476,o),
(339,486,o),
(290,501,c),
(291,517,o),
(198,580,o),
(189,571,c),
(177,536,o),
(193,461,o),
(194,434,c),
(190,390,o),
(192,333,o),
(177,281,c),
(201,253,o),
(198,148,o),
(136,157,c),
(94,145,o),
(119,254,o),
(108,230,c),
(99,250,o),
(111,226,o),
(80,216,c)
);
}
);
width = 531;
},
{
layerId = "3EED4E43-93E5-49B5-B4F5-8693E91ADEE2";
shapes = (
{
closed = 1;
nodes = (
(86,296,o),
(65,426,o),
(42,543,c),
(18,565,o),
(49,585,o),
(14,596,c),
(8,613,o),
(-18,615,o),
(-40,637,c),
(-44,668,o),
(4,713,o),
(27,694,c),
(128,736,o),
(249,657,o),
(334,611,cs),
(398,575,o),
(523,536,o),
(529,418,c),
(581,302,o),
(544,223,o),
(464,137,c),
(378,90,o),
(308,14,o),
(229,-36,c),
(211,-39,o),
(134,-80,o),
(98,-102,c),
(40,-84,o),
(27,-36,o),
(77,-26,c),
(72,-2,o),
(102,2,o),
(139,17,c),
(164,10,o),
(193,48,o),
(198,40,c),
(275,100,o),
(303,102,o),
(338,158,c),
(433,252,o),
(509,369,o),
(413,438,c),
(389,514,o),
(316,515,o),
(252,573,c),
(250,573,o),
(161,608,o),
(124,603,c),
(109,571,o),
(181,483,o),
(151,432,c),
(160,390,o),
(171,319,o),
(189,239,c),
(217,196,o),
(217,136,o),
(192,92,c),
(107,59,o),
(137,170,o),
(105,197,c),
(109,166,o),
(87,195,o),
(117,197,c)
);
}
);
width = 531;
},
{
layerId = "B7F60EEF-5018-4FBA-9984-B24EB61DE206";
shapes = (
{
closed = 1;
nodes = (
(153,360,o),
(153,417,o),
(141,478,c),
(179,490,o),
(142,502,o),
(161,530,c),
(147,544,o),
(158,516,o),
(159,562,c),
(151,575,o),
(173,584,o),
(178,578,c),
(240,555,o),
(318,528,o),
(350,464,c),
(406,425,o),
(429,402,o),
(430,335,c),
(449,265,o),
(375,242,o),
(349,228,cs),
(289,197,o),
(207,189,o),
(180,193,c),
(135,168,o),
(80,168,o),
(77,192,c),
(27,215,o),
(44,199,o),
(48,208,c),
(73,210,o),
(103,223,o),
(103,222,c),
(115,242,o),
(143,221,o),
(165,228,c),
(179,236,o),
(223,231,o),
(268,264,c),
(320,250,o),
(415,324,o),
(373,375,cs),
(331,421,o),
(325,441,o),
(297,463,c),
(308,459,o),
(247,495,o),
(228,491,c),
(225,472,o),
(239,422,o),
(199,411,c),
(216,386,o),
(218,345,o),
(184,329,c),
(176,297,o),
(187,248,o),
(170,277,c),
(99,256,o),
(161,316,o),
(138,293,c),
(136,332,o),
(140,315,o),
(142,300,c)
);
}
);
width = 531;
},
{
layerId = "33631C71-1333-4331-8A89-BDCD639A4A27";
shapes = (
{
closed = 1;
nodes = (
(102,337,o),
(104,425,o),
(111,538,c),
(86,588,o),
(88,574,o),
(72,608,c),
(74,613,o),
(56,618,o),
(59,635,cs),
(66,691,o),
(78,715,o),
(114,707,c),
(176,736,o),
(283,641,o),
(336,594,cs),
(419,525,o),
(470,483,o),
(488,358,c),
(503,284,o),
(464,217,o),
(381,128,cs),
(333,77,o),
(280,14,o),
(192,-11,c),
(143,-16,o),
(108,-45,o),
(67,-18,c),
(38,-11,o),
(33,17,o),
(64,43,c),
(78,46,o),
(99,34,o),
(114,69,c),
(125,53,o),
(159,58,o),
(172,99,c),
(214,108,o),
(274,144,o),
(318,158,c),
(377,233,o),
(458,317,o),
(396,428,c),
(371,461,o),
(336,507,o),
(290,541,c),
(284,537,o),
(207,593,o),
(192,611,c),
(165,576,o),
(202,485,o),
(194,442,c),
(197,399,o),
(187,323,o),
(193,274,cs),
(196,226,o),
(207,150,o),
(167,133,c),
(114,132,o),
(130,216,o),
(99,225,c),
(117,213,o),
(91,226,o),
(114,225,c)
);
}
);
width = 531;
}
);
unicode = (68,100);
},
{
glyphname = E;
lastChange = "2024-10-10 14:03:30 +0000";
layers = (
{
layerId = m01;
shapes = (
{
closed = 1;
nodes = (
(161,479,o),
(143,412,o),
(135,413,c),
(169,381,o),
(200,397,o),
(193,417,c),
(213,416,o),
(266,404,o),
(282,374,c),
(286,331,o),
(219,344,o),
(192,329,c),
(145,313,o),
(109,323,o),
(110,242,cs),
(109,224,o),
(114,173,o),
(98,176,c),
(130,172,o),
(164,159,o),
(165,189,c),
(242,204,o),
(272,204,o),
(357,212,c),
(392,186,o),
(447,214,o),
(473,186,c),
(489,127,o),
(416,118,o),
(355,101,c),
(293,102,o),
(244,105,o),
(193,107,cs),
(131,106,o),
(83,59,o),
(43,73,c),
(24,114,o),
(32,194,o),
(13,223,c),
(55,239,o),
(50,269,o),
(31,325,c),
(49,341,o),
(28,339,o),
(28,380,c),
(33,422,o),
(76,391,o),
(52,414,c),
(91,457,o),
(58,500,o),
(63,508,cs),
(89,545,o),
(60,550,o),
(54,567,c),
(29,578,o),
(38,608,o),
(44,627,c),
(107,665,o),
(210,648,o),
(211,630,c),
(286,624,o),
(349,617,o),
(431,628,c),
(453,634,o),
(489,629,o),
(525,625,c),
(518,628,o),
(603,611,o),
(585,618,c),
(615,574,o),
(491,567,o),
(496,558,c),
(425,548,o),
(337,557,o),
(271,532,c),
(253,551,o),
(202,570,o),
(185,544,c),
(122,553,o),
(147,538,o),
(169,501,c),
(159,515,o),
(154,500,o),
(154,495,c)
);
}
);
width = 547;
},
{
layerId = "3EED4E43-93E5-49B5-B4F5-8693E91ADEE2";
shapes = (
{
closed = 1;
nodes = (
(189,544,o),
(142,477,o),
(143,451,c),
(156,435,o),
(174,442,o),
(187,443,c),
(262,429,o),
(312,438,o),
(290,391,c),
(275,325,o),
(207,358,o),
(166,341,c),
(117,367,o),
(108,337,o),
(84,245,c),
(60,252,o),
(47,180,o),
(48,168,c),
(84,155,o),
(116,172,o),
(142,169,c),
(179,185,o),
(253,139,o),
(311,169,c),
(329,136,o),
(461,180,o),
(457,118,c),
(463,24,o),
(354,39,o),
(294,42,c),
(251,48,o),
(174,70,o),
(134,65,c),
(53,72,o),
(-16,21,o),
(-59,75,c),
(-71,100,o),
(-42,224,o),
(-3,235,c),
(3,272,o),
(28,312,o),
(28,341,c),
(19,384,o),
(0,431,o),
(15,438,c),
(59,451,o),
(41,467,o),
(73,496,c),
(99,534,o),
(107,578,o),
(98,612,cs),
(89,650,o),
(98,658,o),
(68,706,c),
(86,713,o),
(92,745,o),
(94,755,c),
(137,792,o),
(252,724,o),
(270,733,c),
(352,696,o),
(411,690,o),
(504,672,c),
(540,653,o),
(550,659,o),
(598,661,c),
(629,649,o),
(674,630,o),
(679,625,c),
(704,573,o),
(554,549,o),
(563,559,c),
(493,570,o),
(406,570,o),
(313,601,c),
(271,608,o),
(266,620,o),
(229,625,c),
(184,627,o),
(180,591,o),
(174,550,c),
(160,585,o),
(183,555,o),
(188,579,c)
);
}
);
width = 547;
},
{
layerId = "B7F60EEF-5018-4FBA-9984-B24EB61DE206";
shapes = (
{
closed = 1;
nodes = (
(196,431,o),
(202,378,o),
(183,381,c),
(191,370,o),
(226,398,o),
(228,402,c),
(253,383,o),
(295,407,o),
(312,371,c),
(321,321,o),
(248,342,o),
(227,334,cs),
(178,317,o),
(186,295,o),
(201,246,c),
(208,255,o),
(191,186,o),
(212,194,c),
(230,180,o),
(225,210,o),
(242,212,c),
(263,233,o),
(312,211,o),
(344,221,c),
(381,247,o),
(437,295,o),
(455,230,c),
(471,211,o),
(427,192,o),
(370,161,c),
(340,172,o),
(307,141,o),
(254,143,c),
(253,102,o),
(208,92,o),
(180,105,cs),
(141,121,o),
(140,188,o),
(135,227,c),
(151,239,o),
(158,247,o),
(157,282,c),
(132,324,o),
(102,318,o),
(128,344,c),
(133,353,o),
(132,374,o),
(124,376,c),
(138,422,o),
(104,452,o),
(137,476,c),
(106,497,o),
(87,502,o),
(104,522,c),
(77,513,o),
(98,552,o),
(95,579,c),
(97,571,o),
(169,580,o),
(207,576,c),
(262,590,o),
(284,594,o),
(349,587,c),
(378,603,o),
(397,605,o),
(405,611,c),
(411,603,o),
(458,608,o),
(475,599,c),
(480,591,o),
(416,565,o),
(388,553,cs),
(358,539,o),
(306,504,o),
(267,527,c),
(236,526,o),
(205,493,o),
(203,517,c),
(147,502,o),
(187,481,o),
(169,463,c),
(165,440,o),
(180,449,o),
(211,436,c)
);
}
);
width = 547;
},
{
layerId = "33631C71-1333-4331-8A89-BDCD639A4A27";
shapes = (
{
closed = 1;
nodes = (
(130,457,o),
(118,414,o),
(132,397,cs),
(137,392,o),
(173,400,o),
(187,397,c),
(224,403,o),
(285,397,o),
(282,374,c),
(284,318,o),
(200,322,o),
(172,339,c),
(118,317,o),
(91,306,o),
(82,260,c),
(79,250,o),
(85,206,o),
(106,192,c),
(90,188,o),
(156,197,o),
(171,203,c),
(244,193,o),
(271,214,o),
(335,208,c),
(366,217,o),
(492,252,o),
(486,217,c),
(535,151,o),
(413,139,o),
(352,140,c),
(311,156,o),
(215,135,o),
(177,141,c),
(119,133,o),
(44,94,o),
(-4,133,c),
(-13,137,o),
(9,212,o),
(-2,248,c),
(13,272,o),
(25,282,o),
(21,318,cs),
(20,334,o),
(-22,362,o),
(9,366,c),
(27,397,o),
(29,403,o),
(51,406,c),
(57,433,o),
(57,480,o),
(45,493,c),
(54,526,o),
(36,517,o),
(33,548,c),
(35,554,o),
(14,577,o),
(43,602,c),
(68,636,o),
(163,598,o),
(227,591,c),
(273,596,o),
(373,589,o),
(431,578,c),
(472,581,o),
(525,572,o),
(555,577,c),
(560,570,o),
(625,583,o),
(627,578,c),
(662,529,o),
(536,524,o),
(501,526,c),
(426,520,o),
(337,521,o),
(263,513,c),
(227,524,o),
(179,527,o),
(158,535,c),
(139,517,o),
(119,499,o),
(120,476,c),
(149,472,o),
(137,471,o),
(123,468,c)
);
}
);
width = 547;
}
);
unicode = (69,101);
},
{
glyphname = F;
lastChange = "2024-10-10 14:03:36 +0000";
layers = (
{
layerId = m01;
shapes = (
{
closed = 1;
nodes = (
(189,439,o),
(182,407,o),
(214,355,c),
(245,365,o),
(280,371,o),
(307,390,c),
(351,377,o),
(358,390,o),
(365,379,c),
(396,366,o),
(412,353,o),
(394,307,c),
(372,300,o),
(300,296,o),
(277,301,c),
(251,281,o),
(201,283,o),
(162,292,c),
(137,269,o),
(168,192,o),
(150,166,c),
(174,130,o),
(167,67,o),
(135,74,c),
(25,76,o),
(95,285,o),
(89,321,c),
(105,366,o),
(110,417,o),
(112,448,c),
(80,471,o),
(77,499,o),
(101,516,c),
(66,538,o),
(38,550,o),
(48,552,c),
(37,567,o),
(-2,602,o),
(32,608,c),
(46,650,o),
(131,609,o),
(184,610,c),
(262,625,o),
(344,621,o),
(442,606,c),
(459,634,o),
(572,615,o),
(545,573,c),
(530,502,o),
(467,525,o),
(398,549,c),
(382,526,o),
(322,515,o),
(284,506,c),
(219,527,o),
(187,522,o),
(164,492,c),
(164,500,o),
(181,506,o),
(173,479,c)
);
}
);
width = 502;
},
{
layerId = "3EED4E43-93E5-49B5-B4F5-8693E91ADEE2";
shapes = (
{
closed = 1;
nodes = (
(132,466,o),
(119,411,o),
(191,396,c),
(222,361,o),
(286,415,o),
(283,422,c),
(338,429,o),
(367,439,o),
(371,451,c),
(421,432,o),
(442,381,o),
(381,360,c),
(391,346,o),
(323,304,o),
(274,312,c),
(255,274,o),
(191,311,o),
(154,281,c),
(121,240,o),
(153,192,o),
(164,169,c),
(166,113,o),
(152,14,o),
(128,13,c),
(48,-19,o),
(46,265,o),
(54,274,c),
(39,342,o),
(35,390,o),
(54,448,c),
(35,474,o),
(33,533,o),
(7,528,c),
(17,536,o),
(-10,561,o),
(-28,567,c),
(-75,572,o),
(-101,619,o),
(-59,648,c),
(-32,673,o),
(68,666,o),
(85,655,c),
(194,691,o),
(291,698,o),
(397,731,c),
(448,718,o),
(568,752,o),
(562,666,c),
(522,616,o),
(429,614,o),
(413,589,c),
(344,592,o),
(295,575,o),
(229,581,c),
(182,575,o),
(107,584,o),
(127,533,c),
(122,510,o),
(129,519,o),
(145,529,c)
);
}
);
width = 502;
},
{
layerId = "B7F60EEF-5018-4FBA-9984-B24EB61DE206";
shapes = (
{
closed = 1;
nodes = (
(222,447,o),
(173,403,o),
(209,366,c),
(233,361,o),
(276,372,o),
(289,372,c),
(286,359,o),
(303,395,o),
(327,389,c),
(368,369,o),
(341,332,o),
(333,325,c),
(306,294,o),
(262,280,o),
(265,308,c),
(233,288,o),
(184,312,o),
(177,323,c),
(162,297,o),
(148,264,o),
(147,243,c),
(179,211,o),
(140,154,o),
(97,161,c),
(73,145,o),
(132,304,o),
(141,328,c),
(142,375,o),
(161,418,o),
(166,447,c),
(152,450,o),
(148,473,o),
(145,483,c),
(131,506,o),
(123,516,o),
(139,525,c),
(115,542,o),
(119,553,o),
(151,591,c),
(156,572,o),
(211,564,o),
(210,570,c),
(277,563,o),
(351,545,o),
(385,517,c),
(406,525,o),
(495,502,o),
(450,462,cs),
(444,456,o),
(393,446,o),
(358,456,c),
(358,478,o),
(323,462,o),
(257,493,c),
(236,483,o),
(204,494,o),
(213,448,c),
(213,482,o),
(204,472,o),
(203,449,c)
);
}
);
width = 502;
},
{
layerId = "33631C71-1333-4331-8A89-BDCD639A4A27";
shapes = (
{
closed = 1;
nodes = (
(202,474,o),
(179,382,o),
(206,368,c),
(244,353,o),
(276,379,o),
(296,368,c),
(316,392,o),
(340,413,o),
(359,407,c),
(403,402,o),
(378,344,o),
(370,304,c),
(343,303,o),
(304,277,o),
(277,263,c),
(258,268,o),
(206,307,o),
(193,280,c),
(179,232,o),
(188,184,o),
(193,136,c),
(174,117,o),
(170,20,o),
(131,37,c),
(89,15,o),
(130,259,o),
(117,288,c),
(137,344,o),
(127,420,o),
(129,473,c),
(137,499,o),
(120,540,o),
(121,537,c),
(106,557,o),
(99,574,o),
(83,586,c),
(70,592,o),
(50,640,o),
(77,661,c),
(89,674,o),
(160,659,o),
(199,663,c),
(252,635,o),
(332,653,o),
(397,659,c),
(439,670,o),
(518,673,o),
(484,604,c),
(482,546,o),
(411,547,o),
(383,574,c),
(355,560,o),
(299,563,o),
(265,550,c),
(231,568,o),
(196,624,o),
(208,556,c),
(224,526,o),
(204,501,o),
(199,504,c)
);
}
);
width = 502;
}
);
unicode = (70,102);
},
{
glyphname = G;
lastChange = "2024-10-10 14:03:40 +0000";
layers = (
{
layerId = m01;
shapes = (
{
closed = 1;
nodes = (
(6,346,o),
(28,398,o),
(67,453,c),
(78,526,o),
(119,601,o),
(152,613,c),
(181,692,o),
(275,736,o),
(340,637,c),
(365,612,o),
(396,528,o),
(307,544,c),
(262,557,o),
(268,646,o),
(222,580,c),
(194,545,o),
(147,485,o),
(131,460,c),
(112,365,o),
(94,327,o),
(101,264,c),
(131,212,o),
(116,129,o),
(164,101,c),
(225,92,o),
(282,102,o),
(339,134,cs),
(357,145,o),
(401,235,o),
(343,270,c),
(331,275,o),
(307,227,o),
(272,259,c),
(273,260,o),
(219,241,o),
(229,267,c),
(197,245,o),
(184,251,o),
(187,273,c),
(164,273,o),
(157,260,o),
(140,275,c),
(137,302,o),
(133,307,o),
(180,322,c),
(192,323,o),
(219,317,o),
(286,336,c),
(328,317,o),
(383,335,o),
(415,353,c),
(497,371,o),
(460,282,o),
(476,238,c),
(453,133,o),
(352,-16,o),
(225,-3,c),
(191,30,o),
(118,50,o),
(78,109,c),
(24,137,o),
(34,222,o),
(6,282,c)
);
}
);
width = 489;
},
{
layerId = "3EED4E43-93E5-49B5-B4F5-8693E91ADEE2";
shapes = (
{
closed = 1;
nodes = (
(-25,399,o),
(34,493,o),
(78,549,c),
(94,598,o),
(130,707,o),
(201,725,c),
(283,798,o),
(419,807,o),
(479,697,c),
(488,650,o),
(494,536,o),
(384,583,c),
(326,603,o),
(388,694,o),
(299,666,c),
(225,635,o),
(208,574,o),
(168,506,c),
(105,444,o),
(92,347,o),
(70,261,c),
(50,208,o),
(56,145,o),
(120,85,c),
(181,41,o),
(287,32,o),
(340,64,c),
(348,84,o),
(439,196,o),
(380,236,c),
(367,238,o),
(320,244,o),
(292,218,c),
(275,226,o),
(208,238,o),
(215,256,c),
(181,250,o),
(185,292,o),
(148,274,c),
(168,260,o),
(144,292,o),
(136,299,c),
(94,306,o),
(124,312,o),
(147,345,c),
(181,341,o),
(249,338,o),
(288,339,c),
(360,324,o),
(418,354,o),
(484,333,c),
(595,337,o),
(543,250,o),
(530,196,c),
(505,16,o),
(354,-106,o),
(156,-52,c),
(90,-37,o),
(21,41,o),
(-24,89,c),
(-67,169,o),
(-72,244,o),
(-28,345,c)
);
}
);
width = 489;
},
{
layerId = "B7F60EEF-5018-4FBA-9984-B24EB61DE206";
shapes = (
{
closed = 1;
nodes = (
(77,311,o),
(67,367,o),
(91,414,cs),
(100,435,o),
(97,484,o),
(110,534,c),
(160,599,o),
(233,623,o),
(280,562,c),
(299,544,o),
(329,487,o),
(266,495,c),
(236,519,o),
(253,554,o),
(210,513,c),
(179,491,o),
(169,451,o),
(161,423,c),
(124,375,o),
(131,327,o),
(156,258,c),
(158,223,o),
(197,175,o),
(216,183,c),
(261,149,o),
(327,161,o),
(338,225,c),
(325,246,o),
(379,295,o),
(348,304,cs),
(323,312,o),
(308,302,o),
(293,273,c),
(262,269,o),
(251,266,o),
(246,302,c),
(218,284,o),
(233,284,o),
(188,289,c),
(194,276,o),
(210,277,o),
(199,285,c),
(168,319,o),
(164,322,o),
(181,353,c),
(221,374,o),
(246,343,o),
(253,353,c),
(304,375,o),
(347,375,o),
(357,375,cs),
(428,381,o),
(423,361,o),
(425,331,c),
(444,210,o),
(370,147,o),
(281,124,c),
(237,105,o),
(196,144,o),
(158,169,c),
(103,181,o),
(90,218,o),
(85,300,c)
);
}
);
width = 489;
},
{
layerId = "33631C71-1333-4331-8A89-BDCD639A4A27";
shapes = (
{
closed = 1;
nodes = (
(-34,349,o),
(-46,405,o),
(14,461,c),
(20,494,o),
(45,537,o),
(83,576,c),
(158,609,o),
(317,665,o),
(374,594,c),
(407,566,o),
(424,476,o),
(341,498,c),
(273,526,o),
(303,585,o),
(208,541,c),
(138,521,o),
(135,466,o),
(118,428,c),
(74,370,o),
(74,314,o),
(71,256,c),
(58,227,o),
(93,170,o),
(159,158,c),
(216,135,o),
(321,122,o),
(365,175,c),
(370,185,o),
(452,266,o),
(402,272,c),
(354,286,o),
(300,266,o),
(276,259,c),
(275,263,o),
(208,260,o),
(193,279,c),
(193,274,o),
(182,269,o),
(146,275,c),
(157,275,o),
(151,287,o),
(141,287,c),
(78,313,o),
(134,307,o),
(141,304,c),
(191,323,o),
(233,339,o),
(291,339,c),
(359,333,o),
(398,343,o),
(448,361,c),
(553,368,o),
(557,309,o),
(524,258,c),
(540,170,o),
(400,61,o),
(207,83,c),
(166,77,o),
(64,110,o),
(25,128,c),
(-25,175,o),
(-66,247,o),
(-63,296,c)
);
}
);
width = 489;
}
);
unicode = (71,103);
},
{
glyphname = H;
lastChange = "2024-10-10 14:03:51 +0000";
layers = (
{
layerId = m01;
shapes = (
{
closed = 1;
nodes = (
(348,508,o),
(334,222,o),
(348,225,c),
(364,201,o),
(357,155,o),
(360,105,c),
(381,70,o),
(326,20,o),
(311,56,c),
(275,59,o),
(286,140,o),
(264,177,c),
(252,218,o),
(275,272,o),
(246,302,c),
(221,319,o),
(244,293,o),
(238,293,c),
(183,281,o),
(178,283,o),
(158,299,c),
(107,280,o),
(117,213,o),
(104,198,c),
(109,168,o),
(101,88,o),
(61,70,c),
(-13,74,o),
(43,143,o),
(9,186,c),
(30,210,o),
(45,282,o),
(25,320,c),
(42,319,o),
(1,335,o),
(14,339,c),
(40,385,o),
(64,384,o),
(45,396,c),
(25,469,o),
(22,497,o),
(43,579,c),
(22,606,o),
(0,646,o),
(81,649,c),
(173,666,o),
(136,500,o),
(132,448,cs),
(131,396,o),
(108,383,o),
(162,375,c),
(160,359,o),
(240,397,o),
(236,391,c),
(270,399,o),
(232,502,o),
(215,528,c),
(208,559,o),
(206,611,o),
(282,637,c),
(336,635,o),
(319,575,o),
(312,534,c)
);
}
);
width = 385;
},
{
layerId = "3EED4E43-93E5-49B5-B4F5-8693E91ADEE2";
shapes = (
{
closed = 1;
nodes = (
(389,551,o),
(450,232,o),
(446,224,c),
(445,200,o),
(465,128,o),
(465,80,c),
(505,41,o),
(462,-26,o),
(389,-6,c),
(366,24,o),
(334,96,o),
(355,142,c),
(349,206,o),
(342,280,o),
(298,279,c),
(294,308,o),
(271,299,o),
(252,283,c),
(228,280,o),
(201,294,o),
(177,273,c),
(107,244,o),
(112,178,o),
(117,137,c),
(108,127,o),
(91,28,o),
(73,-9,c),
(-31,-7,o),
(2,61,o),
(15,117,c),
(-5,160,o),
(34,218,o),
(14,274,c),
(-3,304,o),
(-36,304,o),
(-15,339,c),
(-47,363,o),
(3,361,o),
(-25,380,c),
(-2,478,o),
(-35,523,o),
(-35,596,c),
(-68,634,o),
(-102,700,o),
(-2,709,c),
(119,732,o),
(112,525,o),
(109,438,c),
(116,402,o),
(120,393,o),
(111,371,c),
(145,388,o),
(243,380,o),
(246,389,c),
(275,430,o),
(217,551,o),
(215,575,c),
(191,622,o),
(186,678,o),
(256,699,c),
(348,751,o),
(319,673,o),
(353,625,c)
);
}
);
width = 385;
},
{
layerId = "B7F60EEF-5018-4FBA-9984-B24EB61DE206";
shapes = (
{
closed = 1;
nodes = (
(292,428,o),
(254,248,o),
(247,258,c),
(237,236,o),
(227,211,o),
(224,157,c),
(255,125,o),
(220,93,o),
(186,160,c),
(181,158,o),
(194,221,o),
(210,238,c),
(208,238,o),
(213,268,o),
(196,301,c),
(189,310,o),
(208,310,o),
(207,327,c),
(162,336,o),
(179,305,o),
(163,311,c),
(139,314,o),
(122,274,o),
(117,253,c),
(96,249,o),
(70,196,o),
(50,187,c),
(6,194,o),
(56,264,o),
(45,259,c),
(68,284,o),
(97,318,o),
(87,352,c),
(96,378,o),
(97,358,o),
(96,371,cs),
(95,404,o),
(120,404,o),
(89,417,c),
(103,462,o),
(118,497,o),
(138,520,c),
(130,531,o),
(148,593,o),
(168,553,c),
(202,570,o),
(155,449,o),
(157,420,c),
(147,410,o),
(158,379,o),
(168,399,c),
(158,375,o),
(221,380,o),
(205,353,c),
(247,354,o),
(244,424,o),
(256,467,c),
(241,481,o),
(227,536,o),
(269,524,c),
(320,515,o),
(290,478,o),
(291,465,cs)
);
}
);
width = 385;
},
{
layerId = "33631C71-1333-4331-8A89-BDCD639A4A27";
shapes = (
{
closed = 1;
nodes = (
(321,522,o),
(341,217,o),
(334,208,c),
(340,183,o),
(329,143,o),
(337,98,cs),
(347,36,o),
(313,-44,o),
(286,10,c),
(257,33,o),
(261,114,o),
(266,179,c),
(269,195,o),
(261,252,o),
(250,301,c),
(238,311,o),
(228,303,o),
(226,311,c),
(202,294,o),
(182,306,o),
(163,281,c),
(121,286,o),
(134,229,o),
(112,160,c),
(107,134,o),
(108,53,o),
(55,35,c),
(29,52,o),
(40,115,o),
(47,157,c),
(47,196,o),
(61,255,o),
(50,303,c),
(55,334,o),
(41,337,o),
(34,350,c),
(34,360,o),
(57,395,o),
(74,417,c),
(52,463,o),
(51,529,o),
(48,604,c),
(39,639,o),
(39,690,o),
(83,700,c),
(153,694,o),
(147,491,o),
(127,432,c),
(125,420,o),
(122,403,o),
(151,385,c),
(148,393,o),
(211,379,o),
(215,384,cs),
(264,426,o),
(222,496,o),
(227,547,cs),
(229,614,o),
(204,662,o),
(258,674,c),
(321,662,o),
(288,614,o),
(319,570,c)
);
}
);
width = 385;
}
);
unicode = (72,104);
},
{
glyphname = I;
lastChange = "2024-10-10 14:01:34 +0000";
layers = (
{
layerId = m01;
shapes = (
{
closed = 1;
nodes = (
(170,218,o),
(173,194,o),
(195,169,c),
(209,143,o),
(223,109,o),
(221,93,cs),
(216,24,o),
(174,70,o),
(148,89,c),
(69,106,o),
(81,185,o),
(55,243,c),
(66,321,o),
(46,378,o),
(60,470,c),
(37,506,o),
(35,533,o),
(37,590,c),
(4,640,o),
(66,649,o),
(99,636,c),
(142,563,o),
(153,506,o),
(146,452,c),
(161,384,o),
(171,317,o),
(184,228,c)
);
}
);
width = 239;
},
{
layerId = "3EED4E43-93E5-49B5-B4F5-8693E91ADEE2";
shapes = (
{
closed = 1;
nodes = (
(140,159,o),
(145,125,o),
(166,102,c),
(171,58,o),
(189,63,o),
(175,34,c),
(181,-48,o),
(89,-10,o),
(79,30,c),
(3,76,o),
(34,171,o),
(18,263,c),
(43,338,o),
(36,401,o),
(38,503,c),
(66,560,o),
(51,601,o),
(60,657,c),
(57,733,o),
(136,703,o),
(180,665,c),
(209,613,o),
(195,513,o),
(182,430,c),
(180,386,o),
(156,295,o),
(153,225,c)
);
}
);
width = 239;
},
{
layerId = "B7F60EEF-5018-4FBA-9984-B24EB61DE206";
shapes = (
{
closed = 1;
nodes = (
(152,260,o),
(155,247,o),
(200,228,c),
(178,231,o),
(208,207,o),
(194,173,c),
(201,158,o),
(161,141,o),
(164,169,c),
(113,181,o),
(95,242,o),
(108,264,c),
(85,331,o),
(56,356,o),
(65,405,c),
(64,433,o),
(31,475,o),
(34,495,c),
(29,551,o),
(76,562,o),
(65,524,c),
(112,484,o),
(127,447,o),
(115,405,c),
(133,375,o),
(163,313,o),
(158,274,c)
);
}
);
width = 239;
},
{
layerId = "33631C71-1333-4331-8A89-BDCD639A4A27";
shapes = (
{
closed = 1;
nodes = (
(211,247,o),
(236,231,o),
(228,203,c),
(274,184,o),
(273,185,o),
(265,160,c),
(273,122,o),
(179,139,o),
(139,160,c),
(68,183,o),
(78,235,o),
(37,265,c),
(45,325,o),
(27,368,o),
(33,417,c),
(22,453,o),
(-21,482,o),
(-43,517,c),
(-54,553,o),
(73,571,o),
(118,541,c),
(174,513,o),
(167,453,o),
(147,410,c),
(188,372,o),
(187,316,o),
(215,272,c)
);
}
);
width = 239;
}
);
unicode = (73,105);
},
{
glyphname = J;
lastChange = "2024-10-10 14:01:35 +0000";
layers = (
{
layerId = m01;
shapes = (
{
closed = 1;
nodes = (
(270,406,o),
(219,482,o),
(161,534,c),
(147,581,o),
(103,616,o),
(142,643,c),
(173,682,o),
(220,594,o),
(233,561,c),
(307,504,o),
(336,409,o),
(354,314,c),
(329,238,o),
(327,153,o),
(232,104,c),
(195,43,o),
(27,22,o),
(34,99,c),
(-3,176,o),
(55,224,o),
(118,269,c),
(175,286,o),
(191,295,o),
(165,214,c),
(186,206,o),
(123,149,o),
(121,119,c),
(130,129,o),
(202,161,o),
(208,172,c),
(260,202,o),
(254,275,o),
(266,299,c)
);
}
);
width = 365;
},
{
layerId = "3EED4E43-93E5-49B5-B4F5-8693E91ADEE2";
shapes = (
{
closed = 1;
nodes = (
(242,426,o),
(186,501,o),
(84,576,c),
(79,627,o),
(36,650,o),
(68,675,c),
(93,755,o),
(172,684,o),
(193,650,c),
(265,585,o),
(371,496,o),
(397,345,c),
(434,226,o),
(406,119,o),
(320,47,c),
(270,-4,o),
(111,-110,o),
(76,12,c),
(41,90,o),
(84,167,o),
(136,221,c),
(178,290,o),
(183,266,o),
(220,193,c),
(201,182,o),
(159,85,o),
(162,55,c),
(208,32,o),
(258,149,o),
(271,143,c),
(300,219,o),
(297,256,o),
(289,320,c)
);
}
);
width = 365;
},
{
layerId = "B7F60EEF-5018-4FBA-9984-B24EB61DE206";
shapes = (
{
closed = 1;
nodes = (
(264,365,o),
(249,446,o),
(218,501,c),
(209,525,o),
(212,548,o),
(221,545,c),
(269,586,o),
(291,503,o),
(274,519,c),
(319,436,o),
(319,366,o),
(265,298,c),
(272,229,o),
(223,155,o),
(179,171,c),
(116,129,o),
(31,142,o),
(12,213,c),
(45,267,o),
(104,302,o),
(130,318,c),
(152,304,o),
(152,304,o),
(132,278,c),
(142,272,o),
(86,233,o),
(87,204,c),
(100,178,o),
(157,231,o),
(172,246,c),
(185,233,o),
(199,272,o),
(214,289,c)
);
}
);
width = 365;
},
{
layerId = "33631C71-1333-4331-8A89-BDCD639A4A27";
shapes = (
{
closed = 1;
nodes = (
(240,415,o),
(194,513,o),
(167,613,c),
(171,631,o),
(141,683,o),
(169,696,c),
(191,732,o),
(217,674,o),
(221,613,c),
(265,532,o),
(292,414,o),
(306,321,c),
(308,196,o),
(270,77,o),
(215,44,c),
(196,18,o),
(80,-58,o),
(75,67,c),
(68,126,o),
(102,206,o),
(139,256,c),
(163,277,o),
(182,256,o),
(182,206,c),
(174,200,o),
(127,109,o),
(149,95,c),
(149,56,o),
(191,137,o),
(214,139,c),
(230,188,o),
(228,254,o),
(231,296,cs)
);
}
);
width = 365;
}
);
unicode = (74,106);
},
{
glyphname = K;
lastChange = "2024-10-10 14:01:36 +0000";
layers = (
{
layerId = m01;
shapes = (
{
closed = 1;
nodes = (
(124,624,o),
(115,591,o),
(130,568,c),
(132,536,o),
(150,500,o),
(130,465,c),
(150,478,o),
(173,529,o),
(198,522,c),
(259,587,o),
(351,759,o),
(448,691,c),
(514,671,o),
(496,640,o),
(453,619,c),
(434,613,o),
(434,624,o),
(397,608,c),
(393,557,o),
(370,544,o),
(349,506,c),
(328,513,o),
(318,487,o),
(296,464,c),
(279,458,o),
(253,467,o),
(266,415,cs),
(263,428,o),
(294,395,o),
(320,382,c),
(333,362,o),
(334,336,o),
(371,312,c),
(395,272,o),
(418,234,o),
(469,197,c),
(465,183,o),
(487,157,o),
(485,127,c),
(521,125,o),
(528,110,o),
(523,133,c),
(562,112,o),
(584,30,o),
(563,27,c),
(513,-47,o),
(503,-7,o),
(444,58,c),
(413,88,o),
(404,143,o),
(373,185,c),
(314,231,o),
(284,284,o),
(243,289,c),
(203,329,o),
(176,409,o),
(163,345,c),
(181,277,o),
(183,200,o),
(184,142,cs),
(183,117,o),
(152,53,o),
(113,107,c),
(69,108,o),
(102,124,o),
(74,160,c),
(103,208,o),
(82,231,o),
(68,250,c),
(96,343,o),
(54,409,o),
(46,465,c),
(41,531,o),
(-5,619,o),
(69,617,c)
);
}
);
width = 599;
},
{
layerId = "3EED4E43-93E5-49B5-B4F5-8693E91ADEE2";
shapes = (
{
closed = 1;
nodes = (
(170,723,o),
(173,713,o),
(149,649,c),
(151,605,o),
(153,555,o),
(168,570,c),
(193,523,o),
(239,579,o),
(241,583,c),
(341,621,o),
(492,803,o),
(589,741,cs),
(627,716,o),
(596,657,o),
(574,645,c),
(560,644,o),
(516,618,o),
(473,593,c),
(447,581,o),
(422,591,o),
(397,555,c),
(393,514,o),
(350,524,o),
(351,504,c),
(307,487,o),
(276,488,o),
(284,463,cs),
(292,430,o),
(296,428,o),
(341,390,c),
(330,358,o),
(347,348,o),
(382,292,cs),
(409,252,o),
(431,211,o),
(476,138,c),
(483,97,o),
(482,75,o),
(487,71,c),
(492,54,o),
(519,20,o),
(540,27,c),
(580,-17,o),
(562,-85,o),
(544,-106,c),
(478,-137,o),
(443,-76,o),
(407,-54,c),
(389,19,o),
(390,95,o),
(354,168,cs),
(334,213,o),
(269,243,o),
(254,333,c),
(213,356,o),
(179,432,o),
(153,364,c),
(115,299,o),
(113,229,o),
(97,129,c),
(91,108,o),
(60,55,o),
(32,106,c),
(-5,132,o),
(-8,148,o),
(30,195,c),
(19,242,o),
(11,286,o),
(42,307,c),
(41,379,o),
(63,474,o),
(50,581,c),
(63,641,o),
(25,748,o),
(92,744,c)
);
}
);
width = 599;
},
{
layerId = "B7F60EEF-5018-4FBA-9984-B24EB61DE206";
shapes = (
{
closed = 1;
nodes = (
(121,482,o),
(143,477,o),
(128,450,c),
(158,442,o),
(150,407,o),
(168,415,c),
(183,408,o),
(207,426,o),
(188,427,c),
(225,469,o),
(294,599,o),
(337,596,c),
(355,592,o),
(365,552,o),
(368,536,c),
(330,538,o),
(325,534,o),
(312,516,c),
(309,513,o),
(313,494,o),
(296,459,c),
(281,443,o),
(296,423,o),
(275,417,c),
(256,424,o),
(264,411,o),
(232,378,c),
(250,374,o),
(282,392,o),
(267,369,c),
(289,374,o),
(314,345,o),
(349,361,c),
(370,335,o),
(390,310,o),
(409,282,c),
(423,299,o),
(443,290,o),
(439,246,c),
(471,262,o),
(469,267,o),
(486,250,c),
(524,262,o),
(538,216,o),
(524,184,c),
(494,154,o),
(459,188,o),
(439,190,c),
(398,236,o),
(376,251,o),
(348,261,c),
(342,288,o),
(290,290,o),
(249,321,cs),
(220,346,o),
(172,344,o),
(212,320,c),
(224,303,o),
(216,232,o),
(251,216,c),
(224,201,o),
(251,167,o),
(182,186,c),
(157,173,o),
(160,210,o),
(186,189,c),
(153,221,o),
(156,231,o),
(167,276,c),
(162,314,o),
(110,336,o),
(102,374,c),
(108,422,o),
(42,479,o),
(92,484,c)
);
}
);
width = 599;
},
{
layerId = "33631C71-1333-4331-8A89-BDCD639A4A27";
shapes = (
{
closed = 1;
nodes = (
(68,604,o),
(90,568,o),
(102,518,c),
(117,518,o),
(116,464,o),
(120,471,c),
(131,453,o),
(162,493,o),
(183,493,c),
(272,549,o),
(373,700,o),
(502,645,c),
(549,634,o),
(517,610,o),
(490,573,c),
(476,584,o),
(438,571,o),
(438,563,c),
(396,541,o),
(390,510,o),
(357,505,c),
(342,490,o),
(328,486,o),
(308,464,c),
(289,458,o),
(256,429,o),
(273,419,c),
(244,407,o),
(301,382,o),
(302,377,c),
(316,361,o),
(365,339,o),
(386,330,c),
(425,283,o),
(463,268,o),
(484,223,c),
(513,216,o),
(535,180,o),
(546,160,c),
(569,157,o),
(586,160,o),
(579,160,c),
(607,142,o),
(631,89,o),
(610,64,c),
(563,32,o),
(500,61,o),
(488,79,c),
(442,130,o),
(422,188,o),
(386,209,c),
(338,254,o),
(305,289,o),
(226,304,c),
(190,345,o),
(146,387,o),
(131,320,c),
(147,287,o),
(146,230,o),
(142,166,c),
(149,146,o),
(125,103,o),
(77,125,c),
(45,144,o),
(62,170,o),
(59,196,cs),
(57,220,o),
(32,251,o),
(41,267,c),
(53,351,o),
(19,393,o),
(-3,454,c),
(-11,504,o),
(-72,603,o),
(13,584,c)
);
}
);
width = 599;
}
);
unicode = (75,107);
},
{
glyphname = L;
lastChange = "2024-10-10 14:01:37 +0000";
layers = (
{
layerId = m01;
shapes = (
{
closed = 1;
nodes = (
(113,433,o),
(93,309,o),
(126,233,c),
(103,185,o),
(106,188,o),
(167,156,c),
(171,160,o),
(179,182,o),
(223,163,c),
(236,174,o),
(253,174,o),
(287,175,c),
(330,210,o),
(330,215,o),
(363,211,c),
(406,169,o),
(393,144,o),
(387,154,c),
(348,77,o),
(257,69,o),
(189,86,c),
(179,83,o),
(174,63,o),
(153,83,c),
(143,61,o),
(113,80,o),
(103,58,c),
(78,67,o),
(48,76,o),
(41,107,c),
(26,106,o),
(51,139,o),
(34,168,c),
(32,224,o),
(16,255,o),
(5,310,c),
(36,420,o),
(5,513,o),
(22,567,c),
(53,649,o),
(57,637,o),
(96,627,c),
(117,576,o),
(139,562,o),
(147,500,c)
);
}
);
width = 405;
},
{
layerId = "3EED4E43-93E5-49B5-B4F5-8693E91ADEE2";
shapes = (
{
closed = 1;
nodes = (
(121,433,o),
(111,311,o),
(138,203,c),
(122,160,o),
(139,127,o),
(180,150,c),
(207,118,o),
(249,169,o),
(265,164,c),
(273,184,o),
(311,155,o),
(326,169,c),
(370,195,o),
(394,240,o),
(448,211,c),
(496,203,o),
(475,160,o),
(441,141,c),
(410,73,o),
(316,49,o),
(267,46,c),
(229,24,o),
(240,44,o),
(212,28,c),
(193,21,o),
(157,19,o),
(169,-3,c),
(138,-6,o),
(79,-23,o),
(47,0,c),
(31,39,o),
(27,71,o),
(45,126,c),
(18,190,o),
(-1,221,o),
(-25,276,c),
(-15,383,o),
(-50,484,o),
(-57,606,c),
(-67,656,o),
(-13,674,o),
(27,663,c),
(66,640,o),
(72,566,o),
(66,551,c)
);
}
);
width = 405;
},
{
layerId = "B7F60EEF-5018-4FBA-9984-B24EB61DE206";
shapes = (
{
closed = 1;
nodes = (
(171,417,o),
(106,331,o),
(114,297,c),
(108,270,o),
(111,225,o),
(140,215,c),
(151,219,o),
(184,233,o),
(194,248,c),
(191,225,o),
(212,205,o),
(211,220,c),
(262,228,o),
(275,221,o),
(291,232,c),
(288,207,o),
(295,203,o),
(294,188,c),
(243,132,o),
(197,163,o),
(139,137,c),
(124,143,o),
(141,147,o),
(109,157,c),
(97,180,o),
(98,147,o),
(96,152,c),
(53,146,o),
(49,171,o),
(45,200,c),
(61,229,o),
(50,228,o),
(52,243,cs),
(61,309,o),
(64,332,o),
(48,379,c),
(69,410,o),
(82,511,o),
(104,535,cs),
(138,572,o),
(151,605,o),
(178,573,c),
(189,548,o),
(172,498,o),
(164,482,c)
);
}
);
width = 405;
},
{
layerId = "33631C71-1333-4331-8A89-BDCD639A4A27";
shapes = (
{
closed = 1;
nodes = (
(143,435,o),
(132,334,o),
(142,189,c),
(132,157,o),
(142,142,o),
(156,116,c),
(183,116,o),
(199,131,o),
(219,122,c),
(241,134,o),
(250,125,o),
(255,152,c),
(294,160,o),
(322,182,o),
(331,139,c),
(352,152,o),
(347,102,o),
(342,84,c),
(310,46,o),
(239,40,o),
(202,14,c),
(197,27,o),
(170,15,o),
(168,20,c),
(166,23,o),
(140,17,o),
(137,-2,c),
(116,4,o),
(88,-2,o),
(72,33,c),
(66,67,o),
(70,92,o),
(81,134,c),
(62,184,o),
(67,237,o),
(61,303,cs),
(48,441,o),
(50,546,o),
(81,648,c),
(71,700,o),
(92,696,o),
(115,675,c),
(160,643,o),
(139,602,o),
(142,547,cs)
);
}
);
width = 405;
}
);
unicode = (76,108);
},
{
glyphname = M;
lastChange = "2024-10-10 14:01:37 +0000";
layers = (
{
layerId = m01;
shapes = (
{
closed = 1;
nodes = (
(132,189,o),
(101,94,c),
(132,76,o),
(114,39,o),
(59,45,c),
(-2,45,o),
(17,117,o),
(15,110,cs),
(37,206,o),
(43,323,o),
(16,415,c),
(42,456,o),
(44,488,o),
(22,563,c),
(32,596,o),
(48,637,o),
(92,632,c),
(152,638,o),
(168,586,o),
(137,551,c),
(144,539,o),
(170,522,o),
(160,507,c),
(197,501,o),
(195,436,o),
(212,443,c),
(192,413,o),
(226,404,o),
(226,432,c),
(267,441,o),
(258,452,o),
(258,473,c),
(298,521,o),
(353,570,o),
(359,590,c),
(487,639,o),
(483,427,o),
(479,423,c),
(486,299,o),
(500,197,o),
(505,121,c),
(501,96,o),
(470,-3,o),
(401,35,c),
(370,20,o),
(374,120,o),
(411,133,c),
(410,179,o),
(386,226,o),
(374,286,c),
(371,369,o),
(423,521,o),
(355,461,c),
(352,448,o),
(343,413,o),
(320,385,c),
(275,346,o),
(308,306,o),
(264,291,c),
(207,290,o),
(179,418,o),
(125,421,c),
(106,402,o),
(125,390,o),
(128,363,c),
(103,320,o)
);
}
);
width = 507;
},
{
layerId = "3EED4E43-93E5-49B5-B4F5-8693E91ADEE2";
shapes = (
{
closed = 1;
nodes = (
(73,198,o),
(47,46,c),
(61,1,o),
(50,-15,o),
(-10,-18,c),
(-91,6,o),
(-62,62,o),
(-87,120,c),
(-49,235,o),
(-53,328,o),
(-33,440,c),
(-4,522,o),
(-13,599,o),
(15,671,cs),
(29,712,o),
(9,800,o),
(94,762,cs),
(133,742,o),
(152,680,o),
(173,661,c),
(157,621,o),
(156,613,o),
(169,569,c),
(176,553,o),
(174,499,o),
(194,464,cs),
(205,442,o),
(241,462,o),
(255,475,cs),
(286,507,o),
(280,515,o),
(302,520,c),
(322,555,o),
(376,636,o),
(441,673,c),
(596,705,o),
(578,475,o),
(561,397,c),
(570,295,o),
(544,153,o),
(517,40,c),
(541,2,o),
(510,-128,o),
(441,-72,c),
(384,-62,o),
(427,26,o),
(411,60,c),
(417,135,o),
(426,207,o),
(433,300,cs),
(435,340,o),
(494,563,o),
(431,519,c),
(408,471,o),
(342,442,o),
(314,381,c),
(310,385,o),
(299,326,o),
(254,308,c),
(175,269,o),
(148,452,o),
(92,435,c),
(97,472,o),
(106,419,o),
(78,422,c),
(81,361,o)
);
}
);
width = 507;
},
{
layerId = "B7F60EEF-5018-4FBA-9984-B24EB61DE206";
shapes = (
{
closed = 1;
nodes = (
(168,212,o),
(187,146,c),
(200,148,o),
(211,105,o),
(163,119,c),
(121,96,o),
(109,152,o),
(120,164,c),
(88,244,o),
(90,306,o),
(84,363,c),
(64,387,o),
(69,443,o),
(77,450,c),
(54,474,o),
(24,552,o),
(109,557,c),
(138,524,o),
(131,517,o),
(158,492,c),
(143,498,o),
(168,471,o),
(180,454,c),
(157,451,o),
(179,409,o),
(215,399,c),
(189,390,o),
(226,384,o),
(206,408,c),
(218,410,o),
(228,426,o),
(246,457,c),
(275,482,o),
(284,524,o),
(294,565,c),
(376,589,o),
(411,452,o),
(411,440,c),
(427,356,o),
(451,315,o),
(449,208,c),
(454,212,o),
(470,166,o),
(420,139,c),
(398,155,o),
(401,191,o),
(380,229,c),
(393,274,o),
(383,296,o),
(340,334,c),
(326,391,o),
(366,513,o),
(334,446,c),
(296,444,o),
(276,401,o),
(284,375,cs),
(287,364,o),
(269,330,o),
(270,340,c),
(217,295,o),
(178,395,o),
(162,358,c),
(126,386,o),
(159,371,o),
(163,340,c),
(146,299,o)
);
}
);
width = 507;
},
{
layerId = "33631C71-1333-4331-8A89-BDCD639A4A27";
shapes = (
{
closed = 1;
nodes = (
(99,220,o),
(101,124,c),
(99,113,o),
(84,67,o),
(8,89,c),
(-30,85,o),
(-50,144,o),
(-29,168,c),
(-46,237,o),
(-23,311,o),
(-18,382,c),
(-26,428,o),
(-8,462,o),
(-26,514,c),
(11,540,o),
(-25,604,o),
(78,576,c),
(104,580,o),
(136,538,o),
(148,537,c),
(146,514,o),
(125,487,o),
(153,472,c),
(176,465,o),
(167,428,o),
(166,422,c),
(199,402,o),
(207,408,o),
(240,427,c),
(260,422,o),
(249,443,o),
(282,457,c),
(307,496,o),
(337,535,o),
(388,563,c),
(524,571,o),
(548,436,o),
(543,386,c),
(546,322,o),
(528,238,o),
(532,144,c),
(559,112,o),
(530,62,o),
(460,66,c),
(396,85,o),
(434,160,o),
(421,168,c),
(435,220,o),
(414,262,o),
(418,307,c),
(413,357,o),
(470,481,o),
(413,449,c),
(364,417,o),
(332,385,o),
(315,368,cs),
(310,362,o),
(315,319,o),
(280,308,c),
(165,280,o),
(135,388,o),
(94,396,c),
(85,379,o),
(82,368,o),
(72,360,c),
(57,340,o)
);
}
);
width = 507;
}
);
unicode = (77,109);
},
{
glyphname = N;
lastChange = "2024-10-10 14:03:54 +0000";
layers = (
{
layerId = m01;
shapes = (
{
closed = 1;
nodes = (
(348,322,o),
(348,593,o),
(461,493,c),
(490,461,o),
(439,431,o),
(476,406,c),
(440,359,o),
(437,292,o),
(443,241,c),
(469,185,o),
(501,137,o),
(449,100,c),
(449,54,o),
(362,58,o),
(340,87,cs),
(306,133,o),
(270,160,o),
(226,212,c),
(205,271,o),
(175,346,o),
(149,361,c),
(94,357,o),
(129,309,o),
(157,264,c),
(136,257,o),
(154,246,o),
(138,191,c),
(129,174,o),
(141,122,o),
(111,104,c),
(90,70,o),
(53,101,o),
(60,70,c),
(8,101,o),
(8,150,o),
(41,191,c),
(34,223,o),
(20,317,o),
(39,379,c),
(40,396,o),
(15,429,o),
(9,454,c),
(31,514,o),
(23,525,o),
(22,556,c),
(68,623,o),
(146,568,o),
(173,512,c),
(214,493,o),
(229,442,o),
(249,406,c),
(255,341,o),
(303,291,o),
(338,272,c),
(339,251,o),
(342,277,o),
(339,272,c)
);
}
);
width = 491;
},
{
layerId = "3EED4E43-93E5-49B5-B4F5-8693E91ADEE2";
shapes = (
{
closed = 1;
nodes = (
(359,357,o),
(333,678,o),
(465,603,c),
(502,577,o),
(503,533,o),
(488,478,c),
(505,417,o),
(519,317,o),
(553,267,c),
(566,212,o),
(589,138,o),
(554,87,c),
(530,-1,o),
(473,11,o),
(427,53,c),
(364,77,o),
(323,134,o),
(261,201,c),
(220,229,o),
(142,345,o),
(90,329,c),
(57,332,o),
(118,291,o),
(129,240,c),
(117,214,o),
(127,196,o),
(140,139,c),
(124,105,o),
(138,3,o),
(128,-26,c),
(118,-28,o),
(66,-39,o),
(32,-26,c),
(13,-4,o),
(-3,36,o),
(-3,92,c),
(20,162,o),
(-34,264,o),
(-49,341,cs),
(-56,381,o),
(-45,434,o),
(-83,472,c),
(-72,522,o),
(-114,569,o),
(-67,592,c),
(-48,681,o),
(75,598,o),
(102,568,c),
(162,519,o),
(179,447,o),
(228,386,c),
(253,365,o),
(322,305,o),
(363,274,cs),
(392,252,o),
(391,283,o),
(361,314,c)
);
}
);
width = 491;
},
{
layerId = "B7F60EEF-5018-4FBA-9984-B24EB61DE206";
shapes = (
{
closed = 1;
nodes = (
(298,303,o),
(338,524,o),
(426,415,c),
(425,392,o),
(420,395,o),
(423,363,c),
(415,323,o),
(371,271,o),
(375,221,c),
(386,192,o),
(406,163,o),
(380,102,c),
(355,74,o),
(300,113,o),
(285,131,c),
(272,154,o),
(236,226,o),
(226,261,c),
(205,287,o),
(182,361,o),
(172,369,c),
(148,359,o),
(167,327,o),
(175,314,c),
(156,291,o),
(159,249,o),
(158,264,c),
(157,217,o),
(152,154,o),
(96,176,c),
(96,145,o),
(73,184,o),
(89,184,c),
(39,179,o),
(41,237,o),
(50,230,c),
(98,285,o),
(97,329,o),
(74,405,c),
(94,414,o),
(109,460,o),
(91,473,c),
(116,471,o),
(111,495,o),
(131,512,c),
(135,601,o),
(189,510,o),
(224,478,c),
(240,460,o),
(243,425,o),
(255,368,c),
(272,324,o),
(285,286,o),
(311,263,c),
(311,242,o),
(318,265,o),
(324,270,c)
);
}
);
width = 491;
},
{
layerId = "33631C71-1333-4331-8A89-BDCD639A4A27";
shapes = (
{
closed = 1;
nodes = (
(316,324,o),
(331,657,o),
(405,538,c),
(435,505,o),
(413,442,o),
(403,413,c),
(420,340,o),
(394,284,o),
(415,216,c),
(421,157,o),
(432,88,o),
(409,43,cs),
(382,-11,o),
(339,11,o),
(333,43,c),
(304,88,o),
(275,139,o),
(232,177,c),
(207,242,o),
(196,348,o),
(165,338,c),
(146,347,o),
(162,284,o),
(175,237,c),
(157,211,o),
(166,208,o),
(152,175,c),
(156,142,o),
(165,56,o),
(129,34,c),
(129,5,o),
(111,33,o),
(108,21,c),
(84,54,o),
(67,110,o),
(79,129,c),
(80,225,o),
(77,308,o),
(84,404,cs),
(86,435,o),
(77,451,o),
(67,521,c),
(81,548,o),
(55,585,o),
(86,598,c),
(90,718,o),
(155,607,o),
(176,558,c),
(207,532,o),
(220,440,o),
(244,389,cs),
(270,343,o),
(289,284,o),
(328,250,c),
(315,210,o),
(328,250,o),
(331,266,c)
);
}
);
width = 491;
}
);
unicode = (78,110);
},
{
glyphname = O;
lastChange = "2024-10-10 14:01:50 +0000";
layers = (
{
layerId = m01;
shapes = (
{
closed = 1;
nodes = (
(98,494,o),
(80,348,o),
(103,303,c),
(117,188,o),
(222,108,o),
(302,182,c),
(397,233,o),
(408,366,o),
(383,446,c),
(389,487,o),
(366,539,o),
(321,565,c),
(310,556,o),
(201,561,o),
(177,522,c)
);
},
{
closed = 1;
nodes = (
(21,378,o),
(58,469,o),
(71,550,c),
(117,600,o),
(170,667,o),
(229,654,c),
(229,673,o),
(279,669,o),
(269,660,c),
(284,643,o),
(289,657,o),
(319,619,c),
(335,605,o),
(368,635,o),
(399,627,c),
(437,595,o),
(453,501,o),
(472,451,c),
(506,318,o),
(454,123,o),
(282,95,c),
(236,94,o),
(139,92,o),
(105,142,c),
(44,191,o),
(35,224,o),
(35,299,c)
);
}
);
width = 502;
},
{
layerId = "3EED4E43-93E5-49B5-B4F5-8693E91ADEE2";
shapes = (
{
closed = 1;
nodes = (
(98,557,o),
(29,381,o),
(30,306,c),
(46,177,o),
(135,43,o),
(249,99,cs),
(413,182,o),
(418,300,o),
(424,433,cs),
(426,514,o),
(417,531,o),
(373,592,c),
(325,619,o),
(229,611,o),
(169,584,c)
);
},
{
closed = 1;
nodes = (
(-43,438,o),
(12,528,o),
(61,606,cs),
(115,683,o),
(187,746,o),
(263,759,cs),
(294,765,o),
(308,757,o),
(329,728,c),
(346,730,o),
(350,724,o),
(366,708,c),
(382,676,o),
(447,656,o),
(467,644,cs),
(557,589,o),
(551,480,o),
(535,397,c),
(528,241,o),
(437,0,o),
(230,7,c),
(161,13,o),
(38,29,o),
(-16,103,c),
(-53,160,o),
(-43,259,o),
(-65,339,c)
);
}
);
width = 502;
},
{
layerId = "B7F60EEF-5018-4FBA-9984-B24EB61DE206";
shapes = (
{
closed = 1;
nodes = (
(116,437,o),
(145,319,o),
(146,261,c),
(200,195,o),
(276,161,o),
(315,221,c),
(404,305,o),
(365,370,o),
(348,454,c),
(317,465,o),
(292,495,o),
(284,521,c),
(249,513,o),
(162,505,o),
(156,488,c)
);
},
{
closed = 1;
nodes = (
(50,329,o),
(59,407,o),
(91,464,c),
(79,507,o),
(97,567,o),
(152,602,c),
(171,576,o),
(177,592,o),
(217,603,c),
(218,586,o),
(206,598,o),
(217,585,c),
(246,573,o),
(270,593,o),
(313,582,c),
(342,560,o),
(398,526,o),
(402,462,c),
(429,375,o),
(441,222,o),
(340,137,c),
(286,138,o),
(232,127,o),
(173,143,c),
(111,188,o),
(93,210,o),
(86,249,c)
);
}
);
width = 502;
},
{
layerId = "33631C71-1333-4331-8A89-BDCD639A4A27";
shapes = (
{
closed = 1;
nodes = (
(84,468,o),
(67,361,o),
(71,307,c),
(92,234,o),
(206,186,o),
(311,214,c),
(424,266,o),
(404,364,o),
(419,437,c),
(395,475,o),
(388,504,o),
(334,518,c),
(309,533,o),
(205,517,o),
(157,495,c)
);
},
{
closed = 1;
nodes = (
(-26,378,o),
(9,451,o),
(52,495,c),
(81,538,o),
(135,600,o),
(213,607,c),
(219,610,o),
(252,611,o),
(281,590,cs),
(278,593,o),
(312,592,o),
(325,567,c),
(353,576,o),
(382,564,o),
(425,568,c),
(488,544,o),
(511,469,o),
(530,431,c),
(545,325,o),
(482,186,o),
(302,152,c),
(214,145,o),
(117,146,o),
(54,196,c),
(-10,231,o),
(-28,271,o),
(-26,321,cs)
);
}
);
width = 502;
}
);
unicode = (79,111);
},
{
glyphname = P;
lastChange = "2024-10-10 14:04:38 +0000";
layers = (
{
layerId = m01;
shapes = (
{
closed = 1;
nodes = (
(196,339,o),
(297,382,o),
(318,380,c),
(394,403,o),
(426,464,o),
(361,503,c),
(344,521,o),
(311,547,o),
(290,553,c),
(273,534,o),
(194,582,o),
(199,565,c),
(186,515,o),
(218,424,o),
(206,383,cs)
);
},
{
closed = 1;
nodes = (
(106,325,o),
(126,304,o),
(143,329,c),
(131,336,o),
(126,379,o),
(115,418,c),
(121,415,o),
(97,441,o),
(102,465,c),
(117,506,o),
(119,526,o),
(76,540,c),
(75,541,o),
(53,485,o),
(56,525,c),
(18,539,o),
(21,581,o),
(56,592,c),
(60,597,o),
(93,636,o),
(146,630,c),
(176,618,o),
(231,611,o),
(269,634,c),
(341,636,o),
(479,587,o),
(496,497,cs),
(520,397,o),
(376,334,o),
(294,290,c),
(272,313,o),
(246,315,o),
(220,254,c),
(242,228,o),
(249,227,o),
(245,183,c),
(215,156,o),
(216,125,o),
(241,130,c),
(242,58,o),
(211,8,o),
(177,15,c),
(149,10,o),
(110,114,o),
(137,132,c),
(148,136,o),
(155,172,o),
(142,192,c),
(132,194,o),
(155,228,o),
(152,263,c),
(126,282,o),
(93,256,o),
(89,294,c)
);
}
);
width = 526;
},
{
layerId = "3EED4E43-93E5-49B5-B4F5-8693E91ADEE2";
shapes = (
{
closed = 1;
nodes = (
(230,291,o),
(307,380,o),
(342,398,c),
(389,470,o),
(424,514,o),
(358,566,cs),
(337,584,o),
(281,624,o),
(239,591,c),
(214,607,o),
(173,622,o),
(138,581,cs),
(111,551,o),
(209,402,o),
(192,352,c)
);
},
{
closed = 1;
nodes = (
(92,260,o),
(99,252,o),
(126,275,c),
(100,316,o),
(91,366,o),
(91,400,c),
(90,403,o),
(87,437,o),
(52,459,c),
(44,499,o),
(42,507,o),
(21,510,c),
(13,551,o),
(10,503,o),
(-46,517,c),
(-60,542,o),
(-89,572,o),
(-38,594,c),
(-21,648,o),
(41,655,o),
(50,664,c),
(86,677,o),
(145,698,o),
(233,696,c),
(299,729,o),
(455,680,o),
(534,594,c),
(597,465,o),
(393,334,o),
(309,299,c),
(307,262,o),
(274,269,o),
(242,213,c),
(249,203,o),
(270,164,o),
(250,142,c),
(287,94,o),
(290,42,o),
(264,26,c),
(284,-7,o),
(276,-99,o),
(217,-118,c),
(164,-115,o),
(140,-22,o),
(158,17,c),
(138,61,o),
(143,70,o),
(168,95,c),
(136,105,o),
(128,185,o),
(137,204,c),
(130,199,o),
(83,166,o),
(82,222,c)
);
}
);
width = 526;
},
{
layerId = "B7F60EEF-5018-4FBA-9984-B24EB61DE206";
shapes = (
{
closed = 1;
nodes = (
(213,319,o),
(296,358,o),
(313,374,c),
(351,366,o),
(377,405,o),
(358,444,c),
(368,443,o),
(331,480,o),
(320,475,cs),
(318,474,o),
(258,504,o),
(270,470,c),
(230,488,o),
(259,389,o),
(232,367,c)
);
},
{
closed = 1;
nodes = (
(160,345,o),
(179,329,o),
(167,362,c),
(183,348,o),
(192,376,o),
(197,414,c),
(165,414,o),
(194,444,o),
(182,460,c),
(183,463,o),
(182,473,o),
(170,499,c),
(189,482,o),
(157,484,o),
(150,504,c),
(127,526,o),
(148,534,o),
(157,531,c),
(163,570,o),
(237,558,o),
(245,557,c),
(257,548,o),
(276,548,o),
(309,523,c),
(377,523,o),
(437,448,o),
(428,385,c),
(454,335,o),
(345,316,o),
(270,303,c),
(279,316,o),
(230,329,o),
(239,307,c),
(213,272,o),
(208,254,o),
(197,260,c),
(209,217,o),
(207,202,o),
(207,204,cs),
(208,179,o),
(196,131,o),
(154,148,c),
(108,141,o),
(124,196,o),
(121,229,c),
(125,231,o),
(155,232,o),
(150,246,c),
(148,258,o),
(169,293,o),
(151,322,c),
(176,338,o),
(156,307,o),
(153,329,c)
);
}
);
width = 526;
},
{
layerId = "33631C71-1333-4331-8A89-BDCD639A4A27";
shapes = (
{
closed = 1;
nodes = (
(235,341,o),
(299,414,o),
(316,407,c),
(361,440,o),
(392,493,o),
(358,565,c),
(337,582,o),
(309,607,o),
(278,592,c),
(270,592,o),
(222,637,o),
(219,587,c),
(207,561,o),
(229,428,o),
(241,391,c)
);
},
{
closed = 1;
nodes = (
(137,322,o),
(148,285,o),
(168,331,c),
(163,354,o),
(151,411,o),
(151,416,c),
(155,471,o),
(153,485,o),
(138,527,c),
(151,548,o),
(158,583,o),
(123,576,c),
(129,583,o),
(105,550,o),
(99,548,c),
(83,572,o),
(86,625,o),
(86,665,c),
(103,666,o),
(147,691,o),
(154,689,c),
(191,686,o),
(231,684,o),
(286,700,c),
(339,689,o),
(431,652,o),
(448,553,c),
(480,421,o),
(366,346,o),
(294,308,c),
(280,279,o),
(258,281,o),
(250,243,c),
(227,247,o),
(254,197,o),
(240,156,c),
(234,119,o),
(243,86,o),
(244,74,cs),
(245,6,o),
(237,-70,o),
(207,-46,c),
(177,-31,o),
(150,37,o),
(157,91,c),
(154,116,o),
(183,144,o),
(162,160,c),
(180,173,o),
(176,219,o),
(174,255,c),
(161,274,o),
(146,212,o),
(130,254,c)
);
}
);
width = 526;
}
);
unicode = (80,112);
},
{
glyphname = Q;
lastChange = "2024-10-10 14:04:24 +0000";
layers = (
{
layerId = m01;
shapes = (
{
closed = 1;
nodes = (
(375,322,o),
(392,364,o),
(392,410,cs),
(393,470,o),
(370,490,o),
(326,511,c),
(305,484,o),
(293,525,o),
(221,561,c),
(214,549,o),
(188,511,o),
(157,520,c),
(102,444,o),
(108,404,o),
(102,326,c),
(108,270,o),
(109,162,o),
(145,137,c),
(213,98,o),
(253,167,o),
(293,197,cs),
(351,245,o),
(299,271,o),
(251,317,c),
(190,349,o),
(257,398,o),
(282,394,cs),
(327,389,o),
(325,324,o),
(350,337,c)
);
},
{
closed = 1;
nodes = (
(466,376,o),
(443,361,o),
(435,269,c),
(439,262,o),
(487,201,o),
(509,203,c),
(565,154,o),
(589,128,o),
(632,89,c),
(630,51,o),
(582,-1,o),
(546,39,c),
(545,63,o),
(537,79,o),
(538,80,c),
(512,95,o),
(486,131,o),
(482,146,c),
(437,136,o),
(419,182,o),
(405,184,c),
(412,174,o),
(381,189,o),
(366,165,c),
(350,99,o),
(315,77,o),
(235,76,c),
(202,52,o),
(182,93,o),
(135,59,c),
(95,78,o),
(52,129,o),
(56,116,cs),
(33,187,o),
(23,251,o),
(7,275,c),
(17,370,o),
(35,489,o),
(97,565,c),
(130,601,o),
(151,613,o),
(216,607,c),
(250,639,o),
(277,614,o),
(329,626,c),
(354,598,o),
(387,629,o),
(425,608,c),
(441,573,o),
(471,521,o),
(485,482,c)
);
}
);
width = 573;
},
{
layerId = "3EED4E43-93E5-49B5-B4F5-8693E91ADEE2";
shapes = (
{
closed = 1;
nodes = (
(376,307,o),
(409,371,o),
(423,407,c),
(414,474,o),
(396,479,o),
(387,492,c),
(326,530,o),
(310,573,o),
(285,586,c),
(224,603,o),
(213,603,o),
(175,584,c),
(89,517,o),
(93,438,o),
(73,357,cs),
(57,285,o),
(-11,158,o),
(71,105,c),
(121,44,o),
(221,87,o),
(255,151,c),
(332,206,o),
(283,236,o),
(242,304,c),
(183,342,o),
(237,422,o),
(283,378,c),
(329,359,o),
(336,306,o),
(370,308,c)
);
},
{
closed = 1;
nodes = (
(515,368,o),
(480,298,o),
(461,234,cs),
(435,158,o),
(506,149,o),
(512,85,c),
(560,60,o),
(623,10,o),
(618,-62,cs),
(613,-110,o),
(568,-149,o),
(520,-88,c),
(524,-106,o),
(532,-54,o),
(508,-36,c),
(485,-31,o),
(482,-6,o),
(454,22,c),
(441,43,o),
(419,79,o),
(414,85,c),
(375,96,o),
(376,81,o),
(341,75,c),
(278,18,o),
(220,-6,o),
(164,0,c),
(129,10,o),
(85,8,o),
(27,42,c),
(-14,31,o),
(-65,101,o),
(-48,108,c),
(-85,178,o),
(-68,228,o),
(-38,314,c),
(-29,428,o),
(13,571,o),
(92,647,c),
(163,659,o),
(203,676,o),
(225,687,c),
(299,691,o),
(355,659,o),
(407,662,c),
(433,656,o),
(471,658,o),
(508,625,c),
(525,576,o),
(517,523,o),
(521,463,c)
);
}
);
width = 573;
},
{
layerId = "B7F60EEF-5018-4FBA-9984-B24EB61DE206";
shapes = (
{
closed = 1;
nodes = (
(336,334,o),
(335,371,o),
(334,433,c),
(323,436,o),
(323,451,o),
(273,476,c),
(266,474,o),
(233,480,o),
(226,474,c),
(204,511,o),
(170,474,o),
(173,452,c),
(136,427,o),
(159,338,o),
(141,297,c),
(176,251,o),
(170,204,o),
(213,198,c),
(256,175,o),
(274,209,o),
(308,225,c),
(347,277,o),
(302,296,o),
(243,304,c),
(226,352,o),
(237,384,o),
(286,359,c),
(301,369,o),
(317,364,o),
(307,363,c)
);
},
{
closed = 1;
nodes = (
(385,415,o),
(392,373,o),
(389,306,c),
(396,302,o),
(423,285,o),
(432,244,c),
(459,255,o),
(524,210,o),
(510,191,c),
(528,161,o),
(523,148,o),
(474,166,c),
(474,168,o),
(456,195,o),
(475,178,c),
(445,203,o),
(434,191,o),
(411,193,c),
(432,214,o),
(399,215,o),
(408,238,c),
(391,233,o),
(382,239,o),
(365,204,c),
(353,199,o),
(330,171,o),
(280,154,c),
(268,129,o),
(238,130,o),
(211,129,c),
(194,138,o),
(172,133,o),
(160,148,c),
(118,192,o),
(114,239,o),
(135,248,c),
(82,322,o),
(94,418,o),
(105,482,c),
(141,503,o),
(172,512,o),
(195,560,c),
(208,531,o),
(233,548,o),
(264,541,c),
(301,575,o),
(313,564,o),
(320,556,c),
(366,518,o),
(373,495,o),
(383,457,c)
);
}
);
width = 573;
},
{
layerId = "33631C71-1333-4331-8A89-BDCD639A4A27";
shapes = (
{
closed = 1;
nodes = (
(398,329,o),
(377,361,o),
(371,420,c),
(397,439,o),
(372,453,o),
(335,467,c),
(304,473,o),
(279,489,o),
(208,514,c),
(181,513,o),
(162,486,o),
(127,487,c),
(88,424,o),
(68,375,o),
(90,326,c),
(80,281,o),
(52,196,o),
(109,166,c),
(180,138,o),
(247,192,o),
(309,207,c),
(373,258,o),
(282,275,o),
(254,321,c),
(193,344,o),
(244,380,o),
(293,364,c),
(303,373,o),
(351,341,o),
(361,337,c)
);
},
{
closed = 1;
nodes = (
(485,387,o),
(477,343,o),
(464,300,c),
(457,247,o),
(499,227,o),
(534,220,c),
(586,188,o),
(662,161,o),
(655,133,c),
(662,108,o),
(594,77,o),
(572,94,c),
(543,93,o),
(560,110,o),
(541,130,c),
(533,129,o),
(500,160,o),
(495,162,c),
(483,172,o),
(436,204,o),
(411,193,c),
(416,200,o),
(410,191,o),
(363,177,c),
(318,142,o),
(309,133,o),
(231,116,c),
(212,109,o),
(134,122,o),
(107,125,c),
(84,104,o),
(24,151,o),
(-3,172,cs),
(-32,201,o),
(-18,255,o),
(-31,278,c),
(-14,365,o),
(-1,447,o),
(80,511,c),
(89,549,o),
(154,563,o),
(207,559,c),
(229,572,o),
(293,553,o),
(339,559,c),
(382,551,o),
(431,559,o),
(443,555,c),
(468,506,o),
(486,469,o),
(479,453,c)
);
}
);
width = 573;
}
);
unicode = (81,113);
},
{
glyphname = R;
lastChange = "2024-10-10 14:01:47 +0000";
layers = (
{
layerId = m01;
shapes = (
{
closed = 1;
nodes = (
(142,529,o),
(156,413,o),
(149,337,c),
(180,288,o),
(168,303,o),
(202,345,c),
(221,325,o),
(281,346,o),
(277,384,c),
(312,390,o),
(325,425,o),
(338,416,c),
(370,454,o),
(299,473,o),
(286,487,c),
(265,490,o),
(257,491,o),
(246,509,c),
(247,519,o),
(231,505,o),
(212,521,c),
(243,536,o),
(200,543,o),
(179,532,c)
);
},
{
closed = 1;
nodes = (
(67,367,o),
(74,406,c),
(68,453,o),
(66,499,o),
(52,535,c),
(46,529,o),
(-10,571,o),
(57,605,c),
(91,643,o),
(240,598,o),
(309,595,c),
(315,580,o),
(325,568,o),
(381,529,c),
(417,539,o),
(430,511,o),
(453,493,c),
(461,417,o),
(470,432,o),
(447,380,c),
(384,379,o),
(362,320,o),
(335,333,c),
(353,315,o),
(265,264,o),
(237,244,c),
(258,221,o),
(336,184,o),
(375,194,c),
(376,160,o),
(573,87,o),
(501,54,c),
(457,1,o),
(359,93,o),
(316,86,c),
(295,142,o),
(264,154,o),
(221,144,c),
(152,187,o),
(158,164,o),
(192,93,c),
(184,81,o),
(154,31,o),
(136,41,c),
(75,31,o),
(70,64,o),
(91,109,c),
(82,244,o)
);
}
);
width = 539;
},
{
layerId = "3EED4E43-93E5-49B5-B4F5-8693E91ADEE2";
shapes = (
{
closed = 1;
nodes = (
(141,624,o),
(173,422,o),
(160,357,c),
(142,310,o),
(132,280,o),
(197,309,c),
(236,331,o),
(251,357,o),
(278,388,c),
(318,378,o),
(358,422,o),
(382,441,c),
(381,469,o),
(360,494,o),
(310,532,c),
(307,518,o),
(271,548,o),
(278,538,cs),
(266,556,o),
(233,577,o),
(259,564,c),
(248,606,o),
(207,612,o),
(198,579,c)
);
},
{
closed = 1;
nodes = (
(9,410,o),
(52,471,c),
(36,505,o),
(72,560,o),
(48,601,c),
(38,637,o),
(-28,683,o),
(47,682,c),
(123,742,o),
(264,672,o),
(356,616,c),
(392,599,o),
(403,597,o),
(421,575,c),
(455,525,o),
(483,484,o),
(501,451,c),
(519,394,o),
(508,386,o),
(450,352,c),
(440,348,o),
(378,302,o),
(371,276,c),
(314,269,o),
(217,261,o),
(235,225,c),
(210,190,o),
(314,137,o),
(311,122,c),
(373,97,o),
(566,-37,o),
(462,-75,c),
(410,-122,o),
(326,0,o),
(244,21,c),
(248,61,o),
(175,79,o),
(146,139,c),
(92,165,o),
(112,98,o),
(89,59,c),
(68,-2,o),
(56,-34,o),
(24,-40,c),
(-61,-23,o),
(-48,53,o),
(-21,82,c),
(18,243,o)
);
}
);
width = 539;
},
{
layerId = "B7F60EEF-5018-4FBA-9984-B24EB61DE206";
shapes = (
{
closed = 1;
nodes = (
(202,504,o),
(225,373,o),
(208,370,c),
(180,346,o),
(210,312,o),
(209,332,c),
(251,357,o),
(267,349,o),
(282,340,c),
(309,370,o),
(323,393,o),
(332,396,c),
(359,400,o),
(307,435,o),
(305,421,c),
(297,468,o),
(298,470,o),
(286,468,c),
(258,449,o),
(249,477,o),
(260,474,c),
(253,464,o),
(244,504,o),
(227,492,c)
);
},
{
closed = 1;
nodes = (
(124,388,o),
(157,415,c),
(165,444,o),
(164,459,o),
(156,486,c),
(132,512,o),
(112,537,o),
(160,557,c),
(204,571,o),
(272,530,o),
(321,501,c),
(346,475,o),
(339,462,o),
(371,471,c),
(394,459,o),
(410,413,o),
(404,409,c),
(432,364,o),
(419,354,o),
(355,341,c),
(356,343,o),
(324,319,o),
(296,291,c),
(311,305,o),
(249,279,o),
(235,281,c),
(252,261,o),
(292,225,o),
(299,234,c),
(307,204,o),
(417,145,o),
(385,91,c),
(322,95,o),
(260,131,o),
(251,173,c),
(242,176,o),
(236,215,o),
(192,231,c),
(182,254,o),
(164,201,o),
(176,167,c),
(150,164,o),
(162,149,o),
(132,138,c),
(71,159,o),
(105,167,o),
(92,223,c),
(141,311,o)
);
}
);
width = 539;
},
{
layerId = "33631C71-1333-4331-8A89-BDCD639A4A27";
shapes = (
{
closed = 1;
nodes = (
(151,608,o),
(203,431,o),
(189,355,c),
(200,284,o),
(205,307,o),
(219,344,c),
(249,354,o),
(282,370,o),
(286,401,c),
(312,423,o),
(336,426,o),
(343,451,c),
(340,486,o),
(308,504,o),
(288,528,c),
(286,554,o),
(255,555,o),
(257,556,c),
(245,570,o),
(247,575,o),
(243,583,c),
(233,590,o),
(211,581,o),
(197,609,c)
);
},
{
closed = 1;
nodes = (
(115,381,o),
(113,444,c),
(121,461,o),
(111,531,o),
(104,566,c),
(83,618,o),
(52,625,o),
(103,653,c),
(151,731,o),
(228,671,o),
(286,663,c),
(312,625,o),
(318,631,o),
(340,614,c),
(385,598,o),
(407,565,o),
(407,498,c),
(423,444,o),
(424,418,o),
(401,405,c),
(367,393,o),
(345,353,o),
(332,317,cs),
(328,303,o),
(265,257,o),
(266,235,cs),
(268,209,o),
(324,168,o),
(340,132,c),
(373,108,o),
(502,55,o),
(450,-37,cs),
(422,-83,o),
(341,0,o),
(296,43,c),
(280,83,o),
(263,94,o),
(220,133,c),
(177,139,o),
(199,110,o),
(198,64,c),
(204,-10,o),
(192,-38,o),
(159,-27,c),
(113,-47,o),
(112,7,o),
(123,52,c),
(121,238,o)
);
}
);
width = 539;
}
);
unicode = (82,114);
},
{
glyphname = S;
lastChange = "2024-10-10 14:01:46 +0000";
layers = (
{
layerId = m01;
shapes = (
{
closed = 1;
nodes = (
(252,667,o),
(400,630,o),
(371,542,c),
(341,527,o),
(318,511,o),
(312,520,c),
(277,530,o),
(296,572,o),
(292,568,c),
(245,601,o),
(187,564,o),
(123,547,c),
(38,508,o),
(214,437,o),
(275,403,c),
(355,377,o),
(413,319,o),
(392,202,cs),
(376,107,o),
(287,60,o),
(190,38,c),
(154,33,o),
(93,72,o),
(90,70,c),
(73,104,o),
(16,169,o),
(37,175,cs),
(108,200,o),
(77,180,o),
(92,132,c),
(145,114,o),
(194,128,o),
(242,163,c),
(252,150,o),
(295,160,o),
(291,241,c),
(311,268,o),
(285,276,o),
(250,302,c),
(215,338,o),
(156,386,o),
(113,413,c),
(66,428,o),
(12,436,o),
(24,492,c),
(-8,613,o),
(143,662,o),
(225,633,c)
);
}
);
width = 417;
},
{
layerId = "3EED4E43-93E5-49B5-B4F5-8693E91ADEE2";
shapes = (
{
closed = 1;
nodes = (
(196,709,o),
(398,696,o),
(320,614,c),
(315,562,o),
(317,554,o),
(291,592,c),
(242,578,o),
(276,595,o),
(259,603,c),
(212,614,o),
(134,610,o),
(83,560,c),
(-1,495,o),
(206,459,o),
(254,416,c),
(359,363,o),
(431,320,o),
(439,194,c),
(419,72,o),
(328,-18,o),
(234,-52,cs),
(182,-72,o),
(129,-54,o),
(118,3,c),
(66,26,o),
(36,90,o),
(44,128,c),
(92,170,o),
(85,90,o),
(112,62,c),
(183,52,o),
(208,65,o),
(283,86,c),
(286,132,o),
(338,155,o),
(311,181,c),
(341,262,o),
(289,267,o),
(235,298,c),
(195,349,o),
(137,359,o),
(114,386,c),
(62,401,o),
(7,434,o),
(-11,488,c),
(-58,598,o),
(81,690,o),
(149,712,c)
);
}
);
width = 417;
},
{
layerId = "B7F60EEF-5018-4FBA-9984-B24EB61DE206";
shapes = (
{
closed = 1;
nodes = (
(231,548,o),
(321,533,o),
(292,513,c),
(295,486,o),
(265,469,o),
(253,478,c),
(245,475,o),
(268,486,o),
(252,491,cs),
(205,503,o),
(187,490,o),
(165,481,c),
(101,440,o),
(230,387,o),
(266,409,c),
(320,382,o),
(365,330,o),
(374,273,c),
(370,200,o),
(321,140,o),
(245,115,c),
(213,114,o),
(172,107,o),
(184,123,c),
(142,139,o),
(119,196,o),
(132,211,cs),
(168,250,o),
(149,198,o),
(173,194,c),
(205,166,o),
(253,188,o),
(248,201,c),
(306,218,o),
(288,223,o),
(288,261,c),
(281,290,o),
(288,319,o),
(255,343,c),
(240,337,o),
(192,369,o),
(148,362,c),
(128,361,o),
(107,379,o),
(76,440,c),
(44,481,o),
(129,546,o),
(208,565,c)
);
}
);
width = 417;
},
{
layerId = "33631C71-1333-4331-8A89-BDCD639A4A27";
shapes = (
{
closed = 1;
nodes = (
(260,605,o),
(437,569,o),
(394,506,c),
(351,499,o),
(340,504,o),
(331,505,cs),
(299,511,o),
(305,529,o),
(294,538,c),
(244,545,o),
(173,535,o),
(128,515,c),
(-5,468,o),
(227,436,o),
(275,413,c),
(351,356,o),
(453,316,o),
(423,223,c),
(411,157,o),
(288,107,o),
(196,78,c),
(147,92,o),
(100,103,o),
(54,135,cs),
(52,137,o),
(-23,183,o),
(48,209,c),
(61,225,o),
(78,205,o),
(90,180,c),
(138,156,o),
(180,153,o),
(232,171,cs),
(278,189,o),
(311,194,o),
(320,229,c),
(312,292,o),
(276,303,o),
(255,322,c),
(198,361,o),
(160,362,o),
(107,387,cs),
(47,411,o),
(5,439,o),
(-10,477,c),
(-31,567,o),
(120,598,o),
(212,604,cs)
);
}
);
width = 417;
}
);
unicode = (83,115);
},
{
glyphname = T;
lastChange = "2024-10-10 14:01:45 +0000";
layers = (
{
layerId = m01;
shapes = (
{
closed = 1;
nodes = (
(435,487,o),
(397,508,c),
(317,489,o),
(335,473,o),
(348,396,c),
(383,328,o),
(387,230,o),
(353,130,c),
(325,94,o),
(311,88,o),
(262,120,c),
(271,167,o),
(251,233,o),
(276,307,c),
(245,372,o),
(240,510,o),
(174,462,c),
(140,458,o),
(-11,424,o),
(-35,485,c),
(5,516,o),
(21,542,o),
(48,557,c),
(80,580,o),
(111,543,o),
(118,559,c),
(151,563,o),
(164,574,o),
(208,585,cs),
(288,601,o),
(390,586,o),
(471,615,c),
(493,607,o),
(570,596,o),
(562,566,c),
(618,545,o),
(558,516,o),
(500,491,c),
(471,513,o)
);
}
);
width = 568;
},
{
layerId = "3EED4E43-93E5-49B5-B4F5-8693E91ADEE2";
shapes = (
{
closed = 1;
nodes = (
(446,462,o),
(413,478,c),
(358,510,o),
(357,453,o),
(343,399,c),
(336,312,o),
(352,151,o),
(262,61,c),
(259,33,o),
(200,38,o),
(211,89,c),
(194,143,o),
(215,194,o),
(246,257,c),
(237,340,o),
(278,530,o),
(194,518,c),
(130,514,o),
(-10,496,o),
(21,582,c),
(30,629,o),
(72,669,o),
(87,679,c),
(125,659,o),
(149,653,o),
(185,624,c),
(209,638,o),
(231,626,o),
(239,653,c),
(355,625,o),
(434,627,o),
(543,597,c),
(555,564,o),
(621,553,o),
(655,561,c),
(636,504,o),
(602,476,o),
(560,463,c),
(516,467,o)
);
}
);
width = 568;
},
{
layerId = "B7F60EEF-5018-4FBA-9984-B24EB61DE206";
shapes = (
{
closed = 1;
nodes = (
(397,428,o),
(365,434,c),
(332,432,o),
(329,410,o),
(334,393,c),
(317,331,o),
(310,237,o),
(273,183,c),
(255,137,o),
(224,135,o),
(243,201,c),
(236,222,o),
(242,245,o),
(241,312,c),
(268,349,o),
(278,445,o),
(213,436,c),
(199,448,o),
(77,459,o),
(86,469,c),
(108,500,o),
(161,528,o),
(134,538,c),
(173,529,o),
(176,518,o),
(212,534,c),
(201,523,o),
(242,539,o),
(250,537,cs),
(336,517,o),
(407,524,o),
(450,497,c),
(460,496,o),
(504,496,o),
(529,482,c),
(517,415,o),
(512,438,o),
(480,402,c),
(445,407,o)
);
}
);
width = 568;
},
{
layerId = "33631C71-1333-4331-8A89-BDCD639A4A27";
shapes = (
{
closed = 1;
nodes = (
(398,511,o),
(371,532,c),
(327,535,o),
(339,486,o),
(332,413,c),
(363,329,o),
(364,205,o),
(340,106,c),
(312,36,o),
(281,38,o),
(275,73,c),
(275,139,o),
(282,197,o),
(263,275,c),
(254,351,o),
(261,524,o),
(174,492,c),
(140,491,o),
(20,415,o),
(25,491,c),
(41,538,o),
(82,609,o),
(76,614,c),
(109,621,o),
(109,619,o),
(135,602,c),
(172,604,o),
(192,611,o),
(206,619,c),
(299,640,o),
(371,653,o),
(461,652,c),
(479,643,o),
(523,664,o),
(551,634,c),
(550,571,o),
(542,562,o),
(477,545,c),
(441,541,o)
);
}
);
width = 568;
}
);
unicode = (84,116);
},
{
glyphname = U;
lastChange = "2024-10-10 14:01:44 +0000";
layers = (
{
layerId = m01;
shapes = (
{
closed = 1;
nodes = (
(548,278,o),
(572,241,o),
(484,115,c),
(462,46,o),
(389,-40,o),
(297,-20,c),
(184,-15,o),
(111,98,o),
(61,196,c),
(47,294,o),
(35,415,o),
(30,532,c),
(10,573,o),
(49,585,o),
(97,581,c),
(110,568,o),
(103,478,o),
(129,438,c),
(114,323,o),
(121,230,o),
(187,128,c),
(249,46,o),
(350,64,o),
(417,149,c),
(463,233,o),
(482,377,o),
(456,488,c),
(432,521,o),
(446,602,o),
(412,625,cs),
(379,650,o),
(330,644,o),
(335,625,c),
(335,670,o),
(340,674,o),
(353,687,c),
(484,784,o),
(531,592,o),
(536,517,c),
(557,499,o),
(559,410,o),
(554,351,cs)
);
}
);
width = 615;
},
{
layerId = "3EED4E43-93E5-49B5-B4F5-8693E91ADEE2";
shapes = (
{
closed = 1;
nodes = (
(626,351,o),
(640,267,o),
(569,131,c),
(552,28,o),
(507,-71,o),
(389,-85,c),
(246,-75,o),
(125,19,o),
(74,135,c),
(22,222,o),
(-20,362,o),
(-58,484,c),
(-38,551,o),
(-16,598,o),
(20,569,c),
(68,554,o),
(78,456,o),
(97,402,c),
(113,303,o),
(143,201,o),
(210,111,c),
(317,17,o),
(442,20,o),
(484,150,c),
(543,264,o),
(520,417,o),
(477,549,c),
(429,604,o),
(419,677,o),
(370,690,c),
(330,719,o),
(308,677,o),
(275,710,c),
(293,706,o),
(279,758,o),
(292,747,c),
(408,902,o),
(530,652,o),
(549,589,c),
(556,557,o),
(592,447,o),
(591,422,c)
);
}
);
width = 615;
},
{
layerId = "B7F60EEF-5018-4FBA-9984-B24EB61DE206";
shapes = (
{
closed = 1;
nodes = (
(492,229,o),
(474,208,o),
(392,124,c),
(347,62,o),
(272,23,o),
(198,58,c),
(127,81,o),
(91,202,o),
(69,280,c),
(81,337,o),
(105,442,o),
(106,520,c),
(123,566,o),
(144,572,o),
(173,539,c),
(183,542,o),
(155,450,o),
(174,444,c),
(137,377,o),
(153,296,o),
(180,208,c),
(191,119,o),
(258,121,o),
(337,157,c),
(395,215,o),
(422,318,o),
(421,400,c),
(433,444,o),
(431,519,o),
(433,555,c),
(405,539,o),
(383,551,o),
(392,565,c),
(378,563,o),
(410,568,o),
(388,577,c),
(516,640,o),
(492,478,o),
(513,415,c),
(510,397,o),
(490,315,o),
(504,287,c)
);
}
);
width = 615;
},
{
layerId = "33631C71-1333-4331-8A89-BDCD639A4A27";
shapes = (
{
closed = 1;
nodes = (
(619,308,o),
(587,264,o),
(524,173,cs),
(466,94,o),
(416,59,o),
(280,57,c),
(153,78,o),
(55,164,o),
(16,242,c),
(-2,305,o),
(-25,402,o),
(-24,489,c),
(-32,512,o),
(-1,563,o),
(67,545,c),
(90,525,o),
(99,446,o),
(76,432,c),
(84,352,o),
(82,260,o),
(159,192,c),
(239,111,o),
(363,124,o),
(431,203,c),
(482,272,o),
(509,365,o),
(474,461,c),
(483,496,o),
(457,569,o),
(402,589,c),
(401,602,o),
(345,577,o),
(354,586,c),
(334,598,o),
(376,635,o),
(380,640,c),
(511,700,o),
(562,528,o),
(579,481,c),
(582,450,o),
(591,385,o),
(610,351,c)
);
}
);
width = 615;
}
);
unicode = (85,117);
},
{
glyphname = V;
lastChange = "2024-10-10 14:01:43 +0000";
layers = (
{
layerId = m01;
shapes = (
{
closed = 1;
nodes = (
(428,539,o),
(419,412,o),
(402,334,c),
(381,261,o),
(378,237,o),
(355,183,c),
(355,156,o),
(394,70,o),
(330,49,c),
(250,-11,o),
(132,302,o),
(112,354,c),
(100,396,o),
(81,412,o),
(71,466,c),
(56,477,o),
(31,476,o),
(49,507,c),
(40,526,o),
(-22,566,o),
(19,586,c),
(19,627,o),
(58,613,o),
(82,608,c),
(84,618,o),
(91,563,o),
(110,547,c),
(114,532,o),
(156,514,o),
(179,445,c),
(227,412,o),
(188,255,o),
(287,232,c),
(389,255,o),
(311,448,o),
(327,558,c),
(314,583,o),
(315,663,o),
(357,656,c),
(379,680,o),
(422,639,o),
(407,623,c)
);
}
);
width = 417;
},
{
layerId = "3EED4E43-93E5-49B5-B4F5-8693E91ADEE2";
shapes = (
{
closed = 1;
nodes = (
(501,488,o),
(453,389,o),
(376,262,c),
(358,242,o),
(350,181,o),
(318,128,cs),
(292,85,o),
(293,13,o),
(243,-13,c),
(126,-86,o),
(67,352,o),
(86,408,c),
(86,450,o),
(82,494,o),
(39,515,c),
(54,541,o),
(22,561,o),
(39,605,c),
(11,628,o),
(3,688,o),
(-1,686,c),
(33,721,o),
(108,753,o),
(115,708,c),
(127,692,o),
(158,662,o),
(161,640,c),
(159,578,o),
(153,536,o),
(189,504,c),
(184,396,o),
(132,248,o),
(219,225,c),
(370,192,o),
(342,455,o),
(369,547,c),
(415,612,o),
(433,653,o),
(479,691,c),
(521,707,o),
(541,618,o),
(517,585,c)
);
}
);
width = 417;
},
{
layerId = "B7F60EEF-5018-4FBA-9984-B24EB61DE206";
shapes = (
{
closed = 1;
nodes = (
(334,474,o),
(377,424,o),
(343,332,c),
(341,295,o),
(345,272,o),
(345,230,cs),
(344,215,o),
(376,155,o),
(356,154,c),
(311,80,o),
(174,303,o),
(156,345,c),
(124,353,o),
(119,395,o),
(97,402,c),
(113,415,o),
(104,419,o),
(94,416,c),
(59,427,o),
(45,478,o),
(53,483,c),
(81,486,o),
(105,520,o),
(113,506,c),
(131,524,o),
(130,488,o),
(131,464,c),
(137,452,o),
(192,434,o),
(196,420,c),
(210,387,o),
(238,259,o),
(270,280,c),
(349,303,o),
(280,436,o),
(271,499,c),
(285,519,o),
(296,549,o),
(298,569,c),
(325,582,o),
(328,556,o),
(338,524,c)
);
}
);
width = 417;
},
{
layerId = "33631C71-1333-4331-8A89-BDCD639A4A27";
shapes = (
{
closed = 1;
nodes = (
(387,559,o),
(377,429,o),
(357,307,c),
(359,280,o),
(339,193,o),
(340,148,c),
(330,100,o),
(340,26,o),
(331,-11,c),
(267,-77,o),
(140,305,o),
(136,358,c),
(120,376,o),
(112,414,o),
(97,484,c),
(88,496,o),
(77,511,o),
(50,516,c),
(50,558,o),
(28,580,o),
(45,629,c),
(32,655,o),
(78,691,o),
(91,690,c),
(119,666,o),
(135,618,o),
(117,608,c),
(150,554,o),
(162,508,o),
(184,476,c),
(210,407,o),
(201,220,o),
(252,234,c),
(359,227,o),
(295,462,o),
(297,593,c),
(312,608,o),
(311,695,o),
(339,735,c),
(370,769,o),
(385,708,o),
(380,666,c)
);
}
);
width = 417;
}
);
unicode = (86,118);
},
{
glyphname = W;
lastChange = "2024-10-10 14:04:29 +0000";
layers = (
{
layerId = m01;
shapes = (
{
closed = 1;
nodes = (
(562,342,o),
(585,323,o),
(603,224,c),
(583,216,o),
(570,102,o),
(538,117,c),
(451,63,o),
(428,104,o),
(377,170,c),
(343,191,o),
(330,221,o),
(329,223,c),
(309,239,o),
(305,306,o),
(283,302,c),
(227,314,o),
(294,201,o),
(260,180,c),
(248,150,o),
(199,138,o),
(170,144,c),
(128,211,o),
(82,298,o),
(42,384,cs),
(27,419,o),
(-7,501,o),
(41,513,c),
(15,577,o),
(87,554,o),
(102,542,c),
(125,509,o),
(145,426,o),
(121,393,c),
(149,359,o),
(157,287,o),
(191,301,c),
(262,275,o),
(183,400,o),
(199,452,c),
(221,505,o),
(210,529,o),
(222,514,c),
(249,520,o),
(282,546,o),
(285,509,c),
(312,514,o),
(310,425,o),
(336,437,c),
(326,407,o),
(337,369,o),
(367,311,c),
(370,303,o),
(390,259,o),
(406,228,c),
(408,233,o),
(467,170,o),
(475,180,c),
(494,171,o),
(514,349,o),
(489,356,c),
(490,428,o),
(492,498,o),
(475,519,c),
(475,552,o),
(469,568,o),
(478,592,c),
(498,597,o),
(518,600,o),
(543,584,c),
(596,544,o),
(587,527,o),
(570,477,c),
(586,458,o),
(598,401,o),
(572,398,c)
);
}
);
width = 608;
},
{
layerId = "3EED4E43-93E5-49B5-B4F5-8693E91ADEE2";
shapes = (
{
closed = 1;
nodes = (
(587,267,o),
(624,211,o),
(560,119,c),
(569,75,o),
(529,-28,o),
(472,-39,cs),
(390,-59,o),
(335,2,o),
(314,45,c),
(323,78,o),
(305,139,o),
(272,168,c),
(255,189,o),
(300,279,o),
(251,299,c),
(225,277,o),
(239,148,o),
(215,109,c),
(196,95,o),
(136,63,o),
(91,134,c),
(21,210,o),
(40,358,o),
(17,440,c),
(23,496,o),
(36,575,o),
(20,621,c),
(57,672,o),
(94,678,o),
(145,636,c),
(145,602,o),
(121,506,o),
(134,437,c),
(147,409,o),
(100,287,o),
(147,295,c),
(235,269,o),
(218,464,o),
(227,499,c),
(225,560,o),
(271,558,o),
(262,598,c),
(313,579,o),
(328,557,o),
(337,529,c),
(361,520,o),
(368,461,o),
(354,416,c),
(358,389,o),
(360,326,o),
(346,294,c),
(375,253,o),
(386,209,o),
(365,164,c),
(388,147,o),
(410,85,o),
(438,52,c),
(483,40,o),
(494,248,o),
(507,286,c),
(540,349,o),
(542,475,o),
(532,543,c),
(533,569,o),
(551,568,o),
(552,608,c),
(582,609,o),
(602,578,o),
(637,586,c),
(682,520,o),
(657,478,o),
(658,448,c),
(648,376,o),
(620,360,o),
(612,292,c)
);
}
);
width = 608;
},
{
layerId = "B7F60EEF-5018-4FBA-9984-B24EB61DE206";
shapes = (
{
closed = 1;
nodes = (
(508,311,o),
(531,275,o),
(482,235,c),
(477,193,o),
(469,135,o),
(426,117,c),
(372,100,o),
(365,139,o),
(337,171,c),
(293,201,o),
(307,235,o),
(269,247,c),
(286,280,o),
(275,306,o),
(259,306,c),
(248,311,o),
(261,234,o),
(242,239,c),
(241,208,o),
(185,203,o),
(168,205,c),
(113,252,o),
(114,365,o),
(101,398,c),
(102,429,o),
(83,481,o),
(90,515,c),
(95,514,o),
(157,546,o),
(176,531,c),
(190,473,o),
(192,454,o),
(184,415,c),
(161,372,o),
(187,327,o),
(213,318,c),
(252,283,o),
(227,391,o),
(228,435,c),
(242,457,o),
(259,470,o),
(279,478,c),
(290,501,o),
(297,457,o),
(327,452,c),
(311,428,o),
(308,408,o),
(327,388,c),
(316,350,o),
(352,348,o),
(345,296,c),
(336,301,o),
(353,279,o),
(372,231,c),
(369,253,o),
(377,214,o),
(393,205,c),
(422,169,o),
(422,307,o),
(430,320,c),
(467,352,o),
(471,420,o),
(460,445,c),
(468,455,o),
(432,487,o),
(462,490,c),
(457,479,o),
(486,474,o),
(503,463,c),
(522,439,o),
(519,413,o),
(526,382,c),
(529,379,o),
(506,330,o),
(506,341,c)
);
}
);
width = 608;
},
{
layerId = "33631C71-1333-4331-8A89-BDCD639A4A27";
shapes = (
{
closed = 1;
nodes = (
(599,339,o),
(632,311,o),
(629,242,c),
(607,227,o),
(604,156,o),
(559,122,c),
(497,117,o),
(443,155,o),
(399,171,c),
(372,192,o),
(323,216,o),
(306,257,c),
(305,254,o),
(306,311,o),
(295,308,c),
(223,320,o),
(264,232,o),
(254,198,c),
(234,179,o),
(208,154,o),
(163,174,c),
(87,231,o),
(38,324,o),
(14,392,c),
(21,424,o),
(-21,462,o),
(-14,489,c),
(-13,518,o),
(46,542,o),
(71,509,c),
(116,500,o),
(99,438,o),
(109,409,cs),
(122,374,o),
(134,294,o),
(180,292,c),
(247,295,o),
(166,399,o),
(203,454,c),
(203,475,o),
(216,499,o),
(217,490,c),
(246,497,o),
(288,502,o),
(286,491,c),
(334,485,o),
(331,441,o),
(323,400,c),
(330,371,o),
(357,349,o),
(388,336,c),
(398,312,o),
(409,275,o),
(416,242,c),
(445,232,o),
(491,198,o),
(499,192,c),
(514,190,o),
(524,343,o),
(538,341,c),
(508,391,o),
(540,458,o),
(504,503,cs),
(483,527,o),
(487,541,o),
(510,536,c),
(507,551,o),
(563,556,o),
(558,537,c),
(610,538,o),
(633,510,o),
(632,447,c),
(614,432,o),
(614,401,o),
(613,389,c)
);
}
);
width = 608;
}
);
unicode = (87,119);
},
{
glyphname = X;
lastChange = "2024-10-10 14:01:41 +0000";
layers = (
{
layerId = m01;
shapes = (
{
closed = 1;
nodes = (
(4,94,o),
(60,151,o),
(72,181,c),
(115,245,o),
(125,262,o),
(177,319,c),
(189,355,o),
(228,352,o),
(228,414,c),
(210,458,o),
(192,493,o),
(152,520,c),
(129,506,o),
(90,556,o),
(85,550,c),
(71,566,o),
(46,590,o),
(55,611,c),
(21,623,o),
(25,667,o),
(86,637,c),
(141,649,o),
(143,590,o),
(172,570,c),
(197,571,o),
(233,545,o),
(230,535,c),
(269,505,o),
(256,481,o),
(295,480,c),
(344,462,o),
(359,680,o),
(428,639,c),
(494,616,o),
(391,540,o),
(382,502,c),
(357,472,o),
(324,428,o),
(335,401,c),
(341,370,o),
(381,335,o),
(417,329,c),
(425,290,o),
(460,228,o),
(482,226,c),
(512,181,o),
(517,189,o),
(514,128,c),
(475,65,o),
(408,145,o),
(378,182,c),
(387,208,o),
(296,340,o),
(271,336,c),
(249,348,o),
(235,271,o),
(202,256,c),
(188,216,o),
(168,188,o),
(157,144,c),
(139,107,o),
(107,89,o),
(71,43,c),
(72,12,o),
(22,31,o),
(16,52,cs)
);
}
);
width = 544;
},
{
layerId = "3EED4E43-93E5-49B5-B4F5-8693E91ADEE2";
shapes = (
{
closed = 1;
nodes = (
(23,9,o),
(71,69,o),
(99,107,c),
(119,151,o),
(159,235,o),
(161,279,cs),
(164,317,o),
(210,340,o),
(227,397,c),
(221,442,o),
(158,492,o),
(85,533,c),
(93,548,o),
(56,541,o),
(26,589,c),
(-2,582,o),
(-26,610,o),
(-38,606,c),
(-73,673,o),
(-43,686,o),
(14,678,c),
(38,705,o),
(98,649,o),
(136,593,c),
(150,582,o),
(177,572,o),
(203,559,c),
(214,551,o),
(226,504,o),
(264,508,cs),
(310,515,o),
(299,733,o),
(408,729,c),
(483,720,o),
(414,578,o),
(363,533,cs),
(347,519,o),
(327,458,o),
(355,420,c),
(373,388,o),
(400,329,o),
(453,305,c),
(489,275,o),
(496,242,o),
(536,187,c),
(593,179,o),
(606,163,o),
(596,102,c),
(580,38,o),
(492,135,o),
(463,143,c),
(421,176,o),
(332,348,o),
(286,333,c),
(274,313,o),
(222,245,o),
(226,223,c),
(230,172,o),
(176,106,o),
(154,73,c),
(139,22,o),
(143,-24,o),
(119,-73,c),
(79,-100,o),
(59,-126,o),
(46,-76,cs)
);
}
);
width = 544;
},
{
layerId = "B7F60EEF-5018-4FBA-9984-B24EB61DE206";
shapes = (
{
closed = 1;
nodes = (
(118,161,o),
(147,173,o),
(163,229,c),
(173,255,o),
(206,295,o),
(209,317,cs),
(211,341,o),
(219,347,o),
(215,392,c),
(206,397,o),
(179,415,o),
(137,437,c),
(146,435,o),
(106,448,o),
(90,428,c),
(100,467,o),
(78,450,o),
(71,450,c),
(38,482,o),
(49,497,o),
(81,510,c),
(124,511,o),
(147,468,o),
(182,484,c),
(182,482,o),
(185,477,o),
(223,451,c),
(226,463,o),
(254,442,o),
(248,447,c),
(294,427,o),
(291,536,o),
(321,554,c),
(381,550,o),
(342,471,o),
(310,464,c),
(312,418,o),
(282,417,o),
(316,381,c),
(331,356,o),
(343,357,o),
(374,338,c),
(372,348,o),
(390,291,o),
(426,295,c),
(443,299,o),
(464,281,o),
(477,252,c),
(463,207,o),
(401,267,o),
(359,249,c),
(341,271,o),
(294,368,o),
(274,334,c),
(246,341,o),
(247,276,o),
(261,288,c),
(223,244,o),
(211,225,o),
(201,217,c),
(209,169,o),
(188,153,o),
(167,126,c),
(172,121,o),
(153,86,o),
(143,142,c)
);
}
);
width = 544;
},
{
layerId = "33631C71-1333-4331-8A89-BDCD639A4A27";
shapes = (
{
closed = 1;
nodes = (
(72,74,o),
(93,125,o),
(123,178,c),
(140,225,o),
(175,247,o),
(178,309,c),
(206,352,o),
(220,357,o),
(226,410,c),
(224,453,o),
(192,493,o),
(160,531,c),
(151,538,o),
(137,579,o),
(128,594,c),
(97,592,o),
(101,614,o),
(78,625,c),
(62,669,o),
(76,700,o),
(119,671,c),
(156,676,o),
(169,643,o),
(204,603,c),
(214,588,o),
(232,573,o),
(246,546,c),
(249,535,o),
(260,502,o),
(282,505,c),
(320,498,o),
(328,688,o),
(397,686,c),
(458,650,o),
(394,556,o),
(365,507,c),
(358,485,o),
(313,460,o),
(337,399,c),
(333,391,o),
(363,325,o),
(375,295,c),
(397,274,o),
(415,216,o),
(448,196,cs),
(474,179,o),
(477,171,o),
(483,107,c),
(461,43,o),
(394,130,o),
(364,162,c),
(356,193,o),
(290,339,o),
(267,324,c),
(264,328,o),
(244,258,o),
(217,231,c),
(209,203,o),
(193,167,o),
(178,123,c),
(164,108,o),
(124,37,o),
(118,3,c),
(96,-14,o),
(67,-11,o),
(59,41,c)
);
}
);
width = 544;
}
);
unicode = (88,120);
},
{
glyphname = Y;
lastChange = "2024-10-10 14:04:42 +0000";
layers = (
{
layerId = m01;
shapes = (
{
closed = 1;
nodes = (
(94,539,o),
(96,499,o),
(103,447,c),
(134,426,o),
(127,410,o),
(146,398,c),
(171,404,o),
(178,427,o),
(173,402,c),
(206,455,o),
(225,409,o),
(250,418,c),
(282,481,o),
(300,499,o),
(310,535,cs),
(317,569,o),
(345,644,o),
(303,640,c),
(326,646,o),
(289,676,o),
(272,661,c),
(282,698,o),
(278,722,o),
(329,707,c),
(414,710,o),
(405,579,o),
(384,539,c),
(371,502,o),
(380,472,o),
(383,427,c),
(352,401,o),
(303,373,o),
(286,341,c),
(289,304,o),
(294,253,o),
(277,218,c),
(278,194,o),
(295,161,o),
(278,105,c),
(262,88,o),
(253,17,o),
(227,7,c),
(194,54,o),
(184,100,o),
(206,110,c),
(202,170,o),
(197,196,o),
(201,237,c),
(217,290,o),
(187,283,o),
(164,303,c),
(55,356,o),
(31,438,o),
(4,545,c),
(15,561,o),
(-17,640,o),
(21,627,c),
(89,660,o),
(90,603,o),
(102,586,c)
);
}
);
width = 400;
},
{
layerId = "3EED4E43-93E5-49B5-B4F5-8693E91ADEE2";
shapes = (
{
closed = 1;
nodes = (
(89,599,o),
(93,545,o),
(116,531,c),
(101,501,o),
(111,467,o),
(140,473,c),
(137,428,o),
(176,446,o),
(180,456,c),
(228,444,o),
(230,392,o),
(294,449,c),
(314,449,o),
(373,517,o),
(362,527,c),
(389,571,o),
(437,647,o),
(409,692,c),
(395,703,o),
(373,683,o),
(393,706,c),
(392,749,o),
(400,742,o),
(434,730,c),
(544,699,o),
(495,579,o),
(461,499,c),
(450,478,o),
(424,413,o),
(391,390,c),
(354,353,o),
(350,338,o),
(299,346,c),
(268,311,o),
(259,241,o),
(246,214,c),
(220,170,o),
(227,109,o),
(203,53,c),
(191,52,o),
(116,-28,o),
(83,6,c),
(52,26,o),
(87,95,o),
(105,109,c),
(132,170,o),
(146,193,o),
(158,236,c),
(172,322,o),
(173,328,o),
(115,356,c),
(23,433,o),
(-9,557,o),
(4,657,c),
(26,693,o),
(32,774,o),
(86,739,c),
(164,733,o),
(128,690,o),
(139,670,c)
);
}
);
width = 400;
},
{
layerId = "B7F60EEF-5018-4FBA-9984-B24EB61DE206";
shapes = (
{
closed = 1;
nodes = (
(152,491,o),
(178,439,o),
(172,412,c),
(155,409,o),
(160,401,o),
(197,402,c),
(213,399,o),
(223,397,o),
(232,388,c),
(258,406,o),
(246,369,o),
(285,387,c),
(284,434,o),
(301,439,o),
(323,456,c),
(322,502,o),
(327,505,o),
(314,525,c),
(333,534,o),
(310,535,o),
(317,552,c),
(320,581,o),
(329,589,o),
(346,590,c),
(388,581,o),
(369,503,o),
(381,447,c),
(368,422,o),
(351,420,o),
(326,400,c),
(327,347,o),
(304,358,o),
(288,323,c),
(270,319,o),
(270,293,o),
(279,270,c),
(252,233,o),
(264,197,o),
(257,163,c),
(240,174,o),
(226,126,o),
(190,152,c),
(182,132,o),
(202,189,o),
(184,175,c),
(213,225,o),
(210,240,o),
(226,296,c),
(208,296,o),
(221,317,o),
(202,342,c),
(106,377,o),
(88,438,o),
(102,505,c),
(91,527,o),
(112,556,o),
(157,577,c),
(178,562,o),
(180,547,o),
(163,517,c)
);
}
);
width = 400;
},
{
layerId = "33631C71-1333-4331-8A89-BDCD639A4A27";
shapes = (
{
closed = 1;
nodes = (
(80,497,o),
(64,464,o),
(107,441,c),
(115,444,o),
(107,421,o),
(141,405,c),
(141,403,o),
(164,418,o),
(168,425,c),
(220,431,o),
(249,392,o),
(290,420,c),
(312,439,o),
(310,494,o),
(317,509,c),
(353,557,o),
(356,600,o),
(342,624,c),
(339,638,o),
(312,617,o),
(283,634,c),
(285,655,o),
(328,662,o),
(346,667,c),
(439,673,o),
(452,545,o),
(435,504,c),
(431,480,o),
(425,438,o),
(388,411,c),
(384,396,o),
(356,373,o),
(306,341,c),
(291,317,o),
(290,272,o),
(322,240,c),
(314,223,o),
(328,177,o),
(282,131,c),
(305,103,o),
(257,61,o),
(201,78,cs),
(177,87,o),
(207,128,o),
(215,142,c),
(226,180,o),
(211,224,o),
(220,256,c),
(208,309,o),
(215,300,o),
(136,327,cs),
(46,357,o),
(-28,431,o),
(-16,523,c),
(-25,555,o),
(-55,587,o),
(11,619,c),
(87,605,o),
(93,594,o),
(82,550,c)
);
}
);
width = 400;
}
);
unicode = (89,121);
},
{
glyphname = Z;
lastChange = "2024-10-10 14:05:55 +0000";
layers = (
{
layerId = m01;
shapes = (
{
closed = 1;
nodes = (
(162,313,o),
(482,557,o),
(336,546,c),
(304,555,o),
(275,544,o),
(211,541,c),
(163,566,o),
(159,530,o),
(86,550,c),
(66,531,o),
(41,549,o),
(23,570,c),
(9,604,o),
(27,618,o),
(57,633,c),
(147,663,o),
(240,631,o),
(304,637,cs),
(356,639,o),
(490,647,o),
(481,577,c),
(500,569,o),
(443,516,o),
(417,496,cs),
(390,476,o),
(405,471,o),
(376,437,c),
(331,363,o),
(263,291,o),
(230,206,c),
(233,125,o),
(260,129,o),
(316,132,c),
(362,168,o),
(376,170,o),
(430,178,c),
(462,198,o),
(616,222,o),
(593,139,c),
(579,128,o),
(487,108,o),
(449,94,c),
(432,78,o),
(357,81,o),
(340,75,c),
(292,78,o),
(252,33,o),
(229,51,c),
(184,78,o),
(169,111,o),
(142,162,c)
);
}
);
width = 614;
},
{
layerId = "3EED4E43-93E5-49B5-B4F5-8693E91ADEE2";
shapes = (
{
closed = 1;
nodes = (
(164,268,o),
(477,620,o),
(330,578,c),
(283,560,o),
(211,580,o),
(176,583,c),
(112,571,o),
(95,563,o),
(42,553,c),
(3,520,o),
(-12,516,o),
(-64,560,c),
(-74,586,o),
(-55,605,o),
(-15,615,c),
(92,684,o),
(189,660,o),
(296,662,c),
(333,665,o),
(487,773,o),
(478,657,c),
(490,621,o),
(435,601,o),
(441,571,c),
(389,542,o),
(402,481,o),
(359,453,c),
(345,342,o),
(287,249,o),
(293,174,c),
(268,81,o),
(310,107,o),
(329,109,cs),
(397,116,o),
(433,169,o),
(502,180,c),
(526,160,o),
(697,264,o),
(679,163,c),
(654,122,o),
(573,106,o),
(543,81,c),
(491,47,o),
(428,41,o),
(410,7,c),
(362,4,o),
(322,-41,o),
(275,-7,c),
(221,9,o),
(187,63,o),
(189,97,c)
);
}
);
width = 614;
},
{
layerId = "B7F60EEF-5018-4FBA-9984-B24EB61DE206";
shapes = (
{
closed = 1;
nodes = (
(202,280,o),
(392,531,o),
(270,511,c),
(268,493,o),
(210,485,o),
(202,469,c),
(177,487,o),
(128,455,o),
(106,438,cs),
(91,425,o),
(44,455,o),
(49,453,c),
(33,479,o),
(54,480,o),
(75,481,c),
(122,515,o),
(190,523,o),
(264,552,c),
(297,532,o),
(386,610,o),
(391,550,c),
(371,518,o),
(378,490,o),
(365,505,c),
(344,482,o),
(317,428,o),
(329,402,c),
(310,358,o),
(290,291,o),
(266,230,c),
(276,216,o),
(290,208,o),
(308,230,c),
(335,241,o),
(391,238,o),
(429,267,c),
(419,278,o),
(553,317,o),
(528,278,cs),
(504,245,o),
(458,217,o),
(431,201,c),
(427,185,o),
(395,188,o),
(365,162,c),
(318,146,o),
(307,130,o),
(276,150,c),
(238,154,o),
(225,163,o),
(229,210,c)
);
}
);
width = 614;
},
{
layerId = "33631C71-1333-4331-8A89-BDCD639A4A27";
shapes = (
{
closed = 1;
nodes = (
(177,312,o),
(439,555,o),
(334,571,c),
(304,582,o),
(277,575,o),
(251,586,c),
(215,567,o),
(166,558,o),
(136,571,c),
(114,563,o),
(80,582,o),
(89,588,c),
(75,636,o),
(98,646,o),
(107,656,c),
(168,700,o),
(259,651,o),
(317,676,c),
(355,673,o),
(474,689,o),
(466,601,c),
(460,586,o),
(425,549,o),
(423,527,c),
(394,488,o),
(376,477,o),
(368,422,c),
(331,348,o),
(281,279,o),
(260,188,c),
(260,105,o),
(271,103,o),
(313,110,c),
(335,146,o),
(382,155,o),
(405,152,c),
(441,172,o),
(571,221,o),
(535,131,cs),
(517,82,o),
(470,85,o),
(438,57,c),
(393,65,o),
(358,37,o),
(342,23,c),
(298,17,o),
(249,-7,o),
(220,1,c),
(198,31,o),
(183,84,o),
(183,125,cs)
);
}
);
width = 614;
}
);
unicode = (90,122);
},
{
glyphname = zero;
lastChange = "2024-10-10 14:04:14 +0000";
layers = (
{
layerId = m01;
shapes = (
{
closed = 1;
nodes = (
(91,242,o),
(92,198,o),
(149,175,c),
(153,170,o),
(187,225,o),
(225,213,c),
(235,290,o),
(254,393,o),
(270,450,c),
(261,501,o),
(253,504,o),
(237,538,c),
(178,529,o),
(185,515,o),
(157,500,c),
(94,449,o),
(102,363,o),
(87,277,c)
);
},
{
closed = 1;
nodes = (
(264,604,o),
(324,611,o),
(318,534,c),
(361,529,o),
(327,501,o),
(327,452,c),
(318,427,o),
(340,394,o),
(326,364,c),
(356,263,o),
(287,92,o),
(153,108,c),
(59,112,o),
(2,266,o),
(18,356,c),
(53,402,o),
(73,452,o),
(67,508,c),
(100,579,o),
(173,611,o),
(217,623,c)
);
}
);
width = 361;
},
{
layerId = "3EED4E43-93E5-49B5-B4F5-8693E91ADEE2";
shapes = (
{
closed = 1;
nodes = (
(109,149,o),
(132,100,o),
(186,110,c),
(212,142,o),
(249,156,o),
(236,194,c),
(271,265,o),
(263,390,o),
(233,486,c),
(210,538,o),
(202,542,o),
(186,536,cs),
(123,513,o),
(107,538,o),
(101,498,c),
(54,414,o),
(58,295,o),
(94,193,cs)
);
},
{
closed = 1;
nodes = (
(168,669,o),
(254,642,o),
(304,580,c),
(293,552,o),
(323,526,o),
(335,526,c),
(314,462,o),
(328,449,o),
(354,408,c),
(399,302,o),
(399,62,o),
(228,41,c),
(79,5,o),
(2,146,o),
(-10,259,c),
(-11,321,o),
(-39,392,o),
(-17,499,c),
(17,536,o),
(44,658,o),
(128,667,cs)
);
}
);
width = 361;
},
{
layerId = "B7F60EEF-5018-4FBA-9984-B24EB61DE206";
shapes = (
{
closed = 1;
nodes = (
(117,301,o),
(119,252,o),
(147,258,c),
(161,263,o),
(177,268,o),
(213,276,c),
(237,293,o),
(272,352,o),
(265,416,c),
(284,444,o),
(296,455,o),
(245,480,c),
(228,479,o),
(240,498,o),
(199,473,c),
(182,438,o),
(123,375,o),
(129,298,c)
);
},
{
closed = 1;
nodes = (
(324,540,o),
(360,500,o),
(331,469,c),
(357,453,o),
(332,420,o),
(323,420,c),
(324,384,o),
(347,374,o),
(332,342,c),
(320,273,o),
(230,187,o),
(157,204,c),
(65,210,o),
(65,301,o),
(104,376,c),
(95,418,o),
(136,460,o),
(148,517,c),
(186,526,o),
(221,564,o),
(266,542,c)
);
}
);
width = 361;
},
{
layerId = "33631C71-1333-4331-8A89-BDCD639A4A27";
shapes = (
{
closed = 1;
nodes = (
(122,220,o),
(116,171,o),
(156,156,c),
(176,167,o),
(204,184,o),
(204,207,c),
(236,285,o),
(246,372,o),
(238,494,c),
(249,547,o),
(236,518,o),
(209,540,c),
(196,571,o),
(178,569,o),
(156,554,c),
(124,467,o),
(116,354,o),
(108,247,c)
);
},
{
closed = 1;
nodes = (
(238,652,o),
(295,631,o),
(297,588,cs),
(303,534,o),
(286,526,o),
(295,477,c),
(284,443,o),
(307,421,o),
(307,386,cs),
(304,246,o),
(249,71,o),
(156,38,c),
(79,53,o),
(54,209,o),
(55,353,c),
(79,396,o),
(85,488,o),
(110,554,c),
(127,614,o),
(159,693,o),
(219,656,c)
);
}
);
width = 361;
}
);
unicode = 48;
},
{
glyphname = one;
lastChange = "2024-10-10 14:01:53 +0000";
layers = (
{
layerId = m01;
shapes = (
{
closed = 1;
nodes = (
(432,185,o),
(432,136,c),
(448,87,o),
(413,69,o),
(385,87,c),
(325,47,o),
(267,34,o),
(171,49,c),
(137,22,o),
(102,19,o),
(83,36,c),
(57,69,o),
(73,93,o),
(77,98,c),
(129,137,o),
(160,135,o),
(181,164,c),
(237,166,o),
(232,191,o),
(194,216,c),
(173,286,o),
(191,372,o),
(151,439,c),
(139,506,o),
(138,452,o),
(77,455,c),
(88,442,o),
(21,444,o),
(35,496,c),
(32,496,o),
(77,520,o),
(88,559,c),
(102,574,o),
(127,616,o),
(131,613,c),
(188,689,o),
(261,604,o),
(228,555,c),
(239,522,o),
(243,490,o),
(264,446,c),
(268,427,o),
(245,400,o),
(263,382,c),
(238,358,o),
(250,330,o),
(283,302,c),
(305,249,o),
(299,162,o),
(351,137,c),
(393,135,o)
);
}
);
width = 473;
},
{
layerId = "3EED4E43-93E5-49B5-B4F5-8693E91ADEE2";
shapes = (
{
closed = 1;
nodes = (
(419,52,o),
(426,37,c),
(434,-14,o),
(375,-3,o),
(341,-5,c),
(241,2,o),
(144,22,o),
(42,28,c),
(12,67,o),
(-44,48,o),
(-61,89,c),
(-79,160,o),
(-55,132,o),
(-33,143,c),
(10,178,o),
(62,141,o),
(111,164,c),
(159,151,o),
(147,177,o),
(156,195,c),
(148,306,o),
(188,402,o),
(185,477,c),
(209,539,o),
(173,520,o),
(123,520,c),
(103,505,o),
(45,566,o),
(31,592,c),
(76,625,o),
(137,603,o),
(157,637,c),
(204,612,o),
(222,665,o),
(261,688,c),
(341,703,o),
(367,631,o),
(355,578,c),
(316,504,o),
(305,482,o),
(310,418,c),
(298,431,o),
(278,367,o),
(286,373,c),
(260,328,o),
(266,271,o),
(261,279,c),
(274,235,o),
(238,104,o),
(315,89,c),
(343,72,o)
);
}
);
width = 473;
},
{
layerId = "B7F60EEF-5018-4FBA-9984-B24EB61DE206";
shapes = (
{
closed = 1;
nodes = (
(407,249,o),
(416,225,c),
(410,210,o),
(384,159,o),
(383,164,c),
(342,148,o),
(303,115,o),
(238,108,c),
(205,93,o),
(196,101,o),
(181,91,c),
(160,147,o),
(136,128,o),
(150,172,c),
(179,156,o),
(216,194,o),
(236,191,c),
(256,195,o),
(268,232,o),
(217,254,c),
(210,308,o),
(196,352,o),
(192,408,c),
(179,433,o),
(163,414,o),
(120,411,c),
(132,375,o),
(70,406,o),
(61,409,c),
(82,439,o),
(86,473,o),
(105,453,c),
(128,495,o),
(118,516,o),
(122,519,c),
(184,591,o),
(213,523,o),
(239,506,c),
(231,458,o),
(245,433,o),
(226,419,c),
(233,413,o),
(250,374,o),
(264,353,c),
(257,335,o),
(271,337,o),
(268,288,c),
(284,289,o),
(297,222,o),
(346,224,c),
(383,211,o)
);
}
);
width = 473;
},
{
layerId = "33631C71-1333-4331-8A89-BDCD639A4A27";
shapes = (
{
closed = 1;
nodes = (
(477,224,o),
(482,199,c),
(525,167,o),
(458,163,o),
(423,161,c),
(329,152,o),
(267,142,o),
(158,135,c),
(114,117,o),
(67,117,o),
(43,145,c),
(10,161,o),
(31,157,o),
(53,184,c),
(87,192,o),
(139,192,o),
(177,202,c),
(227,222,o),
(213,234,o),
(178,253,c),
(182,310,o),
(151,373,o),
(125,421,c),
(134,441,o),
(110,431,o),
(48,415,c),
(43,414,o),
(-22,427,o),
(-38,439,c),
(-28,461,o),
(18,470,o),
(46,493,c),
(86,514,o),
(66,521,o),
(116,554,c),
(162,579,o),
(247,547,o),
(233,489,c),
(251,466,o),
(251,432,o),
(242,411,c),
(263,398,o),
(243,372,o),
(245,362,c),
(266,359,o),
(274,332,o),
(274,306,c),
(294,280,o),
(313,196,o),
(384,210,c),
(437,204,o)
);
}
);
width = 473;
}
);
unicode = 49;
},
{
glyphname = two;
lastChange = "2024-10-10 14:01:54 +0000";
layers = (
{
layerId = m01;
shapes = (
{
closed = 1;
nodes = (
(302,660,o),
(337,663,o),
(370,584,c),
(406,533,o),
(384,444,o),
(378,410,c),
(356,318,o),
(296,274,o),
(273,225,c),
(242,192,o),
(195,129,o),
(280,128,c),
(320,130,o),
(402,163,o),
(450,151,c),
(507,156,o),
(543,137,o),
(467,111,c),
(446,86,o),
(394,61,o),
(343,61,c),
(280,39,o),
(195,12,o),
(145,45,c),
(45,75,o),
(205,301,o),
(250,364,c),
(243,374,o),
(298,463,o),
(301,507,c),
(268,598,o),
(223,576,o),
(177,512,c),
(178,537,o),
(128,488,o),
(136,460,c),
(97,464,o),
(108,443,o),
(115,398,c),
(101,351,o),
(38,406,o),
(7,425,c),
(15,546,o),
(143,632,o),
(253,647,c)
);
}
);
width = 533;
},
{
layerId = "3EED4E43-93E5-49B5-B4F5-8693E91ADEE2";
shapes = (
{
closed = 1;
nodes = (
(392,668,o),
(486,652,o),
(493,565,cs),
(496,490,o),
(450,416,o),
(410,355,c),
(345,312,o),
(308,270,o),
(233,224,c),
(217,174,o),
(146,112,o),
(237,96,c),
(287,78,o),
(366,104,o),
(469,56,c),
(522,38,o),
(540,32,o),
(461,17,c),
(409,-27,o),
(319,-11,o),
(290,10,c),
(240,5,o),
(95,16,o),
(55,30,c),
(-95,118,o),
(181,300,o),
(260,349,c),
(285,395,o),
(343,454,o),
(362,519,c),
(370,591,o),
(259,582,o),
(212,571,c),
(212,568,o),
(167,551,o),
(136,537,c),
(122,517,o),
(130,463,o),
(120,451,c),
(68,398,o),
(21,447,o),
(-2,505,c),
(35,642,o),
(223,699,o),
(345,688,c)
);
}
);
width = 533;
},
{
layerId = "B7F60EEF-5018-4FBA-9984-B24EB61DE206";
shapes = (
{
closed = 1;
nodes = (
(322,528,o),
(367,512,o),
(368,475,c),
(400,422,o),
(341,401,o),
(342,358,c),
(323,308,o),
(284,298,o),
(230,247,c),
(222,228,o),
(193,241,o),
(212,220,c),
(266,182,o),
(298,207,o),
(345,177,c),
(397,178,o),
(392,161,o),
(362,161,c),
(310,155,o),
(295,152,o),
(271,129,c),
(237,155,o),
(177,134,o),
(123,177,c),
(49,201,o),
(225,316,o),
(227,360,c),
(262,354,o),
(329,420,o),
(329,443,c),
(335,511,o),
(281,489,o),
(250,495,c),
(224,476,o),
(216,464,o),
(185,442,c),
(207,442,o),
(208,423,o),
(167,388,c),
(166,372,o),
(130,432,o),
(121,428,c),
(123,532,o),
(227,544,o),
(315,549,c)
);
}
);
width = 533;
},
{
layerId = "33631C71-1333-4331-8A89-BDCD639A4A27";
shapes = (
{
closed = 1;
nodes = (
(279,725,o),
(346,706,o),
(348,633,c),
(376,585,o),
(352,476,o),
(332,430,c),
(315,338,o),
(303,288,o),
(265,187,c),
(268,163,o),
(206,88,o),
(260,72,c),
(330,88,o),
(374,110,o),
(418,130,c),
(480,107,o),
(463,66,o),
(425,35,c),
(408,10,o),
(357,-2,o),
(321,-7,c),
(296,-23,o),
(218,-40,o),
(189,-18,c),
(87,-3,o),
(230,267,o),
(241,336,c),
(267,413,o),
(294,486,o),
(277,578,c),
(285,638,o),
(235,599,o),
(196,568,c),
(200,552,o),
(163,501,o),
(167,513,c),
(160,475,o),
(150,462,o),
(154,408,c),
(146,328,o),
(80,391,o),
(87,467,c),
(63,597,o),
(182,715,o),
(243,700,c)
);
}
);
width = 533;
}
);
unicode = 50;
},
{
glyphname = three;
lastChange = "2024-10-10 14:01:55 +0000";
layers = (
{
layerId = m01;
shapes = (
{
closed = 1;
nodes = (
(403,373,o),
(117,269,o),
(105,387,c),
(93,432,o),
(269,552,o),
(292,611,c),
(291,712,o),
(126,520,o),
(62,531,c),
(-45,521,o),
(89,665,o),
(150,696,cs),
(196,716,o),
(340,725,o),
(397,668,c),
(405,611,o),
(393,567,o),
(367,537,c),
(346,491,o),
(279,437,o),
(263,408,c),
(284,423,o),
(392,383,o),
(418,378,c),
(478,361,o),
(510,337,o),
(521,241,c),
(513,71,o),
(314,14,o),
(164,54,c),
(116,83,o),
(58,124,o),
(69,135,c),
(116,168,o),
(148,105,o),
(176,111,c),
(225,114,o),
(265,127,o),
(250,104,c),
(338,152,o),
(412,196,o),
(391,230,c)
);
}
);
width = 530;
},
{
layerId = "3EED4E43-93E5-49B5-B4F5-8693E91ADEE2";
shapes = (
{
closed = 1;
nodes = (
(429,428,o),
(117,232,o),
(95,327,c),
(63,383,o),
(256,544,o),
(239,616,c),
(223,747,o),
(98,504,o),
(-13,467,c),
(-133,415,o),
(-26,643,o),
(28,658,cs),
(102,678,o),
(262,738,o),
(352,694,cs),
(395,674,o),
(372,628,o),
(355,585,cs),
(335,540,o),
(268,456,o),
(266,416,c),
(270,431,o),
(393,421,o),
(438,416,c),
(521,399,o),
(586,399,o),
(582,333,c),
(627,154,o),
(393,-6,o),
(250,5,c),
(141,0,o),
(95,79,o),
(108,117,c),
(122,146,o),
(204,104,o),
(223,77,c),
(254,99,o),
(296,96,o),
(327,123,c),
(386,154,o),
(463,229,o),
(459,277,c)
);
}
);
width = 530;
},
{
layerId = "B7F60EEF-5018-4FBA-9984-B24EB61DE206";
shapes = (
{
closed = 1;
nodes = (
(334,397,o),
(204,281,o),
(134,330,c),
(140,354,o),
(212,466,o),
(225,528,c),
(178,589,o),
(153,439,o),
(115,395,c),
(11,394,o),
(94,500,o),
(113,532,cs),
(118,541,o),
(226,594,o),
(242,583,cs),
(288,549,o),
(297,511,o),
(286,482,c),
(288,465,o),
(235,420,o),
(248,404,c),
(253,393,o),
(312,417,o),
(331,400,c),
(371,408,o),
(421,368,o),
(432,343,c),
(469,232,o),
(362,124,o),
(264,117,cs),
(212,111,o),
(192,172,o),
(202,191,c),
(203,208,o),
(219,165,o),
(271,191,c),
(295,164,o),
(285,177,o),
(322,201,c),
(367,224,o),
(387,259,o),
(391,318,c)
);
}
);
width = 530;
},
{
layerId = "33631C71-1333-4331-8A89-BDCD639A4A27";
shapes = (
{
closed = 1;
nodes = (
(451,379,o),
(100,299,o),
(78,368,c),
(70,421,o),
(282,505,o),
(302,564,c),
(303,673,o),
(134,485,o),
(35,499,c),
(-97,493,o),
(85,619,o),
(137,635,c),
(185,659,o),
(342,666,o),
(405,624,c),
(416,576,o),
(421,531,o),
(368,509,c),
(353,483,o),
(280,444,o),
(293,410,c),
(295,392,o),
(425,393,o),
(440,369,c),
(476,361,o),
(532,334,o),
(540,261,c),
(545,135,o),
(303,46,o),
(177,94,c),
(81,114,o),
(55,167,o),
(86,184,c),
(98,213,o),
(145,155,o),
(184,155,cs),
(195,154,o),
(260,157,o),
(272,161,c),
(337,158,o),
(412,203,o),
(440,252,c)
);
}
);
width = 530;
}
);
unicode = 51;
},
{
glyphname = four;
lastChange = "2024-10-10 14:01:56 +0000";
layers = (
{
layerId = m01;
shapes = (
{
closed = 1;
nodes = (
(445,308,o),
(451,276,o),
(412,257,c),
(431,206,o),
(413,141,o),
(398,81,c),
(396,84,o),
(325,56,o),
(335,73,c),
(290,98,o),
(336,177,o),
(331,198,c),
(310,234,o),
(337,279,o),
(343,299,c),
(329,358,o),
(295,356,o),
(272,345,c),
(202,340,o),
(134,256,o),
(65,345,c),
(5,412,o),
(38,478,o),
(51,529,c),
(37,558,o),
(66,621,o),
(64,650,c),
(108,680,o),
(140,671,o),
(141,624,c),
(168,592,o),
(132,545,o),
(131,495,c),
(142,488,o),
(110,413,o),
(117,406,c),
(133,386,o),
(175,442,o),
(206,435,c),
(242,434,o),
(260,454,o),
(277,434,c),
(277,449,o),
(313,430,o),
(312,463,c),
(345,493,o),
(228,640,o),
(349,627,c),
(377,612,o),
(390,563,o),
(388,532,c),
(408,462,o),
(444,399,o),
(426,354,c)
);
}
);
width = 450;
},
{
layerId = "3EED4E43-93E5-49B5-B4F5-8693E91ADEE2";
shapes = (
{
closed = 1;
nodes = (
(431,259,o),
(440,211,o),
(407,146,c),
(388,119,o),
(338,38,o),
(320,-16,c),
(278,-32,o),
(234,-72,o),
(226,5,c),
(230,23,o),
(259,90,o),
(278,127,c),
(292,169,o),
(301,238,o),
(336,288,c),
(327,340,o),
(324,331,o),
(279,367,c),
(175,366,o),
(79,268,o),
(10,382,c),
(-29,483,o),
(17,563,o),
(59,644,c),
(87,689,o),
(104,754,o),
(136,751,c),
(182,803,o),
(235,764,o),
(226,739,c),
(230,685,o),
(172,616,o),
(166,588,c),
(145,552,o),
(85,466,o),
(104,449,c),
(109,426,o),
(187,451,o),
(199,467,c),
(227,467,o),
(281,478,o),
(273,449,c),
(312,476,o),
(312,442,o),
(349,446,c),
(385,494,o),
(326,712,o),
(451,652,c),
(465,635,o),
(466,569,o),
(465,500,c),
(455,455,o),
(449,393,o),
(430,299,c)
);
}
);
width = 450;
},
{
layerId = "B7F60EEF-5018-4FBA-9984-B24EB61DE206";
shapes = (
{
closed = 1;
nodes = (
(395,314,o),
(368,273,o),
(386,238,c),
(360,212,o),
(340,173,o),
(338,134,c),
(307,140,o),
(277,135,o),
(257,164,c),
(257,191,o),
(297,218,o),
(288,250,c),
(285,271,o),
(294,288,o),
(330,305,c),
(305,341,o),
(290,335,o),
(273,341,cs),
(198,371,o),
(130,328,o),
(104,367,c),
(59,420,o),
(99,457,o),
(115,515,c),
(128,531,o),
(128,549,o),
(139,580,c),
(189,604,o),
(205,595,o),
(212,552,c),
(221,545,o),
(183,492,o),
(176,470,c),
(159,464,o),
(135,426,o),
(157,391,c),
(159,376,o),
(209,410,o),
(213,395,c),
(257,412,o),
(269,432,o),
(254,436,c),
(274,413,o),
(282,405,o),
(320,395,c),
(316,429,o),
(284,546,o),
(353,547,c),
(401,497,o),
(377,473,o),
(370,451,c),
(382,389,o),
(409,374,o),
(388,358,c)
);
}
);
width = 450;
},
{
layerId = "33631C71-1333-4331-8A89-BDCD639A4A27";
shapes = (
{
closed = 1;
nodes = (
(377,309,o),
(392,268,o),
(387,221,c),
(369,153,o),
(370,97,o),
(344,20,c),
(347,13,o),
(319,-25,o),
(306,28,c),
(292,49,o),
(295,115,o),
(314,188,c),
(308,220,o),
(310,281,o),
(307,300,c),
(309,365,o),
(286,356,o),
(257,371,c),
(196,360,o),
(133,251,o),
(97,345,c),
(51,386,o),
(56,506,o),
(79,593,c),
(83,624,o),
(79,682,o),
(106,722,c),
(122,759,o),
(155,731,o),
(178,686,c),
(180,652,o),
(156,580,o),
(161,536,c),
(139,509,o),
(123,435,o),
(148,423,c),
(152,405,o),
(197,421,o),
(210,446,c),
(230,444,o),
(235,455,o),
(249,479,c),
(256,469,o),
(274,458,o),
(294,475,c),
(305,506,o),
(238,732,o),
(307,666,c),
(355,663,o),
(362,587,o),
(362,539,c),
(389,472,o),
(376,431,o),
(385,358,c)
);
}
);
width = 450;
}
);
unicode = 52;
},
{
glyphname = five;
lastChange = "2024-10-10 14:01:57 +0000";
layers = (
{
layerId = m01;
shapes = (
{
closed = 1;
nodes = (
(31,550,o),
(36,565,c),
(45,615,o),
(95,579,o),
(166,599,c),
(214,597,o),
(229,597,o),
(291,593,c),
(334,600,o),
(368,621,o),
(400,578,c),
(420,589,o),
(408,561,o),
(380,544,c),
(396,518,o),
(357,546,o),
(365,529,c),
(283,543,o),
(241,540,o),
(165,527,c),
(120,532,o),
(130,520,o),
(129,469,c),
(121,436,o),
(134,425,o),
(121,422,c),
(141,407,o),
(210,415,o),
(200,448,c),
(304,442,o),
(383,381,o),
(428,312,c),
(440,213,o),
(365,161,o),
(266,115,c),
(228,90,o),
(197,76,o),
(123,108,c),
(128,78,o),
(18,109,o),
(25,126,c),
(48,162,o),
(141,161,o),
(161,147,c),
(205,156,o),
(232,172,o),
(261,229,c),
(313,213,o),
(340,273,o),
(321,324,c),
(298,339,o),
(244,366,o),
(199,366,c),
(157,348,o),
(128,335,o),
(88,344,c),
(37,335,o),
(42,401,o),
(17,463,c),
(30,496,o)
);
}
);
width = 446;
},
{
layerId = "3EED4E43-93E5-49B5-B4F5-8693E91ADEE2";
shapes = (
{
closed = 1;
nodes = (
(-27,564,o),
(-55,582,c),
(-28,638,o),
(42,660,o),
(100,661,c),
(158,649,o),
(182,694,o),
(267,702,c),
(280,716,o),
(345,716,o),
(362,709,c),
(379,666,o),
(388,635,o),
(384,615,c),
(349,581,o),
(360,595,o),
(335,619,c),
(294,598,o),
(220,577,o),
(147,555,cs),
(83,536,o),
(84,581,o),
(91,503,c),
(81,457,o),
(103,467,o),
(128,448,c),
(147,454,o),
(190,469,o),
(188,470,c),
(278,451,o),
(431,423,o),
(475,321,c),
(498,217,o),
(416,122,o),
(310,81,c),
(302,21,o),
(238,16,o),
(190,0,c),
(147,-7,o),
(63,-14,o),
(68,63,c),
(34,94,o),
(164,79,o),
(187,81,c),
(227,124,o),
(259,146,o),
(313,159,c),
(340,193,o),
(389,286,o),
(345,331,c),
(350,385,o),
(265,342,o),
(222,353,c),
(167,361,o),
(121,305,o),
(75,311,c),
(-7,332,o),
(-23,422,o),
(-7,457,c),
(-12,503,o)
);
}
);
width = 446;
},
{
layerId = "B7F60EEF-5018-4FBA-9984-B24EB61DE206";
shapes = (
{
closed = 1;
nodes = (
(58,458,o),
(49,459,c),
(54,494,o),
(128,504,o),
(145,500,c),
(182,528,o),
(205,528,o),
(246,532,c),
(255,559,o),
(279,585,o),
(328,532,c),
(312,538,o),
(333,511,o),
(322,506,c),
(321,509,o),
(315,482,o),
(310,496,c),
(274,493,o),
(208,460,o),
(191,483,c),
(155,468,o),
(147,454,o),
(151,440,cs),
(159,405,o),
(166,393,o),
(152,376,c),
(158,373,o),
(182,398,o),
(216,406,cs),
(257,416,o),
(347,388,o),
(371,354,cs),
(421,278,o),
(354,237,o),
(298,177,c),
(295,143,o),
(263,130,o),
(206,145,c),
(205,149,o),
(119,126,o),
(145,181,c),
(149,178,o),
(193,200,o),
(198,187,c),
(252,200,o),
(258,214,o),
(286,256,c),
(298,271,o),
(337,310,o),
(331,314,c),
(295,370,o),
(238,335,o),
(238,329,c),
(191,353,o),
(166,326,o),
(149,304,c),
(96,315,o),
(105,368,o),
(93,378,c),
(93,434,o)
);
}
);
width = 446;
},
{
layerId = "33631C71-1333-4331-8A89-BDCD639A4A27";
shapes = (
{
closed = 1;
nodes = (
(-21,503,o),
(-9,532,c),
(-12,572,o),
(76,546,o),
(129,557,cs),
(181,567,o),
(259,554,o),
(285,557,cs),
(333,560,o),
(404,574,o),
(418,550,c),
(440,542,o),
(441,524,o),
(418,508,c),
(414,484,o),
(393,489,o),
(365,502,c),
(325,492,o),
(226,507,o),
(167,498,c),
(129,494,o),
(86,507,o),
(104,453,c),
(98,430,o),
(113,426,o),
(113,419,c),
(145,406,o),
(176,421,o),
(225,407,c),
(309,423,o),
(430,398,o),
(479,309,c),
(481,234,o),
(366,196,o),
(274,153,c),
(253,147,o),
(170,134,o),
(139,141,c),
(81,120,o),
(-30,152,o),
(-21,178,c),
(-1,189,o),
(113,197,o),
(129,199,c),
(189,200,o),
(233,218,o),
(294,220,c),
(305,257,o),
(385,274,o),
(363,311,c),
(342,355,o),
(247,353,o),
(195,353,c),
(141,342,o),
(81,328,o),
(49,348,c),
(-21,348,o),
(-30,414,o),
(-12,434,c),
(-22,458,o)
);
}
);
width = 446;
}
);
unicode = 53;
},
{
glyphname = six;
lastChange = "2024-10-10 14:01:57 +0000";
layers = (
{
layerId = m01;
shapes = (
{
closed = 1;
nodes = (
(100,170,o),
(121,91,o),
(173,124,c),
(227,124,o),
(272,158,o),
(299,207,c),
(312,243,o),
(343,273,o),
(305,298,c),
(301,308,o),
(275,303,o),
(250,282,c),
(210,295,o),
(171,277,o),
(129,265,c),
(108,252,o),
(90,227,o),
(80,205,c)
);
},
{
closed = 1;
nodes = (
(253,670,o),
(276,677,o),
(301,638,c),
(286,590,o),
(266,550,o),
(241,556,c),
(197,503,o),
(188,470,o),
(152,451,c),
(154,438,o),
(145,419,o),
(141,363,c),
(126,379,o),
(150,371,o),
(134,340,c),
(168,360,o),
(209,371,o),
(230,352,c),
(225,390,o),
(235,386,o),
(252,368,c),
(328,384,o),
(370,334,o),
(400,327,c),
(431,268,o),
(373,153,o),
(335,138,c),
(283,46,o),
(207,4,o),
(105,57,c),
(32,107,o),
(18,183,o),
(31,240,c),
(35,334,o),
(73,412,o),
(105,508,c),
(136,526,o),
(191,695,o),
(245,660,c)
);
}
);
width = 429;
},
{
layerId = "3EED4E43-93E5-49B5-B4F5-8693E91ADEE2";
shapes = (
{
closed = 1;
nodes = (
(31,164,o),
(31,66,o),
(122,87,c),
(183,80,o),
(240,134,o),
(270,173,c),
(287,203,o),
(329,214,o),
(320,264,c),
(339,262,o),
(247,267,o),
(242,271,c),
(185,284,o),
(130,279,o),
(90,273,c),
(43,262,o),
(73,260,o),
(35,223,c)
);
},
{
closed = 1;
nodes = (
(339,701,o),
(353,703,o),
(378,641,c),
(360,606,o),
(304,592,o),
(268,577,c),
(252,526,o),
(214,512,o),
(174,451,c),
(160,438,o),
(150,416,o),
(116,396,cs),
(91,382,o),
(97,374,o),
(119,376,c),
(158,366,o),
(205,356,o),
(204,376,c),
(250,364,o),
(254,346,o),
(268,356,c),
(332,347,o),
(399,305,o),
(429,298,c),
(500,219,o),
(389,118,o),
(292,45,c),
(221,-14,o),
(153,-43,o),
(31,19,c),
(-33,60,o),
(-77,162,o),
(-52,273,c),
(-22,381,o),
(63,436,o),
(115,538,c),
(125,598,o),
(232,753,o),
(302,717,c)
);
}
);
width = 429;
},
{
layerId = "B7F60EEF-5018-4FBA-9984-B24EB61DE206";
shapes = (
{
closed = 1;
nodes = (
(102,272,o),
(118,208,o),
(151,210,c),
(196,190,o),
(220,244,o),
(236,254,c),
(265,245,o),
(305,296,o),
(270,291,c),
(288,314,o),
(228,307,o),
(240,290,c),
(196,302,o),
(202,339,o),
(160,312,c),
(144,322,o),
(141,309,o),
(128,284,c)
);
},
{
closed = 1;
nodes = (
(320,578,o),
(366,555,o),
(346,543,c),
(353,511,o),
(312,491,o),
(278,469,c),
(252,447,o),
(234,432,o),
(224,423,c),
(220,418,o),
(173,404,o),
(186,399,c),
(160,379,o),
(194,380,o),
(189,357,c),
(208,353,o),
(229,391,o),
(235,372,c),
(237,346,o),
(262,362,o),
(263,343,c),
(310,359,o),
(339,312,o),
(342,321,c),
(356,240,o),
(308,206,o),
(277,165,c),
(208,137,o),
(158,140,o),
(92,172,c),
(69,200,o),
(77,271,o),
(102,326,c),
(116,407,o),
(163,432,o),
(180,472,c),
(191,516,o),
(269,581,o),
(332,560,c)
);
}
);
width = 429;
},
{
layerId = "33631C71-1333-4331-8A89-BDCD639A4A27";
shapes = (
{
closed = 1;
nodes = (
(122,150,o),
(123,66,o),
(193,94,c),
(228,91,o),
(272,147,o),
(292,180,c),
(297,214,o),
(308,264,o),
(311,262,c),
(295,289,o),
(248,287,o),
(242,273,c),
(226,263,o),
(174,295,o),
(142,276,cs),
(128,267,o),
(109,244,o),
(114,209,cs)
);
},
{
closed = 1;
nodes = (
(270,709,o),
(282,699,o),
(288,658,c),
(276,615,o),
(258,578,o),
(230,563,c),
(208,530,o),
(200,487,o),
(164,446,c),
(168,423,o),
(164,389,o),
(142,399,c),
(142,372,o),
(143,357,o),
(148,348,c),
(178,359,o),
(197,370,o),
(216,390,c),
(244,368,o),
(258,380,o),
(264,367,c),
(293,360,o),
(339,368,o),
(358,331,c),
(406,258,o),
(339,167,o),
(320,99,c),
(266,26,o),
(212,-36,o),
(131,0,c),
(63,54,o),
(44,164,o),
(43,242,c),
(57,335,o),
(100,411,o),
(130,514,c),
(150,555,o),
(189,738,o),
(256,695,c)
);
}
);
width = 429;
}
);
unicode = 54;
},
{
glyphname = seven;
lastChange = "2024-10-10 14:01:59 +0000";
layers = (
{
layerId = m01;
shapes = (
{
closed = 1;
nodes = (
(96,598,o),
(58,606,o),
(7,639,c),
(-1,696,o),
(44,724,o),
(69,709,c),
(69,701,o),
(95,714,o),
(137,705,c),
(141,712,o),
(147,697,o),
(169,695,c),
(204,678,o),
(252,681,o),
(264,677,c),
(328,698,o),
(338,698,o),
(374,709,c),
(383,685,o),
(400,677,o),
(436,651,c),
(406,628,o),
(382,598,o),
(385,549,c),
(356,493,o),
(315,402,o),
(313,309,c),
(281,233,o),
(278,174,o),
(232,108,c),
(242,57,o),
(237,-4,o),
(192,7,c),
(109,37,o),
(155,156,o),
(167,225,c),
(198,287,o),
(213,339,o),
(241,447,c),
(261,464,o),
(280,526,o),
(279,542,c),
(285,588,o),
(266,611,o),
(256,582,c),
(217,604,o),
(190,600,o),
(126,611,c)
);
}
);
width = 439;
},
{
layerId = "3EED4E43-93E5-49B5-B4F5-8693E91ADEE2";
shapes = (
{
closed = 1;
nodes = (
(15,608,o),
(-61,578,o),
(-104,641,c),
(-91,698,o),
(-93,719,o),
(-34,723,c),
(-5,732,o),
(23,727,o),
(39,715,c),
(69,741,o),
(71,721,o),
(109,721,c),
(129,739,o),
(202,720,o),
(237,748,c),
(264,759,o),
(320,742,o),
(335,743,c),
(372,755,o),
(424,733,o),
(423,719,c),
(409,691,o),
(408,614,o),
(363,609,c),
(354,497,o),
(326,443,o),
(308,346,c),
(322,234,o),
(291,164,o),
(297,86,c),
(277,24,o),
(301,-44,o),
(218,-41,c),
(124,-32,o),
(142,131,o),
(155,193,c),
(195,247,o),
(209,337,o),
(199,433,c),
(217,505,o),
(256,544,o),
(233,607,c),
(248,642,o),
(244,653,o),
(201,617,c),
(148,636,o),
(121,629,o),
(32,621,c)
);
}
);
width = 439;
},
{
layerId = "B7F60EEF-5018-4FBA-9984-B24EB61DE206";
shapes = (
{
closed = 1;
nodes = (
(114,494,o),
(89,472,o),
(82,514,c),
(87,510,o),
(101,544,o),
(93,519,c),
(100,547,o),
(105,535,o),
(142,549,c),
(156,556,o),
(139,534,o),
(178,545,c),
(199,534,o),
(211,549,o),
(214,571,c),
(257,537,o),
(264,551,o),
(270,562,c),
(280,573,o),
(303,553,o),
(315,541,c),
(337,531,o),
(297,506,o),
(321,476,c),
(312,445,o),
(291,393,o),
(284,354,cs),
(271,283,o),
(283,229,o),
(294,207,c),
(293,162,o),
(299,136,o),
(258,135,c),
(209,154,o),
(218,225,o),
(224,247,c),
(219,293,o),
(223,332,o),
(212,393,c),
(252,438,o),
(254,430,o),
(252,476,c),
(234,500,o),
(214,492,o),
(230,504,c),
(202,502,o),
(182,491,o),
(137,499,c)
);
}
);
width = 439;
},
{
layerId = "33631C71-1333-4331-8A89-BDCD639A4A27";
shapes = (
{
closed = 1;
nodes = (
(73,567,o),
(18,557,o),
(7,592,c),
(-23,640,o),
(15,654,o),
(61,654,c),
(62,645,o),
(96,627,o),
(117,627,c),
(124,626,o),
(151,639,o),
(175,629,c),
(188,628,o),
(253,640,o),
(295,626,c),
(312,630,o),
(352,632,o),
(363,639,c),
(421,626,o),
(456,623,o),
(433,580,c),
(437,579,o),
(397,533,o),
(385,528,c),
(353,463,o),
(328,407,o),
(302,330,c),
(303,267,o),
(280,200,o),
(241,129,c),
(246,108,o),
(218,43,o),
(193,71,c),
(124,80,o),
(169,183,o),
(168,220,c),
(195,295,o),
(218,351,o),
(248,428,c),
(234,460,o),
(264,477,o),
(298,518,c),
(316,557,o),
(279,562,o),
(247,562,c),
(203,547,o),
(165,567,o),
(113,565,c)
);
}
);
width = 439;
}
);
unicode = 55;
},
{
glyphname = eight;
lastChange = "2024-10-10 14:05:23 +0000";
layers = (
{
layerId = m01;
shapes = (
{
closed = 1;
nodes = (
(241,612,o),
(107,590,o),
(94,527,c),
(110,517,o),
(151,499,o),
(157,504,c),
(175,492,o),
(204,533,o),
(210,571,c)
);
},
{
closed = 1;
nodes = (
(185,121,o),
(236,110,o),
(248,116,c),
(288,146,o),
(325,148,o),
(325,196,c),
(377,265,o),
(256,332,o),
(179,323,c),
(121,352,o),
(181,241,o),
(186,158,c)
);
},
{
closed = 1;
nodes = (
(186,665,o),
(335,650,o),
(281,546,cs),
(263,508,o),
(190,460,o),
(221,423,c),
(282,385,o),
(333,386,o),
(337,356,c),
(393,328,o),
(397,283,o),
(446,268,c),
(476,190,o),
(423,131,o),
(382,83,c),
(294,37,o),
(246,26,o),
(177,60,c),
(107,150,o),
(78,243,o),
(112,335,c),
(122,333,o),
(95,337,o),
(126,391,c),
(133,394,o),
(98,421,o),
(87,405,c),
(59,438,o),
(42,486,o),
(29,530,c),
(18,592,o),
(91,670,o),
(130,691,c)
);
}
);
width = 466;
},
{
layerId = "3EED4E43-93E5-49B5-B4F5-8693E91ADEE2";
shapes = (
{
closed = 1;
nodes = (
(349,576,o),
(201,638,o),
(173,578,c),
(151,577,o),
(206,551,o),
(193,516,c),
(218,533,o),
(256,577,o),
(289,555,c)
);
},
{
closed = 1;
nodes = (
(109,125,o),
(149,77,o),
(182,62,c),
(236,72,o),
(275,96,o),
(291,114,c),
(387,181,o),
(271,314,o),
(179,320,c),
(133,381,o),
(146,210,o),
(132,146,c)
);
},
{
closed = 1;
nodes = (
(320,694,o),
(483,593,o),
(403,531,cs),
(369,505,o),
(249,488,o),
(276,418,c),
(293,361,o),
(368,315,o),
(399,262,c),
(439,247,o),
(430,206,o),
(441,171,c),
(449,52,o),
(395,22,o),
(294,-34,c),
(207,-48,o),
(81,-27,o),
(60,94,c),
(-26,179,o),
(39,298,o),
(54,349,c),
(84,385,o),
(80,402,o),
(106,402,c),
(105,463,o),
(135,444,o),
(86,472,c),
(97,526,o),
(77,551,o),
(45,596,c),
(80,684,o),
(189,761,o),
(264,737,c)
);
}
);
width = 466;
},
{
layerId = "B7F60EEF-5018-4FBA-9984-B24EB61DE206";
shapes = (
{
closed = 1;
nodes = (
(304,518,o),
(187,533,o),
(154,495,c),
(181,508,o),
(169,459,o),
(206,469,c),
(218,481,o),
(241,491,o),
(239,491,c)
);
},
{
closed = 1;
nodes = (
(150,229,o),
(198,183,o),
(199,184,c),
(263,201,o),
(268,198,o),
(303,218,c),
(356,240,o),
(275,353,o),
(188,351,c),
(166,357,o),
(200,266,o),
(183,236,c)
);
},
{
closed = 1;
nodes = (
(266,566,o),
(382,500,o),
(313,484,c),
(286,459,o),
(224,442,o),
(254,382,c),
(265,370,o),
(329,330,o),
(331,317,c),
(366,309,o),
(368,286,o),
(376,269,c),
(401,198,o),
(350,142,o),
(293,151,c),
(235,144,o),
(186,138,o),
(128,209,c),
(81,245,o),
(94,328,o),
(124,370,c),
(143,376,o),
(133,387,o),
(123,384,c),
(135,402,o),
(146,418,o),
(131,418,c),
(131,476,o),
(81,469,o),
(99,517,c),
(75,555,o),
(171,616,o),
(212,578,c)
);
}
);
width = 466;
},
{
layerId = "33631C71-1333-4331-8A89-BDCD639A4A27";
shapes = (
{
closed = 1;
nodes = (
(247,625,o),
(131,620,o),
(138,585,c),
(124,552,o),
(150,527,o),
(173,523,c),
(177,508,o),
(188,589,o),
(212,580,c)
);
},
{
closed = 1;
nodes = (
(202,81,o),
(238,51,o),
(249,70,c),
(279,103,o),
(313,129,o),
(320,166,c),
(368,235,o),
(268,329,o),
(197,339,c),
(153,356,o),
(208,202,o),
(200,143,c)
);
},
{
closed = 1;
nodes = (
(196,749,o),
(318,709,o),
(286,572,c),
(265,558,o),
(203,468,o),
(252,429,c),
(248,409,o),
(314,379,o),
(348,340,c),
(359,340,o),
(402,296,o),
(401,269,c),
(433,164,o),
(408,79,o),
(360,21,c),
(305,-33,o),
(225,-66,o),
(184,32,c),
(106,106,o),
(103,206,o),
(125,306,c),
(118,337,o),
(109,361,o),
(128,398,cs),
(135,413,o),
(131,425,o),
(99,432,c),
(85,455,o),
(66,521,o),
(55,561,cs),
(36,632,o),
(95,748,o),
(147,721,c)
);
}
);
width = 466;
}
);
unicode = 56;
},
{
glyphname = nine;
lastChange = "2024-10-10 14:02:01 +0000";
layers = (
{
layerId = m01;
shapes = (
{
closed = 1;
nodes = (
(152,596,o),
(137,531,o),
(138,522,c),
(116,433,o),
(107,366,o),
(194,377,c),
(193,379,o),
(252,387,o),
(272,401,c),
(290,433,o),
(270,456,o),
(299,472,c),
(299,554,o),
(263,614,o),
(201,610,c)
);
},
{
closed = 1;
nodes = (
(380,530,o),
(408,487,o),
(410,436,c),
(390,411,o),
(380,350,o),
(378,296,c),
(382,215,o),
(433,128,o),
(392,54,c),
(407,-11,o),
(373,-18,o),
(348,9,c),
(302,7,o),
(326,65,o),
(332,68,c),
(325,114,o),
(315,263,o),
(297,305,c),
(285,281,o),
(253,291,o),
(218,297,c),
(230,278,o),
(203,269,o),
(162,281,c),
(131,276,o),
(118,327,o),
(78,327,c),
(8,397,o),
(-1,495,o),
(18,553,c),
(60,578,o),
(70,639,o),
(80,649,cs),
(119,690,o),
(150,704,o),
(164,709,c),
(234,704,o),
(405,660,o),
(401,584,c)
);
}
);
width = 428;
},
{
layerId = "3EED4E43-93E5-49B5-B4F5-8693E91ADEE2";
shapes = (
{
closed = 1;
nodes = (
(118,609,o),
(86,551,o),
(72,504,c),
(88,447,o),
(108,358,o),
(170,382,c),
(196,361,o),
(265,389,o),
(271,410,c),
(294,437,o),
(278,457,o),
(265,504,c),
(261,570,o),
(234,655,o),
(153,622,cs)
);
},
{
closed = 1;
nodes = (
(395,559,o),
(426,520,o),
(431,474,c),
(412,452,o),
(420,394,o),
(417,350,c),
(443,241,o),
(481,139,o),
(477,76,c),
(507,3,o),
(461,7,o),
(418,26,c),
(378,30,o),
(392,45,o),
(389,111,c),
(365,147,o),
(338,286,o),
(293,292,c),
(309,295,o),
(259,290,o),
(253,267,c),
(218,299,o),
(188,275,o),
(173,259,c),
(112,281,o),
(69,296,o),
(35,319,cs),
(-24,356,o),
(-38,436,o),
(-37,521,c),
(-7,551,o),
(8,623,o),
(2,664,c),
(10,706,o),
(58,716,o),
(121,739,c),
(170,741,o),
(376,703,o),
(391,605,c)
);
}
);
width = 428;
},
{
layerId = "B7F60EEF-5018-4FBA-9984-B24EB61DE206";
shapes = (
{
closed = 1;
nodes = (
(124,475,o),
(118,452,o),
(126,402,c),
(135,388,o),
(147,330,o),
(197,343,c),
(224,330,o),
(256,381,o),
(232,372,c),
(281,412,o),
(271,420,o),
(234,425,c),
(236,462,o),
(232,519,o),
(158,495,c)
);
},
{
closed = 1;
nodes = (
(312,469,o),
(319,469,o),
(343,413,c),
(335,402,o),
(351,382,o),
(366,353,c),
(385,306,o),
(423,255,o),
(424,199,c),
(438,140,o),
(404,164,o),
(381,160,c),
(371,160,o),
(346,167,o),
(351,197,c),
(347,225,o),
(293,302,o),
(261,313,c),
(271,329,o),
(259,283,o),
(243,289,c),
(242,290,o),
(234,289,o),
(230,306,c),
(183,301,o),
(166,289,o),
(113,292,c),
(94,321,o),
(70,379,o),
(69,442,c),
(45,439,o),
(70,482,o),
(79,480,c),
(96,510,o),
(131,556,o),
(155,565,c),
(165,545,o),
(276,557,o),
(324,494,c)
);
}
);
width = 428;
},
{
layerId = "33631C71-1333-4331-8A89-BDCD639A4A27";
shapes = (
{
closed = 1;
nodes = (
(154,567,o),
(106,506,o),
(117,470,c),
(92,422,o),
(89,365,o),
(199,368,c),
(225,358,o),
(259,382,o),
(275,393,cs),
(288,403,o),
(288,441,o),
(292,464,c),
(306,487,o),
(264,563,o),
(190,563,c)
);
},
{
closed = 1;
nodes = (
(415,493,o),
(427,453,o),
(431,417,c),
(425,382,o),
(419,354,o),
(434,324,c),
(434,247,o),
(448,160,o),
(447,105,cs),
(444,60,o),
(406,67,o),
(377,86,cs),
(354,103,o),
(338,112,o),
(349,141,c),
(340,173,o),
(306,293,o),
(293,293,cs),
(274,294,o),
(267,289,o),
(235,282,c),
(225,302,o),
(199,303,o),
(155,286,c),
(112,312,o),
(75,322,o),
(32,341,c),
(-25,400,o),
(-25,444,o),
(-20,514,c),
(2,539,o),
(38,564,o),
(63,604,c),
(64,620,o),
(129,629,o),
(155,625,c),
(258,624,o),
(426,574,o),
(438,531,c)
);
}
);
width = 428;
}
);
unicode = 57;
},
{
glyphname = period;
lastChange = "2024-10-10 14:02:18 +0000";
layers = (
{
layerId = m01;
shapes = (
{
closed = 1;
nodes = (
(9,22,o),
(40,127,o),
(123,113,c),
(197,122,o),
(196,4,o),
(116,-15,c)
);
}
);
width = 218;
},
{
layerId = "3EED4E43-93E5-49B5-B4F5-8693E91ADEE2";
shapes = (
{
closed = 1;
nodes = (
(-40,-23,o),
(48,214,o),
(142,157,c),
(251,98,o),
(167,-71,o),
(89,-48,c)
);
}
);
width = 218;
},
{
layerId = "B7F60EEF-5018-4FBA-9984-B24EB61DE206";
shapes = (
{
closed = 1;
nodes = (
(50,-9,o),
(52,50,o),
(89,67,c),
(153,80,o),
(197,25,o),
(143,12,cs)
);
}
);
width = 218;
},
{
layerId = "33631C71-1333-4331-8A89-BDCD639A4A27";
shapes = (
{
closed = 1;
nodes = (
(-5,12,o),
(-21,86,o),
(130,96,c),
(227,76,o),
(225,-1,o),
(100,-2,c)
);
}
);
width = 218;
}
);
unicode = 46;
},
{
glyphname = comma;
lastChange = "2024-10-10 14:02:17 +0000";
layers = (
{
layerId = m01;
shapes = (
{
closed = 1;
nodes = (
(130,-5,o),
(112,24,o),
(98,55,c),
(76,81,o),
(36,75,o),
(56,100,c),
(47,163,o),
(101,133,o),
(148,137,c),
(173,103,o),
(211,84,o),
(209,15,c),
(221,-10,o),
(230,-20,o),
(232,-82,c),
(190,-112,o),
(175,-195,o),
(125,-203,c),
(44,-245,o),
(132,-65,o),
(104,-53,c)
);
}
);
width = 260;
},
{
layerId = "3EED4E43-93E5-49B5-B4F5-8693E91ADEE2";
shapes = (
{
closed = 1;
nodes = (
(133,-14,o),
(128,15,o),
(100,25,c),
(50,77,o),
(11,66,o),
(34,133,c),
(53,142,o),
(106,154,o),
(137,141,c),
(191,124,o),
(200,100,o),
(262,67,c),
(262,17,o),
(270,-45,o),
(274,-49,c),
(257,-120,o),
(268,-232,o),
(215,-247,c),
(135,-336,o),
(167,-110,o),
(132,-71,c)
);
}
);
width = 260;
},
{
layerId = "B7F60EEF-5018-4FBA-9984-B24EB61DE206";
shapes = (
{
closed = 1;
nodes = (
(95,-6,o),
(119,33,o),
(91,57,c),
(68,50,o),
(48,66,o),
(90,83,c),
(77,102,o),
(120,108,o),
(142,105,c),
(171,82,o),
(176,34,o),
(204,13,c),
(192,-11,o),
(176,-35,o),
(171,-71,c),
(149,-81,o),
(131,-151,o),
(106,-163,c),
(29,-158,o),
(110,-46,o),
(116,-4,c)
);
}
);
width = 260;
},
{
layerId = "33631C71-1333-4331-8A89-BDCD639A4A27";
shapes = (
{
closed = 1;
nodes = (
(130,-13,o),
(105,34,o),
(97,57,c),
(73,92,o),
(55,106,o),
(62,148,c),
(75,181,o),
(120,181,o),
(128,153,c),
(162,102,o),
(175,93,o),
(190,43,c),
(200,20,o),
(210,-44,o),
(193,-61,c),
(204,-111,o),
(186,-203,o),
(145,-243,c),
(77,-262,o),
(132,-70,o),
(131,-38,cs)
);
}
);
width = 260;
}
);
unicode = 44;
},
{
glyphname = colon;
lastChange = "2024-10-10 14:02:16 +0000";
layers = (
{
layerId = m01;
shapes = (
{
closed = 1;
nodes = (
(80,22,o),
(38,-5,o),
(45,52,c),
(36,87,o),
(67,108,o),
(119,91,c),
(192,104,o),
(192,60,o),
(132,13,c),
(125,-1,o),
(128,-11,o),
(108,24,c)
);
},
{
closed = 1;
nodes = (
(200,302,o),
(168,283,o),
(146,299,c),
(114,292,o),
(83,315,o),
(84,345,c),
(106,423,o),
(223,383,o),
(214,339,c)
);
}
);
width = 245;
},
{
layerId = "3EED4E43-93E5-49B5-B4F5-8693E91ADEE2";
shapes = (
{
closed = 1;
nodes = (
(53,2,o),
(8,5,o),
(38,59,c),
(35,87,o),
(72,129,o),
(119,113,c),
(201,122,o),
(198,36,o),
(141,5,c),
(148,-30,o),
(108,-15,o),
(75,-25,c)
);
},
{
closed = 1;
nodes = (
(251,360,o),
(211,366,o),
(177,341,c),
(122,347,o),
(86,373,o),
(132,440,c),
(137,505,o),
(279,503,o),
(261,416,cs)
);
}
);
width = 245;
},
{
layerId = "B7F60EEF-5018-4FBA-9984-B24EB61DE206";
shapes = (
{
closed = 1;
nodes = (
(101,-13,o),
(95,-5,o),
(78,38,cs),
(73,49,o),
(78,85,o),
(94,84,c),
(152,96,o),
(179,61,o),
(154,2,c),
(150,5,o),
(132,-17,o),
(113,9,c)
);
},
{
closed = 1;
nodes = (
(133,297,o),
(113,264,o),
(109,241,c),
(94,232,o),
(40,255,o),
(79,309,c),
(51,373,o),
(145,346,o),
(129,302,c)
);
}
);
width = 245;
},
{
layerId = "33631C71-1333-4331-8A89-BDCD639A4A27";
shapes = (
{
closed = 1;
nodes = (
(74,-6,o),
(-4,2,o),
(6,46,c),
(28,53,o),
(69,84,o),
(117,82,c),
(180,99,o),
(222,40,o),
(180,-1,c),
(129,-5,o),
(120,-3,o),
(84,18,c)
);
},
{
closed = 1;
nodes = (
(220,282,o),
(181,254,o),
(162,259,c),
(116,245,o),
(52,272,o),
(41,311,c),
(77,368,o),
(227,353,o),
(246,305,c)
);
}
);
width = 245;
}
);
unicode = 58;
},
{
glyphname = semicolon;
lastChange = "2024-10-10 14:02:14 +0000";
layers = (
{
layerId = m01;
shapes = (
{
closed = 1;
nodes = (
(124,-116,o),
(209,-66,o),
(126,34,c),
(127,69,o),
(96,94,o),
(155,139,c),
(192,148,o),
(201,97,o),
(212,61,c),
(265,19,o),
(293,-62,o),
(241,-105,c),
(250,-160,o),
(103,-278,o),
(135,-188,c)
);
},
{
closed = 1;
nodes = (
(34,347,o),
(117,402,o),
(131,320,c),
(136,234,o),
(31,286,o),
(54,320,c)
);
}
);
width = 302;
},
{
layerId = "3EED4E43-93E5-49B5-B4F5-8693E91ADEE2";
shapes = (
{
closed = 1;
nodes = (
(131,-145,o),
(226,-93,o),
(130,26,c),
(123,45,o),
(88,92,o),
(146,116,c),
(191,175,o),
(200,102,o),
(254,77,c),
(296,1,o),
(296,-73,o),
(298,-150,c),
(282,-175,o),
(157,-343,o),
(163,-230,c)
);
},
{
closed = 1;
nodes = (
(15,393,o),
(108,456,o),
(132,361,cs),
(153,266,o),
(25,291,o),
(28,358,c)
);
}
);
width = 302;
},
{
layerId = "B7F60EEF-5018-4FBA-9984-B24EB61DE206";
shapes = (
{
closed = 1;
nodes = (
(93,-61,o),
(142,-59,o),
(136,47,cs),
(134,74,o),
(136,103,o),
(160,119,c),
(197,116,o),
(199,68,o),
(223,56,c),
(220,-7,o),
(197,-48,o),
(157,-117,c),
(171,-136,o),
(26,-219,o),
(62,-146,c)
);
},
{
closed = 1;
nodes = (
(194,356,o),
(256,336,o),
(241,284,c),
(217,229,o),
(154,245,o),
(143,299,c)
);
}
);
width = 302;
},
{
layerId = "33631C71-1333-4331-8A89-BDCD639A4A27";
shapes = (
{
closed = 1;
nodes = (
(118,-116,o),
(173,-96,o),
(136,30,c),
(119,43,o),
(92,88,o),
(134,122,c),
(172,144,o),
(180,106,o),
(207,69,c),
(239,-3,o),
(237,-82,o),
(215,-156,c),
(209,-164,o),
(115,-315,o),
(122,-217,c)
);
},
{
closed = 1;
nodes = (
(60,380,o),
(142,410,o),
(142,331,c),
(154,278,o),
(73,304,o),
(73,327,c)
);
}
);
width = 302;
}
);
unicode = 59;
},
{
glyphname = exclam;
lastChange = "2024-10-10 14:02:15 +0000";
layers = (
{
layerId = m01;
shapes = (
{
closed = 1;
nodes = (
(46,456,o),
(50,502,o),
(37,564,c),
(59,587,o),
(10,651,o),
(60,685,c),
(106,742,o),
(142,584,o),
(131,560,c),
(145,477,o),
(142,411,o),
(136,326,c),
(74,232,o),
(42,399,o),
(56,448,c)
);
},
{
closed = 1;
nodes = (
(100,138,o),
(196,81,o),
(167,36,c),
(160,-46,o),
(77,30,o),
(93,37,c)
);
}
);
width = 219;
},
{
layerId = "3EED4E43-93E5-49B5-B4F5-8693E91ADEE2";
shapes = (
{
closed = 1;
nodes = (
(134,569,o),
(113,615,o),
(118,658,c),
(134,681,o),
(123,772,o),
(140,809,c),
(222,879,o),
(240,681,o),
(245,655,c),
(216,574,o),
(200,432,o),
(182,390,c),
(112,274,o),
(104,483,o),
(106,488,cs)
);
},
{
closed = 1;
nodes = (
(83,141,o),
(230,69,o),
(159,-16,c),
(164,-79,o),
(73,11,o),
(90,33,c)
);
}
);
width = 219;
},
{
layerId = "B7F60EEF-5018-4FBA-9984-B24EB61DE206";
shapes = (
{
closed = 1;
nodes = (
(133,403,o),
(125,470,o),
(140,496,c),
(164,529,o),
(141,600,o),
(155,608,c),
(203,679,o),
(188,499,o),
(203,511,c),
(210,422,o),
(210,335,o),
(157,296,c),
(140,208,o),
(140,365,o),
(153,367,c)
);
},
{
closed = 1;
nodes = (
(114,130,o),
(193,90,o),
(163,-4,c),
(153,-19,o),
(107,12,o),
(125,63,c)
);
}
);
width = 219;
},
{
layerId = "33631C71-1333-4331-8A89-BDCD639A4A27";
shapes = (
{
closed = 1;
nodes = (
(58,410,o),
(5,442,o),
(8,477,c),
(25,509,o),
(14,549,o),
(23,583,c),
(121,640,o),
(118,508,o),
(135,493,c),
(138,411,o),
(163,332,o),
(132,280,cs),
(84,210,o),
(47,343,o),
(22,363,c)
);
},
{
closed = 1;
nodes = (
(96,102,o),
(229,86,o),
(187,17,c),
(164,-35,o),
(71,3,o),
(100,33,c)
);
}
);
width = 219;
}
);
unicode = 33;
},
{
glyphname = question;
lastChange = "2024-10-10 14:02:13 +0000";
layers = (
{
layerId = m01;
shapes = (
{
closed = 1;
nodes = (
(471,486,o),
(388,407,o),
(295,345,c),
(288,295,o),
(238,258,o),
(213,248,cs),
(178,234,o),
(124,286,o),
(159,302,c),
(150,311,o),
(209,338,o),
(238,375,c),
(247,392,o),
(276,446,o),
(331,458,c),
(366,495,o),
(405,626,o),
(288,628,cs),
(265,627,o),
(210,604,o),
(174,585,c),
(151,555,o),
(134,528,o),
(104,485,c),
(85,449,o),
(32,506,o),
(49,522,c),
(63,586,o),
(92,613,o),
(121,632,c),
(229,727,o),
(450,754,o),
(445,565,c)
);
},
{
closed = 1;
nodes = (
(231,2,o),
(216,-8,o),
(191,-2,c),
(159,-9,o),
(131,-1,o),
(122,15,c),
(88,97,o),
(244,83,o),
(226,62,c)
);
}
);
width = 494;
},
{
layerId = "3EED4E43-93E5-49B5-B4F5-8693E91ADEE2";
shapes = (
{
closed = 1;
nodes = (
(415,564,o),
(335,468,o),
(290,413,c),
(250,377,o),
(215,288,o),
(190,283,c),
(152,281,o),
(114,321,o),
(123,340,c),
(128,378,o),
(186,420,o),
(214,452,c),
(224,459,o),
(267,525,o),
(268,558,c),
(300,624,o),
(350,740,o),
(266,717,c),
(210,737,o),
(196,689,o),
(134,665,c),
(131,653,o),
(90,585,o),
(55,546,c),
(39,536,o),
(4,548,o),
(6,625,c),
(21,643,o),
(54,707,o),
(62,707,c),
(149,854,o),
(412,927,o),
(400,669,c)
);
},
{
closed = 1;
nodes = (
(249,34,o),
(221,-26,o),
(178,-52,c),
(163,-16,o),
(129,0,o),
(127,31,c),
(81,104,o),
(234,83,o),
(224,47,c)
);
}
);
width = 494;
},
{
layerId = "B7F60EEF-5018-4FBA-9984-B24EB61DE206";
shapes = (
{
closed = 1;
nodes = (
(414,420,o),
(352,375,o),
(287,313,c),
(277,281,o),
(254,218,o),
(240,208,c),
(186,225,o),
(187,228,o),
(186,252,c),
(194,278,o),
(213,291,o),
(217,312,c),
(265,378,o),
(285,407,o),
(290,443,c),
(316,450,o),
(333,590,o),
(272,542,c),
(252,552,o),
(207,540,o),
(193,488,c),
(147,479,o),
(149,430,o),
(124,399,c),
(118,407,o),
(74,424,o),
(60,455,c),
(70,501,o),
(86,526,o),
(100,534,c),
(194,645,o),
(353,710,o),
(379,511,c)
);
},
{
closed = 1;
nodes = (
(266,12,o),
(261,-37,o),
(237,-7,c),
(227,-24,o),
(220,-6,o),
(186,33,c),
(182,80,o),
(275,96,o),
(287,56,c)
);
}
);
width = 494;
},
{
layerId = "33631C71-1333-4331-8A89-BDCD639A4A27";
shapes = (
{
closed = 1;
nodes = (
(391,492,o),
(334,414,o),
(294,370,c),
(277,344,o),
(229,251,o),
(215,257,c),
(189,265,o),
(158,294,o),
(176,321,c),
(176,354,o),
(214,370,o),
(236,396,c),
(258,426,o),
(274,469,o),
(286,520,c),
(320,561,o),
(359,685,o),
(294,680,c),
(262,654,o),
(223,646,o),
(199,612,c),
(191,588,o),
(160,543,o),
(139,517,c),
(122,521,o),
(80,545,o),
(92,591,c),
(110,629,o),
(126,655,o),
(158,666,c),
(209,787,o),
(400,840,o),
(398,604,c)
);
},
{
closed = 1;
nodes = (
(222,12,o),
(216,-17,o),
(196,-26,c),
(180,-13,o),
(163,18,o),
(168,20,c),
(136,101,o),
(226,88,o),
(239,59,c)
);
}
);
width = 494;
}
);
unicode = 63;
},
{
glyphname = bullet;
lastChange = "2024-10-10 14:02:12 +0000";
layers = (
{
layerId = m01;
shapes = (
{
closed = 1;
nodes = (
(264,394,o),
(304,348,c),
(281,289,o),
(211,227,o),
(139,221,c),
(28,191,o),
(-1,390,o),
(164,409,c),
(225,419,o)
);
}
);
width = 324;
},
{
layerId = "3EED4E43-93E5-49B5-B4F5-8693E91ADEE2";
shapes = (
{
closed = 1;
nodes = (
(348,408,o),
(328,357,c),
(341,314,o),
(224,245,o),
(191,215,c),
(-1,230,o),
(7,434,o),
(193,446,c),
(274,415,o)
);
}
);
width = 324;
},
{
layerId = "B7F60EEF-5018-4FBA-9984-B24EB61DE206";
shapes = (
{
closed = 1;
nodes = (
(250,351,o),
(255,321,c),
(236,277,o),
(158,237,o),
(150,241,c),
(32,256,o),
(83,410,o),
(170,404,c),
(245,378,o)
);
}
);
width = 324;
},
{
layerId = "33631C71-1333-4331-8A89-BDCD639A4A27";
shapes = (
{
closed = 1;
nodes = (
(314,374,o),
(318,327,c),
(337,292,o),
(244,254,o),
(155,244,c),
(-33,215,o),
(-47,373,o),
(149,383,c),
(275,379,o)
);
}
);
width = 324;
}
);
unicode = 8226;
},
{
glyphname = asterisk;
lastChange = "2024-10-10 14:02:10 +0000";
layers = (
{
layerId = m01;
shapes = (
{
closed = 1;
nodes = (
(45,549,o),
(118,556,o),
(155,557,c),
(167,545,o),
(56,597,o),
(87,638,c),
(98,691,o),
(174,632,o),
(196,626,c),
(203,653,o),
(194,700,o),
(196,688,c),
(211,715,o),
(207,746,o),
(240,715,c),
(269,718,o),
(230,655,o),
(277,658,c),
(313,656,o),
(309,719,o),
(352,716,c),
(380,719,o),
(392,733,o),
(401,697,c),
(394,635,o),
(338,631,o),
(320,573,c),
(307,561,o),
(345,572,o),
(365,575,c),
(386,535,o),
(333,536,o),
(344,507,c),
(305,481,o),
(353,425,o),
(352,413,c),
(381,389,o),
(412,337,o),
(368,334,c),
(322,352,o),
(311,392,o),
(274,386,c),
(236,395,o),
(298,277,o),
(247,304,c),
(219,311,o),
(195,345,o),
(211,355,c),
(213,352,o),
(181,417,o),
(184,447,c),
(187,430,o),
(146,374,o),
(139,367,c),
(126,385,o),
(91,334,o),
(70,384,c),
(20,401,o),
(118,449,o),
(117,484,c),
(92,499,o),
(44,465,o),
(60,507,c)
);
}
);
width = 439;
},
{
layerId = "3EED4E43-93E5-49B5-B4F5-8693E91ADEE2";
shapes = (
{
closed = 1;
nodes = (
(-52,583,o),
(60,620,o),
(92,615,c),
(127,606,o),
(7,644,o),
(17,679,c),
(32,769,o),
(102,687,o),
(119,699,c),
(115,728,o),
(118,749,o),
(115,771,c),
(101,813,o),
(106,823,o),
(160,796,c),
(206,819,o),
(165,734,o),
(191,745,c),
(241,750,o),
(243,794,o),
(266,819,c),
(316,858,o),
(350,804,o),
(332,789,c),
(326,720,o),
(291,705,o),
(264,660,cs),
(234,609,o),
(285,677,o),
(326,654,cs),
(362,632,o),
(276,613,o),
(284,559,c),
(301,540,o),
(339,504,o),
(342,470,c),
(360,464,o),
(386,417,o),
(345,424,c),
(319,383,o),
(272,466,o),
(236,481,c),
(197,460,o),
(286,340,o),
(201,357,c),
(167,358,o),
(175,375,o),
(179,388,c),
(158,418,o),
(124,464,o),
(144,495,c),
(148,485,o),
(89,429,o),
(105,431,c),
(83,404,o),
(70,374,o),
(55,375,c),
(-26,426,o),
(90,516,o),
(57,527,c),
(29,531,o),
(-12,488,o),
(-21,560,c)
);
}
);
width = 439;
},
{
layerId = "B7F60EEF-5018-4FBA-9984-B24EB61DE206";
shapes = (
{
closed = 1;
nodes = (
(70,482,o),
(129,535,o),
(142,530,c),
(173,522,o),
(109,523,o),
(90,556,c),
(104,618,o),
(129,566,o),
(167,603,c),
(147,616,o),
(158,631,o),
(151,629,c),
(126,637,o),
(170,656,o),
(171,654,c),
(204,667,o),
(214,635,o),
(210,641,c),
(237,635,o),
(221,674,o),
(268,711,c),
(261,698,o),
(276,708,o),
(289,694,c),
(285,642,o),
(269,608,o),
(261,611,c),
(254,542,o),
(293,618,o),
(304,579,c),
(321,588,o),
(277,558,o),
(292,530,c),
(294,536,o),
(334,517,o),
(365,497,c),
(365,474,o),
(397,476,o),
(339,432,c),
(346,427,o),
(294,468,o),
(289,457,c),
(264,435,o),
(334,397,o),
(273,363,c),
(263,365,o),
(266,381,o),
(244,427,c),
(262,415,o),
(196,464,o),
(230,439,c),
(202,467,o),
(209,416,o),
(180,398,c),
(191,393,o),
(178,370,o),
(174,373,c),
(127,395,o),
(172,473,o),
(160,461,c),
(150,487,o),
(107,449,o),
(85,479,c)
);
}
);
width = 439;
},
{
layerId = "33631C71-1333-4331-8A89-BDCD639A4A27";
shapes = (
{
closed = 1;
nodes = (
(76,546,o),
(146,542,o),
(154,550,c),
(192,571,o),
(89,626,o),
(115,676,cs),
(142,727,o),
(158,643,o),
(175,654,c),
(189,684,o),
(174,736,o),
(196,723,c),
(187,745,o),
(208,752,o),
(212,772,c),
(271,776,o),
(233,672,o),
(251,667,c),
(279,678,o),
(294,735,o),
(315,753,c),
(344,757,o),
(362,732,o),
(361,702,c),
(355,677,o),
(319,645,o),
(309,604,c),
(264,555,o),
(321,599,o),
(332,564,c),
(377,521,o),
(302,508,o),
(307,505,c),
(295,481,o),
(336,430,o),
(328,409,c),
(353,368,o),
(370,316,o),
(338,313,c),
(286,301,o),
(286,379,o),
(266,388,c),
(236,370,o),
(282,246,o),
(236,261,c),
(204,278,o),
(211,299,o),
(208,338,c),
(191,323,o),
(191,416,o),
(190,409,cs),
(200,450,o),
(156,363,o),
(158,371,c),
(137,343,o),
(133,328,o),
(96,351,c),
(51,395,o),
(152,437,o),
(153,463,c),
(117,474,o),
(80,463,o),
(66,503,c)
);
}
);
width = 439;
}
);
unicode = 42;
},
{
glyphname = numbersign;
lastChange = "2024-10-10 14:02:09 +0000";
layers = (
{
layerId = m01;
shapes = (
{
closed = 1;
nodes = (
(325,228,o),
(312,225,o),
(303,223,c),
(368,232,o),
(418,219,o),
(465,265,c),
(435,287,o),
(490,340,o),
(482,360,c),
(479,382,o),
(446,361,o),
(447,358,c),
(408,378,o),
(359,388,o),
(321,355,c),
(300,357,o),
(302,353,o),
(266,318,c),
(269,278,o),
(236,243,o),
(278,230,c),
(264,225,o),
(290,233,o),
(313,233,c)
);
},
{
closed = 1;
nodes = (
(315,129,o),
(283,128,o),
(245,143,c),
(193,103,o),
(193,65,o),
(181,2,c),
(142,-10,o),
(169,-60,o),
(109,-72,c),
(54,-28,o),
(66,-22,o),
(100,26,c),
(93,40,o),
(135,78,o),
(120,87,c),
(106,136,o),
(113,109,o),
(115,102,c),
(77,143,o),
(46,143,o),
(40,203,c),
(29,222,o),
(60,254,o),
(87,246,c),
(87,257,o),
(96,221,o),
(116,236,c),
(156,230,o),
(177,256,o),
(214,319,c),
(218,353,o),
(182,351,o),
(154,378,c),
(120,361,o),
(61,389,o),
(84,420,c),
(72,536,o),
(222,395,o),
(236,464,c),
(291,530,o),
(293,569,o),
(293,661,c),
(288,677,o),
(346,715,o),
(365,701,c),
(371,678,o),
(388,590,o),
(372,592,c),
(386,570,o),
(344,458,o),
(347,446,c),
(357,457,o),
(454,454,o),
(506,491,c),
(503,508,o),
(528,560,o),
(533,631,c),
(570,665,o),
(586,699,o),
(631,637,c),
(640,614,o),
(597,551,o),
(601,507,c),
(610,463,o),
(715,535,o),
(729,458,c),
(760,393,o),
(644,421,o),
(618,388,c),
(556,371,o),
(556,366,o),
(544,344,c),
(531,332,o),
(504,246,o),
(546,256,c),
(556,237,o),
(613,240,o),
(635,273,c),
(634,259,o),
(704,259,o),
(675,213,c),
(692,218,o),
(719,182,o),
(687,168,c),
(666,164,o),
(644,136,o),
(607,150,c),
(582,167,o),
(523,173,o),
(503,165,c),
(480,150,o),
(491,98,o),
(479,72,cs),
(462,40,o),
(489,-9,o),
(438,-3,c),
(434,-22,o),
(411,-14,o),
(408,26,c),
(373,50,o),
(459,121,o),
(363,118,c)
);
}
);
width = 786;
},
{
layerId = "3EED4E43-93E5-49B5-B4F5-8693E91ADEE2";
shapes = (
{
closed = 1;
nodes = (
(281,239,o),
(284,220,o),
(294,210,c),
(349,229,o),
(402,181,o),
(471,244,c),
(465,251,o),
(510,344,o),
(491,337,c),
(498,371,o),
(481,382,o),
(428,365,c),
(416,388,o),
(355,376,o),
(312,393,c),
(276,365,o),
(294,361,o),
(283,292,c),
(283,303,o),
(210,255,o),
(219,235,c),
(244,230,o),
(286,236,o),
(298,213,c)
);
},
{
closed = 1;
nodes = (
(285,98,o),
(235,107,o),
(171,114,c),
(134,79,o),
(125,9,o),
(109,-6,c),
(63,-61,o),
(46,-129,o),
(22,-97,c),
(-42,-61,o),
(-46,-30,o),
(-15,12,c),
(-7,41,o),
(26,89,o),
(27,115,c),
(33,136,o),
(28,98,o),
(23,100,c),
(-4,139,o),
(-42,189,o),
(-38,229,c),
(-47,248,o),
(8,274,o),
(-3,273,cs),
(47,279,o),
(45,250,o),
(47,243,c),
(108,222,o),
(145,280,o),
(185,332,c),
(218,393,o),
(180,402,o),
(131,393,c),
(84,405,o),
(34,431,o),
(46,513,cs),
(65,621,o),
(225,433,o),
(275,528,c),
(290,597,o),
(297,637,o),
(330,714,c),
(323,736,o),
(387,789,o),
(398,757,c),
(453,726,o),
(433,653,o),
(425,634,c),
(425,606,o),
(355,528,o),
(347,484,c),
(364,501,o),
(509,498,o),
(526,481,c),
(568,529,o),
(589,587,o),
(623,659,c),
(630,704,o),
(688,763,o),
(725,683,c),
(748,614,o),
(679,571,o),
(680,494,c),
(653,432,o),
(836,547,o),
(815,459,c),
(842,372,o),
(712,390,o),
(667,361,c),
(632,355,o),
(627,343,o),
(569,321,c),
(578,312,o),
(557,238,o),
(544,212,c),
(555,209,o),
(654,226,o),
(675,218,c),
(676,195,o),
(734,180,o),
(753,149,c),
(723,152,o),
(742,77,o),
(720,71,c),
(693,81,o),
(659,100,o),
(619,100,cs),
(588,101,o),
(537,117,o),
(506,94,c),
(469,74,o),
(488,40,o),
(464,24,c),
(441,-34,o),
(462,-76,o),
(417,-112,c),
(408,-122,o),
(365,-86,o),
(338,-61,c),
(357,-26,o),
(416,68,o),
(356,86,c)
);
}
);
width = 786;
},
{
layerId = "B7F60EEF-5018-4FBA-9984-B24EB61DE206";
shapes = (
{
closed = 1;
nodes = (
(336,259,o),
(319,252,o),
(323,276,c),
(355,248,o),
(419,251,o),
(433,251,c),
(424,296,o),
(459,309,o),
(449,325,c),
(471,355,o),
(456,333,o),
(417,350,c),
(401,368,o),
(376,370,o),
(335,336,c),
(313,367,o),
(327,344,o),
(299,327,c),
(315,308,o),
(291,298,o),
(265,265,c),
(271,245,o),
(310,253,o),
(338,278,c)
);
},
{
closed = 1;
nodes = (
(328,174,o),
(285,188,o),
(230,194,c),
(217,179,o),
(196,154,o),
(175,128,c),
(174,82,o),
(138,27,o),
(104,50,c),
(87,94,o),
(81,105,o),
(109,142,c),
(110,170,o),
(164,180,o),
(166,177,c),
(175,203,o),
(163,208,o),
(161,214,c),
(113,228,o),
(108,257,o),
(126,288,c),
(115,287,o),
(110,301,o),
(137,287,c),
(144,288,o),
(183,302,o),
(186,272,c),
(226,274,o),
(222,294,o),
(262,335,c),
(275,372,o),
(244,375,o),
(219,382,c),
(166,385,o),
(139,419,o),
(158,449,c),
(206,495,o),
(264,406,o),
(329,470,c),
(329,506,o),
(346,532,o),
(376,569,c),
(383,586,o),
(383,619,o),
(420,614,c),
(439,562,o),
(434,534,o),
(436,524,c),
(422,477,o),
(359,421,o),
(377,416,c),
(396,416,o),
(465,420,o),
(484,412,c),
(505,418,o),
(531,469,o),
(544,532,c),
(575,547,o),
(600,604,o),
(635,539,c),
(622,479,o),
(574,476,o),
(562,419,c),
(591,383,o),
(685,445,o),
(686,358,c),
(703,333,o),
(631,322,o),
(571,341,c),
(556,321,o),
(523,325,o),
(507,305,c),
(529,272,o),
(479,233,o),
(499,252,c),
(512,237,o),
(548,233,o),
(562,227,c),
(577,246,o),
(634,230,o),
(608,192,c),
(602,185,o),
(608,141,o),
(591,146,c),
(611,146,o),
(572,159,o),
(548,171,c),
(533,175,o),
(494,151,o),
(465,173,c),
(439,175,o),
(450,132,o),
(430,112,c),
(425,73,o),
(423,74,o),
(405,38,c),
(384,51,o),
(349,67,o),
(344,86,c),
(364,94,o),
(424,184,o),
(347,156,c)
);
}
);
width = 786;
},
{
layerId = "33631C71-1333-4331-8A89-BDCD639A4A27";
shapes = (
{
closed = 1;
nodes = (
(300,238,o),
(302,237,o),
(309,245,c),
(357,250,o),
(440,241,o),
(463,282,c),
(461,282,o),
(477,339,o),
(465,344,c),
(481,373,o),
(469,368,o),
(436,351,c),
(395,370,o),
(343,354,o),
(310,359,c),
(271,336,o),
(286,342,o),
(273,294,c),
(249,301,o),
(220,249,o),
(228,243,c),
(228,248,o),
(304,235,o),
(301,238,cs)
);
},
{
closed = 1;
nodes = (
(322,173,o),
(263,166,o),
(215,152,c),
(136,138,o),
(124,86,o),
(132,70,c),
(111,28,o),
(99,-21,o),
(47,-17,c),
(-5,24,o),
(13,38,o),
(16,72,c),
(11,100,o),
(64,116,o),
(57,149,c),
(64,173,o),
(41,131,o),
(54,149,c),
(1,173,o),
(-46,173,o),
(-44,211,c),
(-45,234,o),
(-4,249,o),
(0,255,c),
(31,272,o),
(51,249,o),
(59,255,c),
(139,224,o),
(150,269,o),
(169,315,c),
(174,359,o),
(144,345,o),
(76,366,c),
(34,363,o),
(0,374,o),
(-12,414,c),
(10,499,o),
(199,403,o),
(244,467,c),
(262,512,o),
(256,539,o),
(255,580,c),
(262,619,o),
(307,646,o),
(343,628,c),
(371,625,o),
(373,564,o),
(384,539,c),
(356,518,o),
(324,456,o),
(336,447,c),
(348,425,o),
(479,431,o),
(524,446,c),
(563,471,o),
(557,530,o),
(574,584,c),
(575,607,o),
(618,644,o),
(668,614,c),
(721,549,o),
(653,525,o),
(639,461,c),
(638,420,o),
(784,513,o),
(824,448,c),
(825,396,o),
(715,377,o),
(666,373,c),
(630,373,o),
(609,378,o),
(591,326,c),
(563,329,o),
(547,276,o),
(557,248,c),
(595,251,o),
(655,261,o),
(657,271,c),
(696,258,o),
(734,266,o),
(752,233,c),
(778,222,o),
(752,197,o),
(751,187,c),
(731,168,o),
(676,170,o),
(653,181,c),
(610,182,o),
(570,180,o),
(547,161,c),
(519,162,o),
(518,134,o),
(519,100,c),
(506,91,o),
(513,46,o),
(481,34,c),
(448,34,o),
(394,30,o),
(391,46,c),
(362,81,o),
(447,166,o),
(362,167,c)
);
}
);
width = 786;
}
);
unicode = 35;
},
{
glyphname = slash;
lastChange = "2024-10-10 14:02:07 +0000";
layers = (
{
layerId = m01;
shapes = (
{
closed = 1;
nodes = (
(53,34,o),
(93,88,o),
(120,178,c),
(159,219,o),
(196,305,o),
(241,354,c),
(277,424,o),
(334,512,o),
(337,614,c),
(358,648,o),
(340,690,o),
(369,680,c),
(380,731,o),
(451,705,o),
(424,660,c),
(434,623,o),
(399,576,o),
(398,561,c),
(399,514,o),
(347,488,o),
(340,449,c),
(334,383,o),
(286,281,o),
(240,249,c),
(234,180,o),
(211,87,o),
(153,51,c),
(135,8,o),
(35,-136,o),
(55,-37,c)
);
}
);
width = 479;
},
{
layerId = "3EED4E43-93E5-49B5-B4F5-8693E91ADEE2";
shapes = (
{
closed = 1;
nodes = (
(26,-84,o),
(91,9,o),
(128,73,cs),
(178,163,o),
(167,248,o),
(197,354,cs),
(218,435,o),
(272,553,o),
(287,650,c),
(288,706,o),
(266,753,o),
(298,793,c),
(294,796,o),
(380,813,o),
(357,749,c),
(392,729,o),
(344,632,o),
(350,614,c),
(357,540,o),
(329,484,o),
(314,447,c),
(317,348,o),
(296,296,o),
(271,208,c),
(240,126,o),
(218,30,o),
(211,-64,c),
(176,-119,o),
(66,-297,o),
(74,-186,c)
);
}
);
width = 479;
},
{
layerId = "B7F60EEF-5018-4FBA-9984-B24EB61DE206";
shapes = (
{
closed = 1;
nodes = (
(79,114,o),
(147,158,o),
(164,206,c),
(212,278,o),
(219,316,o),
(226,347,c),
(251,398,o),
(289,492,o),
(331,519,c),
(306,538,o),
(299,597,o),
(340,602,c),
(346,601,o),
(382,604,o),
(384,558,c),
(403,533,o),
(354,503,o),
(344,497,c),
(355,459,o),
(338,421,o),
(335,407,c),
(301,361,o),
(267,293,o),
(255,251,c),
(220,211,o),
(209,191,o),
(187,133,c),
(176,80,o),
(103,-20,o),
(78,59,c)
);
}
);
width = 479;
},
{
layerId = "33631C71-1333-4331-8A89-BDCD639A4A27";
shapes = (
{
closed = 1;
nodes = (
(77,-8,o),
(132,52,o),
(153,123,c),
(178,231,o),
(202,308,o),
(239,383,c),
(258,451,o),
(291,549,o),
(314,654,c),
(336,693,o),
(317,734,o),
(338,750,c),
(367,785,o),
(393,752,o),
(397,708,c),
(392,686,o),
(377,637,o),
(354,578,c),
(351,525,o),
(341,495,o),
(320,463,c),
(298,380,o),
(283,298,o),
(246,209,c),
(221,163,o),
(200,70,o),
(192,15,c),
(172,-34,o),
(82,-216,o),
(82,-81,c)
);
}
);
width = 479;
}
);
unicode = 47;
},
{
glyphname = backslash;
lastChange = "2024-10-10 14:02:07 +0000";
layers = (
{
layerId = m01;
shapes = (
{
closed = 1;
nodes = (
(375,-50,o),
(373,-62,o),
(342,-72,c),
(293,-72,o),
(292,9,o),
(271,20,c),
(257,110,o),
(241,173,o),
(220,246,c),
(175,313,o),
(134,412,o),
(113,478,c),
(88,519,o),
(69,566,o),
(58,603,c),
(39,634,o),
(14,636,o),
(45,665,c),
(65,703,o),
(133,681,o),
(170,596,c),
(185,544,o),
(218,450,o),
(225,397,c),
(246,344,o),
(274,317,o),
(276,262,c),
(298,253,o),
(293,233,o),
(329,203,c),
(337,114,o),
(400,50,o),
(394,-25,c)
);
}
);
width = 433;
},
{
layerId = "3EED4E43-93E5-49B5-B4F5-8693E91ADEE2";
shapes = (
{
closed = 1;
nodes = (
(391,-110,o),
(350,-122,o),
(307,-109,cs),
(277,-98,o),
(262,-21,o),
(271,-18,c),
(252,73,o),
(214,155,o),
(171,274,c),
(176,356,o),
(140,432,o),
(83,524,c),
(102,542,o),
(83,587,o),
(46,624,c),
(21,676,o),
(14,703,o),
(65,710,c),
(81,728,o),
(139,693,o),
(172,646,cs),
(217,575,o),
(224,480,o),
(237,394,c),
(260,332,o),
(285,288,o),
(286,280,c),
(310,213,o),
(310,216,o),
(313,185,c),
(379,106,o),
(427,-3,o),
(405,-82,c)
);
}
);
width = 433;
},
{
layerId = "B7F60EEF-5018-4FBA-9984-B24EB61DE206";
shapes = (
{
closed = 1;
nodes = (
(366,72,o),
(391,52,o),
(369,61,c),
(337,48,o),
(336,92,o),
(322,109,cs),
(295,144,o),
(261,207,o),
(207,272,c),
(190,307,o),
(166,356,o),
(138,395,c),
(125,429,o),
(88,481,o),
(77,485,c),
(67,510,o),
(52,498,o),
(42,535,c),
(48,567,o),
(105,555,o),
(129,507,c),
(154,479,o),
(181,414,o),
(225,354,c),
(216,360,o),
(230,312,o),
(277,303,c),
(273,288,o),
(294,239,o),
(294,254,c),
(333,203,o),
(376,166,o),
(393,81,c)
);
}
);
width = 433;
},
{
layerId = "33631C71-1333-4331-8A89-BDCD639A4A27";
shapes = (
{
closed = 1;
nodes = (
(456,10,o),
(384,-18,o),
(356,-10,c),
(334,7,o),
(315,34,o),
(290,76,c),
(272,142,o),
(248,185,o),
(203,267,c),
(178,330,o),
(104,383,o),
(93,448,c),
(83,474,o),
(35,529,o),
(31,556,c),
(-14,565,o),
(-15,578,o),
(13,614,c),
(28,645,o),
(120,609,o),
(160,556,c),
(188,488,o),
(217,439,o),
(225,389,c),
(254,347,o),
(290,319,o),
(291,271,c),
(344,247,o),
(337,223,o),
(348,206,c),
(401,142,o),
(429,87,o),
(424,36,c)
);
}
);
width = 433;
}
);
unicode = 92;
},
{
glyphname = hyphen;
lastChange = "2024-10-10 14:02:06 +0000";
layers = (
{
layerId = m01;
shapes = (
{
closed = 1;
nodes = (
(111,303,o),
(39,273,o),
(38,346,cs),
(38,416,o),
(174,390,o),
(192,383,c),
(225,400,o),
(391,409,o),
(372,361,c),
(386,329,o),
(296,301,o),
(294,312,c),
(267,290,o),
(206,277,o),
(131,301,c)
);
}
);
width = 414;
},
{
layerId = "3EED4E43-93E5-49B5-B4F5-8693E91ADEE2";
shapes = (
{
closed = 1;
nodes = (
(64,307,o),
(-60,244,o),
(-74,332,c),
(-82,436,o),
(113,384,o),
(150,407,c),
(223,407,o),
(426,469,o),
(404,421,c),
(426,330,o),
(328,322,o),
(290,304,c),
(249,298,o),
(168,277,o),
(110,296,c)
);
}
);
width = 414;
},
{
layerId = "B7F60EEF-5018-4FBA-9984-B24EB61DE206";
shapes = (
{
closed = 1;
nodes = (
(127,342,o),
(68,333,o),
(81,368,cs),
(111,441,o),
(189,392,o),
(188,361,c),
(213,376,o),
(347,399,o),
(343,333,c),
(314,317,o),
(256,286,o),
(225,289,c),
(236,304,o),
(200,333,o),
(173,312,c)
);
}
);
width = 414;
},
{
layerId = "33631C71-1333-4331-8A89-BDCD639A4A27";
shapes = (
{
closed = 1;
nodes = (
(140,302,o),
(88,249,o),
(72,367,c),
(90,458,o),
(170,405,o),
(207,389,c),
(226,396,o),
(328,474,o),
(325,378,c),
(330,270,o),
(286,275,o),
(255,278,cs),
(245,278,o),
(181,273,o),
(171,289,c)
);
}
);
width = 414;
}
);
unicode = 45;
},
{
glyphname = endash;
lastChange = "2024-10-10 14:02:05 +0000";
layers = (
{
layerId = m01;
shapes = (
{
closed = 1;
nodes = (
(68,286,o),
(49,299,c),
(32,336,o),
(61,349,o),
(92,361,c),
(122,394,o),
(194,380,o),
(237,365,c),
(307,384,o),
(345,373,o),
(386,403,cs),
(431,433,o),
(474,418,o),
(521,398,c),
(581,393,o),
(557,358,o),
(509,353,c),
(442,282,o),
(300,295,o),
(206,299,c),
(167,293,o)
);
}
);
width = 596;
},
{
layerId = "3EED4E43-93E5-49B5-B4F5-8693E91ADEE2";
shapes = (
{
closed = 1;
nodes = (
(31,300,o),
(19,332,c),
(-28,361,o),
(21,406,o),
(36,443,c),
(97,449,o),
(212,404,o),
(269,412,c),
(332,406,o),
(376,375,o),
(448,403,c),
(509,403,o),
(554,402,o),
(625,377,c),
(689,375,o),
(657,322,o),
(609,307,c),
(501,245,o),
(314,285,o),
(191,302,cs),
(109,312,o)
);
}
);
width = 596;
},
{
layerId = "B7F60EEF-5018-4FBA-9984-B24EB61DE206";
shapes = (
{
closed = 1;
nodes = (
(160,220,o),
(120,273,c),
(109,273,o),
(121,296,o),
(129,320,c),
(151,344,o),
(196,324,o),
(258,349,c),
(260,383,o),
(304,368,o),
(324,408,c),
(361,412,o),
(407,427,o),
(423,431,cs),
(470,443,o),
(466,402,o),
(426,404,c),
(375,339,o),
(319,303,o),
(226,293,c),
(196,279,o)
);
}
);
width = 596;
},
{
layerId = "33631C71-1333-4331-8A89-BDCD639A4A27";
shapes = (
{
closed = 1;
nodes = (
(16,302,o),
(16,331,c),
(-31,338,o),
(-7,361,o),
(27,357,c),
(81,371,o),
(160,361,o),
(234,357,c),
(303,364,o),
(368,367,o),
(403,379,c),
(472,383,o),
(535,384,o),
(562,378,c),
(633,371,o),
(606,361,o),
(562,337,c),
(481,310,o),
(288,319,o),
(187,315,cs),
(116,313,o)
);
}
);
width = 596;
}
);
unicode = 8211;
},
{
glyphname = emdash;
lastChange = "2024-10-10 14:02:04 +0000";
layers = (
{
layerId = m01;
shapes = (
{
closed = 1;
nodes = (
(588,311,o),
(407,318,o),
(244,284,c),
(202,290,o),
(80,277,o),
(58,324,c),
(-13,371,o),
(96,377,o),
(138,407,c),
(283,380,o),
(429,404,o),
(549,396,c),
(609,405,o),
(698,434,o),
(757,406,c),
(796,391,o),
(782,311,o),
(742,330,c)
);
}
);
width = 828;
},
{
layerId = "3EED4E43-93E5-49B5-B4F5-8693E91ADEE2";
shapes = (
{
closed = 1;
nodes = (
(643,330,o),
(462,331,o),
(282,292,c),
(212,311,o),
(78,264,o),
(17,336,c),
(-77,368,o),
(48,404,o),
(87,416,c),
(258,397,o),
(455,417,o),
(626,450,c),
(702,426,o),
(776,488,o),
(873,473,c),
(937,473,o),
(930,347,o),
(844,369,c)
);
}
);
width = 828;
},
{
layerId = "B7F60EEF-5018-4FBA-9984-B24EB61DE206";
shapes = (
{
closed = 1;
nodes = (
(555,286,o),
(426,304,o),
(286,306,c),
(227,315,o),
(147,343,o),
(107,377,c),
(87,431,o),
(158,442,o),
(176,401,c),
(316,387,o),
(421,370,o),
(546,358,c),
(573,341,o),
(660,383,o),
(710,352,c),
(745,326,o),
(723,250,o),
(660,282,c)
);
}
);
width = 828;
},
{
layerId = "33631C71-1333-4331-8A89-BDCD639A4A27";
shapes = (
{
closed = 1;
nodes = (
(565,292,o),
(420,248,o),
(274,267,c),
(232,280,o),
(137,239,o),
(99,308,c),
(41,394,o),
(137,428,o),
(169,422,c),
(290,365,o),
(400,446,o),
(527,417,c),
(598,422,o),
(655,449,o),
(705,442,c),
(757,421,o),
(759,269,o),
(684,296,c)
);
}
);
width = 828;
}
);
unicode = 8212;
},
{
glyphname = underscore;
lastChange = "2024-10-10 14:02:03 +0000";
layers = (
{
layerId = m01;
shapes = (
{
closed = 1;
nodes = (
(223,-147,o),
(153,-158,o),
(88,-108,c),
(51,-126,o),
(-1,-63,o),
(59,-52,c),
(89,-8,o),
(204,-13,o),
(238,-13,c),
(295,-39,o),
(372,6,o),
(458,10,c),
(486,3,o),
(485,5,o),
(522,-12,c),
(556,17,o),
(605,20,o),
(632,35,c),
(672,43,o),
(698,37,o),
(679,-41,c),
(654,-92,o),
(590,-69,o),
(520,-102,c),
(454,-99,o),
(348,-103,o),
(272,-120,c)
);
}
);
width = 733;
},
{
layerId = "3EED4E43-93E5-49B5-B4F5-8693E91ADEE2";
shapes = (
{
closed = 1;
nodes = (
(199,-118,o),
(77,-126,o),
(20,-59,c),
(-39,-62,o),
(-69,-22,o),
(6,11,c),
(60,45,o),
(130,20,o),
(203,14,c),
(301,-1,o),
(389,-2,o),
(455,11,c),
(511,0,o),
(552,-7,o),
(591,5,c),
(626,4,o),
(644,30,o),
(679,26,c),
(749,-3,o),
(805,-33,o),
(761,-72,cs),
(707,-121,o),
(622,-112,o),
(530,-105,c),
(434,-106,o),
(330,-129,o),
(242,-120,cs)
);
}
);
width = 733;
},
{
layerId = "B7F60EEF-5018-4FBA-9984-B24EB61DE206";
shapes = (
{
closed = 1;
nodes = (
(289,-127,o),
(234,-152,o),
(173,-136,c),
(157,-137,o),
(87,-109,o),
(148,-88,c),
(182,-49,o),
(235,-46,o),
(254,-60,c),
(323,-47,o),
(354,-13,o),
(428,-22,c),
(442,1,o),
(455,-8,o),
(494,19,cs),
(499,22,o),
(509,52,o),
(541,50,c),
(577,43,o),
(609,22,o),
(611,2,c),
(574,-60,o),
(516,-52,o),
(466,-63,c),
(432,-110,o),
(375,-125,o),
(304,-119,c)
);
}
);
width = 733;
},
{
layerId = "33631C71-1333-4331-8A89-BDCD639A4A27";
shapes = (
{
closed = 1;
nodes = (
(198,-91,o),
(122,-94,o),
(36,-91,c),
(-7,-87,o),
(-48,-54,o),
(22,-47,c),
(78,-22,o),
(149,-38,o),
(194,-42,c),
(298,-44,o),
(364,-28,o),
(438,-24,c),
(491,-25,o),
(530,-23,o),
(559,-15,c),
(603,-13,o),
(637,-2,o),
(655,5,c),
(720,1,o),
(787,-8,o),
(747,-38,cs),
(710,-67,o),
(594,-59,o),
(549,-79,c),
(457,-83,o),
(362,-80,o),
(293,-94,c)
);
}
);
width = 733;
}
);
unicode = 95;
},
{
glyphname = parenleft;
lastChange = "2024-10-10 14:02:19 +0000";
layers = (
{
layerId = m01;
shapes = (
{
closed = 1;
nodes = (
(295,696,o),
(250,666,o),
(232,613,c),
(192,568,o),
(156,547,o),
(159,470,c),
(134,403,o),
(103,297,o),
(108,237,c),
(110,150,o),
(176,80,o),
(237,16,c),
(279,2,o),
(358,-16,o),
(374,-51,c),
(391,-100,o),
(305,-127,o),
(248,-98,c),
(186,-97,o),
(104,22,o),
(92,83,c),
(39,167,o),
(38,266,o),
(55,385,c),
(62,470,o),
(122,590,o),
(152,678,c),
(168,692,o),
(307,846,o),
(301,737,c),
(290,741,o),
(304,757,o),
(304,751,c)
);
}
);
width = 401;
},
{
layerId = "3EED4E43-93E5-49B5-B4F5-8693E91ADEE2";
shapes = (
{
closed = 1;
nodes = (
(256,769,o),
(230,734,o),
(186,679,c),
(163,644,o),
(146,580,o),
(135,504,c),
(100,399,o),
(96,293,o),
(120,228,cs),
(163,94,o),
(224,23,o),
(291,-32,c),
(316,-61,o),
(429,-99,o),
(465,-115,c),
(480,-175,o),
(376,-164,o),
(348,-158,c),
(226,-163,o),
(131,-76,o),
(115,25,c),
(38,127,o),
(-1,254,o),
(9,387,cs),
(16,492,o),
(53,620,o),
(128,715,c),
(130,761,o),
(251,975,o),
(277,842,c),
(257,844,o),
(265,814,o),
(291,831,c)
);
}
);
width = 401;
},
{
layerId = "B7F60EEF-5018-4FBA-9984-B24EB61DE206";
shapes = (
{
closed = 1;
nodes = (
(311,599,o),
(289,587,o),
(242,549,c),
(240,546,o),
(198,496,o),
(188,466,c),
(168,387,o),
(141,324,o),
(119,259,cs),
(98,200,o),
(137,127,o),
(195,46,c),
(189,48,o),
(246,11,o),
(250,-15,c),
(265,-54,o),
(218,-52,o),
(163,-56,c),
(113,-29,o),
(76,82,o),
(67,121,c),
(37,205,o),
(62,334,o),
(85,380,c),
(120,487,o),
(175,557,o),
(238,606,c),
(231,646,o),
(371,727,o),
(344,668,c),
(356,664,o),
(347,662,o),
(353,633,c)
);
}
);
width = 401;
},
{
layerId = "33631C71-1333-4331-8A89-BDCD639A4A27";
shapes = (
{
closed = 1;
nodes = (
(267,727,o),
(230,678,o),
(209,631,c),
(204,594,o),
(173,553,o),
(177,483,c),
(149,397,o),
(126,313,o),
(131,217,c),
(156,120,o),
(190,46,o),
(238,-17,c),
(252,-51,o),
(308,-78,o),
(337,-80,c),
(343,-145,o),
(271,-159,o),
(247,-137,c),
(189,-106,o),
(138,-37,o),
(120,63,c),
(88,152,o),
(81,272,o),
(95,387,cs),
(109,485,o),
(122,586,o),
(159,697,c),
(177,733,o),
(277,891,o),
(272,772,c),
(278,786,o),
(289,768,o),
(280,778,c)
);
}
);
width = 401;
}
);
unicode = 40;
},
{
glyphname = parenright;
lastChange = "2024-10-10 14:02:20 +0000";
layers = (
{
layerId = m01;
shapes = (
{
closed = 1;
nodes = (
(327,379,o),
(315,470,o),
(250,550,c),
(232,590,o),
(192,646,o),
(159,662,cs),
(113,681,o),
(71,646,o),
(49,734,c),
(-1,892,o),
(192,757,o),
(229,727,c),
(329,666,o),
(393,527,o),
(388,435,c),
(429,322,o),
(400,198,o),
(345,119,c),
(346,42,o),
(301,13,o),
(240,2,c),
(235,-44,o),
(173,-99,o),
(158,-105,c),
(126,-94,o),
(105,-99,o),
(95,-118,c),
(66,-108,o),
(86,-115,o),
(69,-88,c),
(65,-88,o),
(103,-16,o),
(123,-17,c),
(188,97,o),
(292,170,o),
(319,288,c),
(328,266,o),
(324,276,o),
(298,277,c)
);
}
);
width = 450;
},
{
layerId = "3EED4E43-93E5-49B5-B4F5-8693E91ADEE2";
shapes = (
{
closed = 1;
nodes = (
(349,367,o),
(341,492,o),
(249,581,c),
(254,607,o),
(176,652,o),
(147,696,c),
(73,703,o),
(37,684,o),
(28,771,c),
(26,926,o),
(212,807,o),
(259,749,c),
(364,677,o),
(427,527,o),
(428,413,c),
(466,305,o),
(417,170,o),
(378,68,c),
(319,41,o),
(297,-9,o),
(249,-41,c),
(205,-92,o),
(153,-145,o),
(115,-149,c),
(114,-172,o),
(58,-158,o),
(52,-155,c),
(14,-151,o),
(3,-174,o),
(11,-130,c),
(-1,-116,o),
(64,-42,o),
(120,-17,c),
(170,45,o),
(299,136,o),
(345,269,c),
(335,266,o),
(312,267,o),
(307,251,cs)
);
}
);
width = 450;
},
{
layerId = "B7F60EEF-5018-4FBA-9984-B24EB61DE206";
shapes = (
{
closed = 1;
nodes = (
(300,363,o),
(281,454,o),
(240,514,c),
(212,568,o),
(165,575,o),
(144,622,c),
(82,611,o),
(76,618,o),
(52,671,c),
(22,784,o),
(184,706,o),
(193,664,c),
(260,610,o),
(306,504,o),
(342,411,cs),
(376,325,o),
(391,251,o),
(373,168,cs),
(361,107,o),
(317,80,o),
(319,53,c),
(308,3,o),
(273,-55,o),
(263,-66,c),
(242,-58,o),
(228,-68,o),
(212,-91,c),
(213,-64,o),
(209,-87,o),
(207,-83,cs),
(173,-27,o),
(238,11,o),
(238,45,c),
(262,95,o),
(326,215,o),
(299,308,c),
(286,318,o),
(300,279,o),
(282,310,c)
);
}
);
width = 450;
},
{
layerId = "33631C71-1333-4331-8A89-BDCD639A4A27";
shapes = (
{
closed = 1;
nodes = (
(328,365,o),
(319,461,o),
(264,538,c),
(226,566,o),
(192,605,o),
(132,605,c),
(79,641,o),
(43,623,o),
(20,668,c),
(-31,800,o),
(185,707,o),
(265,672,c),
(354,605,o),
(415,491,o),
(428,424,c),
(468,321,o),
(430,241,o),
(387,141,c),
(333,100,o),
(297,69,o),
(264,38,c),
(228,24,o),
(199,-12,o),
(146,-30,c),
(137,-42,o),
(94,-47,o),
(63,-38,c),
(37,-38,o),
(38,-63,o),
(30,-34,c),
(36,-16,o),
(104,35,o),
(113,61,c),
(203,113,o),
(318,203,o),
(335,298,c),
(316,293,o),
(316,307,o),
(324,298,c)
);
}
);
width = 450;
}
);
unicode = 41;
},
{
glyphname = braceleft;
lastChange = "2024-10-10 14:02:21 +0000";
layers = (
{
layerId = m01;
shapes = (
{
closed = 1;
nodes = (
(114,120,o),
(109,139,o),
(149,193,c),
(181,264,o),
(109,240,o),
(89,268,c),
(65,268,o),
(42,329,o),
(47,371,c),
(47,389,o),
(135,354,o),
(118,397,c),
(128,433,o),
(120,451,o),
(114,486,c),
(81,518,o),
(33,593,o),
(65,609,c),
(88,671,o),
(83,714,o),
(111,728,c),
(158,733,o),
(224,782,o),
(227,801,c),
(272,790,o),
(300,772,o),
(319,757,c),
(304,703,o),
(224,691,o),
(196,680,c),
(190,657,o),
(125,613,o),
(167,548,c),
(158,510,o),
(222,473,o),
(217,442,c),
(219,399,o),
(231,386,o),
(212,353,c),
(227,362,o),
(178,346,o),
(190,306,c),
(198,287,o),
(257,240,o),
(252,233,c),
(260,153,o),
(143,19,o),
(198,-18,cs),
(267,-62,o),
(327,-16,o),
(318,-57,c),
(352,-103,o),
(302,-137,o),
(261,-137,c),
(193,-144,o),
(91,-29,o),
(92,32,c)
);
}
);
width = 376;
},
{
layerId = "3EED4E43-93E5-49B5-B4F5-8693E91ADEE2";
shapes = (
{
closed = 1;
nodes = (
(107,74,o),
(144,113,o),
(140,167,c),
(165,240,o),
(105,229,o),
(72,229,c),
(28,242,o),
(-6,299,o),
(21,341,cs),
(48,384,o),
(100,340,o),
(105,399,c),
(125,428,o),
(64,476,o),
(47,491,c),
(2,549,o),
(-11,572,o),
(-5,631,c),
(20,684,o),
(14,734,o),
(48,769,cs),
(79,805,o),
(135,840,o),
(213,861,c),
(242,878,o),
(289,856,o),
(274,791,c),
(306,776,o),
(215,730,o),
(164,707,c),
(128,674,o),
(87,643,o),
(138,574,c),
(129,538,o),
(175,497,o),
(207,472,c),
(250,415,o),
(250,395,o),
(223,369,c),
(223,369,o),
(214,354,o),
(192,327,c),
(218,289,o),
(255,239,o),
(266,221,cs),
(311,139,o),
(176,-22,o),
(273,-58,c),
(318,-71,o),
(414,-23,o),
(432,-105,c),
(456,-116,o),
(367,-187,o),
(354,-169,c),
(237,-225,o),
(132,-82,o),
(118,22,c)
);
}
);
width = 376;
},
{
layerId = "B7F60EEF-5018-4FBA-9984-B24EB61DE206";
shapes = (
{
closed = 1;
nodes = (
(83,167,o),
(108,191,o),
(124,212,c),
(187,275,o),
(146,251,o),
(118,290,c),
(114,292,o),
(84,339,o),
(126,370,c),
(128,402,o),
(156,344,o),
(171,391,c),
(196,405,o),
(188,439,o),
(183,472,c),
(161,506,o),
(178,554,o),
(186,570,c),
(182,617,o),
(229,625,o),
(231,637,c),
(264,674,o),
(312,670,o),
(314,695,c),
(355,684,o),
(380,642,o),
(355,608,c),
(341,579,o),
(291,581,o),
(274,605,c),
(254,571,o),
(218,564,o),
(246,523,c),
(215,483,o),
(242,454,o),
(240,403,c),
(258,378,o),
(257,348,o),
(218,331,c),
(240,352,o),
(214,321,o),
(189,312,c),
(199,280,o),
(208,255,o),
(209,247,c),
(233,181,o),
(77,96,o),
(150,20,c),
(151,-14,o),
(225,5,o),
(230,-10,c),
(219,-39,o),
(167,-55,o),
(141,-76,c),
(76,-49,o),
(54,38,o),
(74,107,c)
);
}
);
width = 376;
},
{
layerId = "33631C71-1333-4331-8A89-BDCD639A4A27";
shapes = (
{
closed = 1;
nodes = (
(108,97,o),
(145,126,o),
(137,177,c),
(159,234,o),
(114,247,o),
(103,259,c),
(89,281,o),
(61,321,o),
(71,365,c),
(80,381,o),
(121,371,o),
(147,425,c),
(136,440,o),
(135,480,o),
(119,508,c),
(98,570,o),
(84,602,o),
(82,665,c),
(87,698,o),
(103,730,o),
(139,749,c),
(160,776,o),
(207,828,o),
(240,821,c),
(257,822,o),
(282,793,o),
(271,785,c),
(287,726,o),
(234,719,o),
(216,706,c),
(186,689,o),
(153,638,o),
(172,601,c),
(175,541,o),
(212,483,o),
(205,442,c),
(211,429,o),
(223,413,o),
(231,368,c),
(227,366,o),
(179,345,o),
(196,316,c),
(195,298,o),
(223,236,o),
(241,217,c),
(248,127,o),
(147,-9,o),
(219,-78,c),
(229,-77,o),
(293,-58,o),
(307,-94,c),
(306,-129,o),
(280,-163,o),
(245,-167,c),
(169,-215,o),
(114,-59,o),
(116,28,c)
);
}
);
width = 376;
}
);
unicode = 123;
},
{
glyphname = braceright;
lastChange = "2024-10-10 14:02:22 +0000";
layers = (
{
layerId = m01;
shapes = (
{
closed = 1;
nodes = (
(259,553,o),
(236,504,o),
(203,469,c),
(176,465,o),
(166,398,o),
(190,399,c),
(243,361,o),
(263,368,o),
(285,343,c),
(275,267,o),
(240,297,o),
(214,232,c),
(196,230,o),
(235,168,o),
(285,180,c),
(268,119,o),
(274,63,o),
(268,18,cs),
(261,-23,o),
(170,-156,o),
(111,-109,c),
(43,-105,o),
(74,-56,o),
(116,-40,c),
(157,-31,o),
(191,22,o),
(191,72,c),
(203,90,o),
(204,114,o),
(177,148,c),
(158,187,o),
(111,201,o),
(109,246,c),
(115,255,o),
(136,293,o),
(115,310,c),
(140,340,o),
(118,333,o),
(99,359,c),
(93,384,o),
(72,433,o),
(75,486,c),
(105,491,o),
(132,524,o),
(152,591,c),
(178,596,o),
(184,662,o),
(151,658,c),
(119,682,o),
(80,647,o),
(45,695,c),
(9,754,o),
(65,763,o),
(118,778,c),
(197,781,o),
(272,672,o),
(272,597,c)
);
}
);
width = 319;
},
{
layerId = "3EED4E43-93E5-49B5-B4F5-8693E91ADEE2";
shapes = (
{
closed = 1;
nodes = (
(329,571,o),
(278,521,o),
(225,480,c),
(212,455,o),
(162,428,o),
(208,408,c),
(238,372,o),
(293,345,o),
(319,309,c),
(320,264,o),
(249,256,o),
(213,222,c),
(216,208,o),
(270,146,o),
(287,139,c),
(304,80,o),
(284,27,o),
(258,-46,c),
(221,-105,o),
(109,-226,o),
(15,-176,c),
(-26,-146,o),
(24,-116,o),
(54,-110,c),
(103,-54,o),
(122,-28,o),
(177,-7,c),
(187,57,o),
(175,109,o),
(144,131,c),
(113,149,o),
(77,161,o),
(82,239,c),
(117,250,o),
(139,306,o),
(136,311,c),
(129,337,o),
(86,341,o),
(109,342,c),
(61,379,o),
(89,465,o),
(71,481,c),
(102,531,o),
(165,595,o),
(205,597,c),
(217,657,o),
(238,696,o),
(168,743,c),
(143,728,o),
(61,708,o),
(53,753,cs),
(36,829,o),
(112,841,o),
(156,845,c),
(273,837,o),
(359,738,o),
(316,644,c)
);
}
);
width = 319;
},
{
layerId = "B7F60EEF-5018-4FBA-9984-B24EB61DE206";
shapes = (
{
closed = 1;
nodes = (
(206,524,o),
(181,494,o),
(175,454,c),
(157,409,o),
(136,391,o),
(178,375,cs),
(175,376,o),
(222,366,o),
(222,349,c),
(254,289,o),
(210,307,o),
(215,272,c),
(197,241,o),
(253,228,o),
(251,184,cs),
(251,152,o),
(261,142,o),
(272,74,c),
(259,56,o),
(209,-54,o),
(140,-18,c),
(106,-27,o),
(138,6,o),
(168,12,c),
(169,61,o),
(208,55,o),
(219,130,c),
(193,137,o),
(223,159,o),
(198,187,c),
(170,188,o),
(148,205,o),
(134,236,c),
(116,267,o),
(144,308,o),
(116,313,c),
(122,317,o),
(121,301,o),
(93,319,c),
(80,360,o),
(61,389,o),
(95,417,c),
(81,475,o),
(116,493,o),
(126,527,c),
(157,537,o),
(137,595,o),
(90,598,c),
(70,595,o),
(23,549,o),
(11,590,c),
(3,631,o),
(44,655,o),
(65,659,c),
(112,680,o),
(215,621,o),
(201,566,c)
);
}
);
width = 319;
},
{
layerId = "33631C71-1333-4331-8A89-BDCD639A4A27";
shapes = (
{
closed = 1;
nodes = (
(289,526,o),
(262,499,o),
(200,463,c),
(188,443,o),
(164,395,o),
(215,388,c),
(228,377,o),
(316,372,o),
(321,332,c),
(318,280,o),
(245,296,o),
(245,249,c),
(228,242,o),
(278,210,o),
(297,183,c),
(322,128,o),
(314,108,o),
(295,47,c),
(267,13,o),
(166,-88,o),
(73,-72,c),
(29,-54,o),
(64,-14,o),
(90,6,c),
(131,24,o),
(160,52,o),
(210,84,c),
(209,117,o),
(233,159,o),
(182,163,c),
(142,188,o),
(96,200,o),
(104,269,cs),
(104,271,o),
(130,289,o),
(143,324,c),
(124,334,o),
(101,335,o),
(110,331,c),
(65,366,o),
(78,413,o),
(71,463,c),
(103,495,o),
(124,513,o),
(158,543,c),
(203,568,o),
(215,616,o),
(140,616,c),
(92,639,o),
(28,626,o),
(29,652,c),
(-15,684,o),
(39,715,o),
(90,721,c),
(200,711,o),
(293,657,o),
(310,572,c)
);
}
);
width = 319;
}
);
unicode = 125;
},
{
glyphname = bracketleft;
lastChange = "2024-10-10 14:05:51 +0000";
layers = (
{
layerId = m01;
shapes = (
{
closed = 1;
nodes = (
(39,42,o),
(29,95,o),
(61,126,c),
(75,177,o),
(56,260,o),
(67,300,c),
(81,421,o),
(105,492,o),
(90,642,c),
(83,674,o),
(92,696,o),
(140,732,c),
(160,728,o),
(232,741,o),
(253,756,c),
(303,746,o),
(359,756,o),
(383,693,c),
(414,665,o),
(420,642,o),
(361,611,cs),
(347,604,o),
(312,644,o),
(322,640,c),
(287,625,o),
(255,638,o),
(252,614,c),
(236,624,o),
(218,604,o),
(211,577,c),
(186,560,o),
(198,532,o),
(189,517,c),
(207,418,o),
(171,322,o),
(161,249,c),
(161,215,o),
(169,147,o),
(136,100,c),
(160,92,o),
(142,28,o),
(148,26,cs),
(171,16,o),
(237,13,o),
(298,7,c),
(304,5,o),
(348,11,o),
(386,19,c),
(387,4,o),
(402,41,o),
(449,9,c),
(501,-8,o),
(421,-75,o),
(372,-69,c),
(328,-98,o),
(255,-105,o),
(234,-87,c),
(192,-101,o),
(164,-86,o),
(133,-100,c),
(118,-85,o),
(111,-83,o),
(79,-104,c),
(45,-89,o),
(45,-22,o),
(42,11,c),
(60,-3,o),
(29,-11,o),
(32,19,c)
);
}
);
width = 489;
},
{
layerId = "3EED4E43-93E5-49B5-B4F5-8693E91ADEE2";
shapes = (
{
closed = 1;
nodes = (
(55,-4,o),
(35,21,o),
(49,74,cs),
(62,131,o),
(71,199,o),
(81,250,c),
(50,392,o),
(88,519,o),
(34,653,c),
(58,695,o),
(7,700,o),
(56,756,c),
(113,760,o),
(174,770,o),
(199,815,c),
(253,803,o),
(313,806,o),
(356,788,c),
(372,737,o),
(376,671,o),
(353,673,c),
(328,654,o),
(287,686,o),
(257,671,c),
(240,670,o),
(219,687,o),
(217,681,c),
(199,656,o),
(180,651,o),
(171,611,c),
(165,605,o),
(159,558,o),
(175,527,c),
(185,419,o),
(167,339,o),
(187,215,c),
(186,180,o),
(183,108,o),
(187,54,c),
(205,34,o),
(158,-31,o),
(198,-23,c),
(226,-51,o),
(296,-12,o),
(346,-38,c),
(356,-19,o),
(406,-21,o),
(416,0,c),
(471,-29,o),
(474,-7,o),
(520,-19,c),
(577,-38,o),
(504,-93,o),
(473,-121,cs),
(427,-163,o),
(353,-167,o),
(307,-169,c),
(270,-165,o),
(237,-175,o),
(186,-148,c),
(185,-176,o),
(139,-189,o),
(145,-187,c),
(69,-172,o),
(72,-113,o),
(59,-69,c),
(80,-59,o),
(62,-43,o),
(91,-47,c)
);
}
);
width = 489;
},
{
layerId = "B7F60EEF-5018-4FBA-9984-B24EB61DE206";
shapes = (
{
closed = 1;
nodes = (
(58,124,o),
(38,175,o),
(73,171,c),
(100,245,o),
(105,274,o),
(123,304,c),
(134,405,o),
(166,511,o),
(187,573,c),
(192,614,o),
(169,635,o),
(227,666,c),
(223,672,o),
(291,680,o),
(332,686,c),
(341,666,o),
(408,655,o),
(422,624,c),
(410,603,o),
(399,572,o),
(376,560,c),
(365,549,o),
(362,585,o),
(334,558,c),
(307,577,o),
(327,557,o),
(289,564,c),
(275,575,o),
(256,573,o),
(236,534,c),
(229,527,o),
(228,500,o),
(231,466,cs),
(237,410,o),
(221,343,o),
(203,263,c),
(167,217,o),
(162,193,o),
(143,168,c),
(141,116,o),
(126,101,o),
(123,76,c),
(144,54,o),
(231,56,o),
(225,62,c),
(241,58,o),
(278,25,o),
(310,32,c),
(313,36,o),
(333,43,o),
(349,40,c),
(398,22,o),
(327,-33,o),
(316,-50,c),
(264,-42,o),
(208,-40,o),
(195,-50,c),
(154,-26,o),
(130,-42,o),
(123,-9,c),
(102,-26,o),
(74,-5,o),
(48,-27,c),
(54,-5,o),
(39,34,o),
(31,66,c),
(46,82,o),
(54,70,o),
(67,65,c)
);
}
);
width = 489;
},
{
layerId = "33631C71-1333-4331-8A89-BDCD639A4A27";
shapes = (
{
closed = 1;
nodes = (
(99,10,o),
(69,76,o),
(80,118,c),
(105,168,o),
(113,235,o),
(116,299,cs),
(117,418,o),
(141,549,o),
(129,676,c),
(143,721,o),
(124,723,o),
(163,765,c),
(190,768,o),
(241,802,o),
(261,796,c),
(306,812,o),
(344,787,o),
(365,735,c),
(395,721,o),
(384,659,o),
(351,651,c),
(333,644,o),
(312,681,o),
(297,687,c),
(281,684,o),
(281,681,o),
(255,676,c),
(228,654,o),
(240,659,o),
(214,636,c),
(210,611,o),
(217,549,o),
(220,547,c),
(214,437,o),
(207,328,o),
(199,253,c),
(199,182,o),
(182,119,o),
(171,84,c),
(173,44,o),
(163,24,o),
(173,-9,c),
(187,-23,o),
(243,-28,o),
(275,-21,c),
(299,-23,o),
(317,-46,o),
(333,-24,c),
(358,-13,o),
(383,4,o),
(396,-9,cs),
(437,-54,o),
(375,-119,o),
(357,-128,c),
(316,-156,o),
(268,-151,o),
(239,-139,c),
(196,-163,o),
(200,-134,o),
(166,-126,cs),
(144,-123,o),
(126,-162,o),
(121,-141,c),
(93,-136,o),
(76,-82,o),
(81,-47,c),
(93,-19,o),
(85,-24,o),
(80,-17,c)
);
}
);
width = 489;
}
);
unicode = 91;
},
{
glyphname = bracketright;
lastChange = "2024-10-10 14:05:37 +0000";
layers = (
{
layerId = m01;
shapes = (
{
closed = 1;
nodes = (
(197,148,o),
(204,264,o),
(227,334,c),
(213,380,o),
(227,424,o),
(245,485,c),
(247,505,o),
(264,598,o),
(227,634,c),
(216,631,o),
(163,627,o),
(112,632,c),
(71,602,o),
(47,625,o),
(58,687,c),
(50,750,o),
(81,745,o),
(128,709,c),
(132,698,o),
(176,737,o),
(254,725,c),
(258,713,o),
(285,736,o),
(320,704,c),
(344,689,o),
(329,630,o),
(315,590,c),
(308,527,o),
(295,438,o),
(311,319,c),
(281,243,o),
(250,167,o),
(296,96,c),
(275,57,o),
(278,35,o),
(321,-17,c),
(329,-32,o),
(314,-87,o),
(273,-90,c),
(241,-84,o),
(228,-55,o),
(186,-49,c),
(151,-39,o),
(111,-65,o),
(45,-26,c),
(49,22,o),
(109,36,o),
(148,29,c),
(175,41,o),
(205,29,o),
(189,75,c),
(215,69,o),
(213,71,o),
(191,81,c)
);
}
);
width = 369;
},
{
layerId = "3EED4E43-93E5-49B5-B4F5-8693E91ADEE2";
shapes = (
{
closed = 1;
nodes = (
(167,144,o),
(212,237,o),
(222,315,cs),
(236,393,o),
(267,449,o),
(280,499,c),
(278,537,o),
(279,604,o),
(293,667,c),
(288,687,o),
(165,648,o),
(139,657,c),
(102,692,o),
(42,711,o),
(40,761,c),
(67,813,o),
(99,822,o),
(138,810,c),
(203,783,o),
(255,764,o),
(326,789,c),
(369,787,o),
(376,762,o),
(387,734,c),
(424,714,o),
(409,662,o),
(412,626,c),
(358,516,o),
(362,417,o),
(318,312,c),
(290,233,o),
(266,150,o),
(271,33,c),
(264,-5,o),
(275,-61,o),
(272,-92,c),
(280,-114,o),
(266,-153,o),
(245,-171,c),
(186,-179,o),
(159,-117,o),
(142,-127,c),
(98,-95,o),
(7,-116,o),
(-34,-64,c),
(-61,3,o),
(58,-9,o),
(69,6,c),
(130,-12,o),
(182,-22,o),
(185,29,c),
(151,23,o),
(177,51,o),
(181,51,c)
);
}
);
width = 369;
},
{
layerId = "B7F60EEF-5018-4FBA-9984-B24EB61DE206";
shapes = (
{
closed = 1;
nodes = (
(221,167,o),
(222,256,o),
(193,335,c),
(178,368,o),
(171,416,o),
(194,457,c),
(185,495,o),
(201,539,o),
(177,552,c),
(174,596,o),
(114,539,o),
(75,549,c),
(66,548,o),
(10,541,o),
(26,597,c),
(-5,625,o),
(27,654,o),
(63,630,c),
(99,635,o),
(119,665,o),
(169,665,c),
(201,683,o),
(212,667,o),
(210,639,c),
(258,645,o),
(251,586,o),
(236,571,c),
(253,489,o),
(245,414,o),
(277,356,c),
(263,267,o),
(268,188,o),
(273,142,c),
(308,103,o),
(308,94,o),
(323,40,c),
(335,17,o),
(323,18,o),
(298,9,c),
(280,-35,o),
(263,-1,o),
(234,-4,c),
(191,-12,o),
(163,-42,o),
(119,10,c),
(112,31,o),
(165,48,o),
(207,88,c),
(212,71,o),
(236,64,o),
(228,77,c),
(245,87,o),
(244,101,o),
(217,115,c)
);
}
);
width = 369;
},
{
layerId = "33631C71-1333-4331-8A89-BDCD639A4A27";
shapes = (
{
closed = 1;
nodes = (
(199,210,o),
(195,244,o),
(208,333,c),
(245,378,o),
(230,434,o),
(223,462,c),
(253,477,o),
(255,578,o),
(226,577,c),
(236,595,o),
(145,578,o),
(94,574,cs),
(61,572,o),
(7,595,o),
(3,646,c),
(26,683,o),
(53,694,o),
(99,695,c),
(152,662,o),
(201,684,o),
(233,679,c),
(272,689,o),
(316,700,o),
(330,681,cs),
(374,628,o),
(344,621,o),
(353,588,c),
(356,500,o),
(324,397,o),
(301,336,c),
(311,245,o),
(293,190,o),
(292,113,c),
(301,75,o),
(299,60,o),
(332,33,c),
(348,3,o),
(331,-21,o),
(280,-50,cs),
(266,-59,o),
(219,-32,o),
(193,-8,c),
(148,-26,o),
(69,-26,o),
(56,3,c),
(-12,63,o),
(92,65,o),
(115,63,cs),
(181,52,o),
(196,47,o),
(207,94,c),
(224,102,o),
(214,127,o),
(202,152,c)
);
}
);
width = 369;
}
);
unicode = 93;
},
{
glyphname = quotedblleft;
lastChange = "2024-10-10 14:04:58 +0000";
layers = (
{
layerId = m01;
shapes = (
{
closed = 1;
nodes = (
(139,644,o),
(138,608,o),
(123,592,c),
(124,548,o),
(138,535,o),
(127,511,c),
(130,486,o),
(123,480,o),
(165,469,c),
(149,462,o),
(175,460,o),
(183,448,c),
(157,443,o),
(136,449,o),
(147,429,c),
(97,456,o),
(52,464,o),
(46,503,c),
(41,568,o),
(51,690,o),
(85,708,c),
(130,716,o),
(163,727,o),
(209,718,c),
(219,697,o),
(244,659,o),
(205,666,c)
);
},
{
closed = 1;
nodes = (
(449,609,o),
(397,621,o),
(376,609,c),
(362,577,o),
(343,517,o),
(360,520,c),
(360,500,o),
(384,474,o),
(371,459,c),
(367,448,o),
(332,444,o),
(318,458,cs),
(262,516,o),
(279,590,o),
(311,629,c),
(342,692,o),
(434,718,o),
(454,651,c)
);
}
);
width = 483;
},
{
layerId = "3EED4E43-93E5-49B5-B4F5-8693E91ADEE2";
shapes = (
{
closed = 1;
nodes = (
(36,676,o),
(21,639,o),
(19,612,c),
(31,605,o),
(15,577,o),
(29,551,c),
(36,533,o),
(79,536,o),
(98,500,c),
(82,504,o),
(104,494,o),
(78,471,c),
(85,431,o),
(75,444,o),
(64,462,c),
(17,481,o),
(-35,475,o),
(-47,513,c),
(-102,581,o),
(-70,682,o),
(6,717,c),
(34,754,o),
(85,786,o),
(140,787,c),
(180,740,o),
(187,694,o),
(115,680,c)
);
},
{
closed = 1;
nodes = (
(471,684,o),
(417,683,o),
(391,677,c),
(373,637,o),
(379,576,o),
(364,552,c),
(395,509,o),
(423,536,o),
(386,496,c),
(379,464,o),
(313,486,o),
(287,496,c),
(250,537,o),
(259,657,o),
(318,684,c),
(328,739,o),
(471,815,o),
(482,704,c)
);
}
);
width = 483;
},
{
layerId = "B7F60EEF-5018-4FBA-9984-B24EB61DE206";
shapes = (
{
closed = 1;
nodes = (
(185,641,o),
(188,641,o),
(154,604,c),
(161,564,o),
(153,567,o),
(171,562,c),
(147,522,o),
(165,518,o),
(174,516,c),
(185,501,o),
(164,475,o),
(177,480,c),
(158,469,o),
(142,463,o),
(153,485,c),
(116,488,o),
(102,518,o),
(99,555,c),
(75,607,o),
(112,682,o),
(174,703,c),
(176,713,o),
(213,729,o),
(247,725,c),
(270,680,o),
(264,644,o),
(217,644,c)
);
},
{
closed = 1;
nodes = (
(397,566,o),
(356,590,o),
(347,593,c),
(333,545,o),
(325,534,o),
(321,501,cs),
(314,457,o),
(328,476,o),
(312,442,c),
(281,419,o),
(288,452,o),
(254,467,c),
(236,507,o),
(273,604,o),
(300,641,c),
(344,668,o),
(407,676,o),
(386,615,c)
);
}
);
width = 483;
},
{
layerId = "33631C71-1333-4331-8A89-BDCD639A4A27";
shapes = (
{
closed = 1;
nodes = (
(147,683,o),
(140,648,o),
(151,584,c),
(148,554,o),
(144,550,o),
(147,522,c),
(149,490,o),
(170,467,o),
(177,476,c),
(184,431,o),
(187,421,o),
(167,429,c),
(167,392,o),
(154,403,o),
(140,433,c),
(130,425,o),
(88,464,o),
(92,495,c),
(59,579,o),
(78,680,o),
(127,721,cs),
(148,741,o),
(184,763,o),
(197,762,c),
(221,749,o),
(248,661,o),
(188,661,c)
);
},
{
closed = 1;
nodes = (
(413,608,o),
(375,649,o),
(357,612,c),
(337,584,o),
(337,521,o),
(349,482,c),
(349,454,o),
(372,452,o),
(346,428,c),
(337,392,o),
(306,414,o),
(291,436,c),
(272,513,o),
(278,619,o),
(309,649,c),
(338,694,o),
(406,762,o),
(411,676,cs)
);
}
);
width = 483;
}
);
unicode = 8220;
},
{
glyphname = quotedblright;
lastChange = "2024-10-10 14:02:26 +0000";
layers = (
{
layerId = m01;
shapes = (
{
closed = 1;
nodes = (
(362,572,o),
(370,591,o),
(308,639,c),
(283,682,o),
(255,641,o),
(215,668,c),
(195,664,o),
(179,708,o),
(204,717,c),
(214,728,o),
(253,758,o),
(285,720,c),
(342,716,o),
(348,717,o),
(420,672,c),
(480,555,o),
(441,460,o),
(376,348,c),
(369,373,o),
(346,340,o),
(342,344,c),
(324,335,o),
(293,365,o),
(289,373,c),
(285,369,o),
(315,375,o),
(318,391,c),
(372,448,o),
(378,485,o),
(392,520,c)
);
},
{
closed = 1;
nodes = (
(96,635,o),
(90,618,o),
(70,654,c),
(66,658,o),
(51,655,o),
(53,663,c),
(57,704,o),
(158,714,o),
(168,665,c),
(199,661,o),
(246,636,o),
(233,635,c),
(262,570,o),
(259,517,o),
(270,481,c),
(248,453,o),
(198,404,o),
(188,415,c),
(153,406,o),
(129,403,o),
(117,446,c),
(125,460,o),
(155,445,o),
(156,485,c),
(212,507,o),
(208,565,o),
(176,567,c),
(172,600,o),
(117,648,o),
(111,645,cs)
);
}
);
width = 488;
},
{
layerId = "3EED4E43-93E5-49B5-B4F5-8693E91ADEE2";
shapes = (
{
closed = 1;
nodes = (
(437,612,o),
(389,606,o),
(356,661,c),
(327,701,o),
(270,668,o),
(240,712,c),
(218,703,o),
(240,739,o),
(225,728,c),
(250,784,o),
(306,785,o),
(317,751,c),
(361,720,o),
(401,714,o),
(456,660,c),
(521,557,o),
(507,423,o),
(419,373,c),
(411,349,o),
(373,339,o),
(386,352,c),
(370,352,o),
(327,365,o),
(345,352,c),
(303,375,o),
(356,400,o),
(363,418,c),
(394,422,o),
(417,495,o),
(435,548,c)
);
},
{
closed = 1;
nodes = (
(119,655,o),
(80,666,o),
(88,654,c),
(51,670,o),
(71,701,o),
(65,705,c),
(89,772,o),
(158,739,o),
(211,722,c),
(254,691,o),
(266,651,o),
(291,630,c),
(324,611,o),
(323,541,o),
(308,511,c),
(277,464,o),
(224,429,o),
(177,426,c),
(198,438,o),
(160,438,o),
(139,436,c),
(137,483,o),
(193,487,o),
(189,477,c),
(212,517,o),
(222,574,o),
(232,613,c),
(224,655,o),
(165,666,o),
(114,672,c)
);
}
);
width = 488;
},
{
layerId = "B7F60EEF-5018-4FBA-9984-B24EB61DE206";
shapes = (
{
closed = 1;
nodes = (
(316,587,o),
(330,601,o),
(287,597,c),
(273,635,o),
(227,606,o),
(227,633,c),
(217,637,o),
(218,633,o),
(200,664,c),
(198,674,o),
(240,667,o),
(235,665,c),
(277,665,o),
(319,655,o),
(338,641,c),
(367,602,o),
(400,507,o),
(358,433,c),
(344,438,o),
(339,437,o),
(353,447,c),
(345,434,o),
(301,424,o),
(326,446,c),
(292,454,o),
(323,455,o),
(308,440,c),
(342,484,o),
(335,505,o),
(320,547,c)
);
},
{
closed = 1;
nodes = (
(159,575,o),
(164,586,o),
(120,605,c),
(151,597,o),
(114,593,o),
(116,612,c),
(145,640,o),
(186,626,o),
(213,608,c),
(203,617,o),
(237,599,o),
(247,606,c),
(282,589,o),
(274,527,o),
(287,513,c),
(268,474,o),
(238,467,o),
(220,451,c),
(215,457,o),
(214,432,o),
(191,473,c),
(224,462,o),
(223,499,o),
(220,489,c),
(247,521,o),
(231,562,o),
(217,547,c),
(207,590,o),
(198,579,o),
(177,569,c)
);
}
);
width = 488;
},
{
layerId = "33631C71-1333-4331-8A89-BDCD639A4A27";
shapes = (
{
closed = 1;
nodes = (
(389,577,o),
(364,586,o),
(319,629,c),
(291,640,o),
(248,628,o),
(201,648,c),
(197,652,o),
(169,657,o),
(183,690,c),
(212,698,o),
(258,700,o),
(258,688,c),
(329,669,o),
(392,655,o),
(435,628,c),
(494,554,o),
(494,472,o),
(383,411,c),
(367,389,o),
(382,391,o),
(350,388,c),
(341,396,o),
(310,391,o),
(325,397,c),
(302,407,o),
(302,417,o),
(312,422,c),
(355,453,o),
(411,499,o),
(396,541,c)
);
},
{
closed = 1;
nodes = (
(77,622,o),
(38,616,o),
(29,615,c),
(28,639,o),
(5,635,o),
(17,653,c),
(38,675,o),
(135,667,o),
(168,662,c),
(194,642,o),
(241,632,o),
(253,602,c),
(277,565,o),
(280,538,o),
(252,511,c),
(238,486,o),
(194,427,o),
(168,431,c),
(153,421,o),
(128,436,o),
(125,450,cs),
(117,477,o),
(136,484,o),
(167,476,c),
(185,501,o),
(197,543,o),
(193,580,c),
(158,598,o),
(135,601,o),
(74,618,c)
);
}
);
width = 488;
}
);
unicode = 8221;
},
{
glyphname = quoteleft;
lastChange = "2024-10-10 14:04:51 +0000";
layers = (
{
layerId = m01;
shapes = (
{
closed = 1;
nodes = (
(27,647,o),
(187,779,o),
(236,703,cs),
(253,674,o),
(186,646,o),
(173,633,c),
(138,609,o),
(122,610,o),
(116,560,c),
(102,528,o),
(160,499,o),
(192,479,c),
(192,490,o),
(203,427,o),
(167,437,c),
(177,439,o),
(122,426,o),
(138,443,c),
(115,461,o),
(88,445,o),
(103,459,c),
(64,480,o),
(50,538,o),
(52,582,c)
);
}
);
width = 275;
},
{
layerId = "3EED4E43-93E5-49B5-B4F5-8693E91ADEE2";
shapes = (
{
closed = 1;
nodes = (
(9,663,o),
(149,827,o),
(227,758,c),
(268,735,o),
(186,706,o),
(171,683,c),
(126,666,o),
(89,625,o),
(91,584,cs),
(95,524,o),
(114,516,o),
(185,517,c),
(181,480,o),
(232,455,o),
(174,466,c),
(134,433,o),
(123,445,o),
(103,445,c),
(92,463,o),
(57,480,o),
(38,486,c),
(37,518,o),
(-2,542,o),
(-17,596,c)
);
}
);
width = 275;
},
{
layerId = "B7F60EEF-5018-4FBA-9984-B24EB61DE206";
shapes = (
{
closed = 1;
nodes = (
(90,632,o),
(200,707,o),
(235,640,c),
(247,612,o),
(197,624,o),
(183,606,c),
(177,626,o),
(119,592,o),
(113,560,c),
(135,564,o),
(138,527,o),
(155,517,c),
(145,515,o),
(166,479,o),
(135,479,c),
(114,492,o),
(134,498,o),
(130,504,cs),
(124,513,o),
(84,504,o),
(103,503,c),
(68,550,o),
(57,564,o),
(72,577,c)
);
}
);
width = 275;
},
{
layerId = "33631C71-1333-4331-8A89-BDCD639A4A27";
shapes = (
{
closed = 1;
nodes = (
(71,658,o),
(177,821,o),
(213,733,c),
(238,704,o),
(197,658,o),
(177,663,c),
(166,621,o),
(142,602,o),
(137,577,c),
(117,522,o),
(158,498,o),
(181,462,c),
(182,459,o),
(207,397,o),
(178,400,c),
(170,385,o),
(132,414,o),
(138,413,c),
(112,431,o),
(108,449,o),
(107,439,c),
(71,484,o),
(74,532,o),
(71,579,cs)
);
}
);
width = 275;
}
);
unicode = 8216;
},
{
glyphname = quoteright;
lastChange = "2024-10-10 14:02:28 +0000";
layers = (
{
layerId = m01;
shapes = (
{
closed = 1;
nodes = (
(244,508,o),
(215,473,o),
(190,461,c),
(166,455,o),
(156,448,o),
(139,486,c),
(174,516,o),
(181,538,o),
(178,579,c),
(167,609,o),
(142,657,o),
(105,655,cs),
(51,655,o),
(24,669,o),
(44,701,cs),
(73,746,o),
(110,722,o),
(116,723,c),
(205,710,o),
(239,619,o),
(254,553,c)
);
}
);
width = 289;
},
{
layerId = "3EED4E43-93E5-49B5-B4F5-8693E91ADEE2";
shapes = (
{
closed = 1;
nodes = (
(303,551,o),
(265,490,o),
(240,485,c),
(209,454,o),
(182,454,o),
(182,519,c),
(175,553,o),
(196,556,o),
(209,610,c),
(204,654,o),
(148,645,o),
(121,681,c),
(84,683,o),
(54,715,o),
(77,750,c),
(60,776,o),
(104,775,o),
(161,753,cs),
(246,715,o),
(280,642,o),
(276,575,c)
);
}
);
width = 289;
},
{
layerId = "B7F60EEF-5018-4FBA-9984-B24EB61DE206";
shapes = (
{
closed = 1;
nodes = (
(243,572,o),
(216,508,o),
(219,507,c),
(192,474,o),
(179,497,o),
(145,530,cs),
(151,524,o),
(187,546,o),
(146,558,c),
(170,621,o),
(124,616,o),
(113,618,c),
(96,634,o),
(61,642,o),
(53,636,c),
(66,689,o),
(96,681,o),
(109,658,c),
(155,679,o),
(200,645,o),
(234,561,c)
);
}
);
width = 289;
},
{
layerId = "33631C71-1333-4331-8A89-BDCD639A4A27";
shapes = (
{
closed = 1;
nodes = (
(266,520,o),
(240,483,o),
(209,468,c),
(173,446,o),
(144,481,o),
(149,509,c),
(167,540,o),
(199,550,o),
(190,563,cs),
(161,614,o),
(116,641,o),
(83,659,c),
(47,662,o),
(21,672,o),
(22,688,c),
(34,714,o),
(69,709,o),
(122,695,c),
(195,684,o),
(273,634,o),
(277,566,c)
);
}
);
width = 289;
}
);
unicode = 8217;
},
{
glyphname = quotedbl;
lastChange = "2024-10-10 14:02:29 +0000";
layers = (
{
layerId = m01;
shapes = (
{
closed = 1;
nodes = (
(36,641,o),
(36,636,o),
(26,684,c),
(29,675,o),
(59,698,o),
(50,698,c),
(52,718,o),
(72,724,o),
(68,732,c),
(63,763,o),
(90,756,o),
(106,746,c),
(122,766,o),
(131,741,o),
(108,701,c),
(122,709,o),
(99,684,o),
(127,681,c),
(108,662,o),
(120,631,o),
(119,589,c),
(128,601,o),
(118,557,o),
(121,480,c),
(113,463,o),
(124,451,o),
(90,476,c),
(49,477,o),
(66,512,o),
(39,527,c),
(69,533,o),
(39,580,o),
(50,599,c)
);
},
{
closed = 1;
nodes = (
(276,743,o),
(275,694,o),
(257,710,c),
(276,660,o),
(267,641,o),
(289,606,c),
(286,614,o),
(286,564,o),
(308,518,c),
(327,504,o),
(300,507,o),
(298,492,c),
(302,460,o),
(323,422,o),
(290,409,c),
(284,410,o),
(270,430,o),
(273,420,c),
(245,440,o),
(229,460,o),
(227,503,c),
(252,548,o),
(234,603,o),
(232,593,c),
(213,656,o),
(214,710,o),
(210,710,c),
(218,741,o),
(208,735,o),
(208,753,c),
(210,761,o),
(251,760,o),
(254,721,c)
);
}
);
width = 355;
},
{
layerId = "3EED4E43-93E5-49B5-B4F5-8693E91ADEE2";
shapes = (
{
closed = 1;
nodes = (
(76,688,o),
(61,707,o),
(62,711,c),
(45,728,o),
(75,750,o),
(91,755,c),
(59,751,o),
(72,785,o),
(78,780,c),
(85,810,o),
(116,810,o),
(142,787,c),
(163,801,o),
(181,776,o),
(156,748,c),
(146,741,o),
(134,737,o),
(134,701,c),
(140,681,o),
(142,668,o),
(137,637,c),
(158,624,o),
(130,587,o),
(142,535,c),
(144,487,o),
(123,465,o),
(112,488,c),
(67,513,o),
(55,566,o),
(82,538,c),
(60,568,o),
(60,628,o),
(63,634,c)
);
},
{
closed = 1;
nodes = (
(340,761,o),
(335,744,o),
(340,711,c),
(330,699,o),
(361,673,o),
(350,629,c),
(372,602,o),
(368,554,o),
(382,530,c),
(385,535,o),
(394,503,o),
(368,518,c),
(370,468,o),
(396,456,o),
(351,429,c),
(342,438,o),
(342,434,o),
(303,430,c),
(299,458,o),
(278,458,o),
(296,517,c),
(308,568,o),
(269,596,o),
(267,633,c),
(283,682,o),
(249,726,o),
(280,759,c),
(283,766,o),
(278,782,o),
(302,766,c),
(313,785,o),
(305,795,o),
(333,780,c)
);
}
);
width = 355;
},
{
layerId = "B7F60EEF-5018-4FBA-9984-B24EB61DE206";
shapes = (
{
closed = 1;
nodes = (
(127,640,o),
(89,649,o),
(125,674,c),
(125,672,o),
(105,659,o),
(111,673,c),
(124,693,o),
(111,706,o),
(148,684,c),
(140,692,o),
(143,722,o),
(144,721,cs),
(173,701,o),
(198,685,o),
(153,665,c),
(172,683,o),
(164,634,o),
(163,628,c),
(159,625,o),
(169,625,o),
(167,614,c),
(151,578,o),
(145,572,o),
(141,534,c),
(152,525,o),
(145,494,o),
(122,525,c),
(92,515,o),
(103,567,o),
(89,563,c),
(112,592,o),
(104,617,o),
(88,620,c)
);
},
{
closed = 1;
nodes = (
(271,649,o),
(264,636,o),
(262,637,c),
(253,634,o),
(281,617,o),
(269,599,c),
(278,566,o),
(259,530,o),
(285,548,c),
(281,538,o),
(262,529,o),
(279,498,c),
(265,474,o),
(264,461,o),
(229,461,c),
(223,440,o),
(234,450,o),
(230,460,c),
(232,488,o),
(229,511,o),
(203,507,c),
(235,562,o),
(204,581,o),
(223,606,c),
(240,600,o),
(212,633,o),
(229,654,c),
(218,673,o),
(248,663,o),
(222,659,cs),
(259,665,o),
(245,682,o),
(258,689,c)
);
}
);
width = 355;
},
{
layerId = "33631C71-1333-4331-8A89-BDCD639A4A27";
shapes = (
{
closed = 1;
nodes = (
(64,630,o),
(56,671,o),
(63,683,c),
(69,686,o),
(55,709,o),
(59,723,c),
(68,739,o),
(81,759,o),
(86,759,c),
(89,775,o),
(96,770,o),
(104,759,c),
(136,775,o),
(139,742,o),
(125,724,c),
(129,712,o),
(110,676,o),
(130,676,c),
(111,650,o),
(111,635,o),
(126,584,c),
(123,590,o),
(134,535,o),
(141,487,c),
(136,442,o),
(131,422,o),
(86,444,c),
(69,465,o),
(64,489,o),
(72,489,c),
(65,552,o),
(55,573,o),
(55,592,c)
);
},
{
closed = 1;
nodes = (
(240,727,o),
(245,710,o),
(252,709,c),
(256,656,o),
(277,650,o),
(259,617,c),
(269,595,o),
(285,556,o),
(285,525,c),
(303,499,o),
(291,505,o),
(285,489,c),
(295,453,o),
(303,406,o),
(269,389,c),
(269,391,o),
(252,407,o),
(241,407,c),
(229,398,o),
(233,446,o),
(242,488,c),
(238,541,o),
(225,592,o),
(215,610,c),
(212,643,o),
(191,716,o),
(188,741,c),
(206,737,o),
(196,770,o),
(216,775,c),
(209,780,o),
(244,757,o),
(238,744,c)
);
}
);
width = 355;
}
);
unicode = 34;
},
{
glyphname = quotesingle;
lastChange = "2024-10-10 14:02:30 +0000";
layers = (
{
layerId = m01;
shapes = (
{
closed = 1;
nodes = (
(62,659,o),
(28,713,o),
(66,770,c),
(89,765,o),
(65,786,o),
(101,769,c),
(132,744,o),
(132,741,o),
(137,696,c),
(102,673,o),
(138,623,o),
(139,586,c),
(135,563,o),
(159,523,o),
(123,465,c),
(123,439,o),
(94,438,o),
(82,465,c),
(48,468,o),
(35,493,o),
(40,522,c),
(35,535,o),
(47,576,o),
(22,601,c),
(33,591,o),
(64,614,o),
(33,649,c)
);
}
);
width = 172;
},
{
layerId = "3EED4E43-93E5-49B5-B4F5-8693E91ADEE2";
shapes = (
{
closed = 1;
nodes = (
(-8,711,o),
(4,777,o),
(16,822,c),
(36,802,o),
(52,830,o),
(66,814,c),
(82,813,o),
(94,798,o),
(121,750,c),
(80,741,o),
(108,706,o),
(100,664,c),
(106,596,o),
(135,571,o),
(133,498,c),
(94,482,o),
(99,492,o),
(66,463,c),
(41,497,o),
(29,535,o),
(28,570,c),
(22,568,o),
(17,604,o),
(-3,639,c),
(11,652,o),
(12,668,o),
(-5,692,c)
);
}
);
width = 172;
},
{
layerId = "B7F60EEF-5018-4FBA-9984-B24EB61DE206";
shapes = (
{
closed = 1;
nodes = (
(22,624,o),
(50,671,o),
(61,694,c),
(48,678,o),
(41,699,o),
(53,720,c),
(115,681,o),
(93,686,o),
(99,669,c),
(82,646,o),
(107,618,o),
(88,614,c),
(121,574,o),
(127,542,o),
(108,512,c),
(113,505,o),
(94,487,o),
(74,518,c),
(61,505,o),
(48,547,o),
(65,562,c),
(66,556,o),
(32,556,o),
(24,587,c),
(49,586,o),
(41,618,o),
(25,637,c)
);
}
);
width = 172;
},
{
layerId = "33631C71-1333-4331-8A89-BDCD639A4A27";
shapes = (
{
closed = 1;
nodes = (
(17,646,o),
(13,690,o),
(39,720,c),
(50,719,o),
(79,729,o),
(81,734,c),
(142,735,o),
(151,702,o),
(132,668,cs),
(125,653,o),
(154,620,o),
(131,607,c),
(156,569,o),
(175,553,o),
(125,489,c),
(114,489,o),
(106,497,o),
(101,498,c),
(53,499,o),
(29,517,o),
(53,544,c),
(35,553,o),
(26,585,o),
(7,596,c),
(26,608,o),
(48,613,o),
(20,637,c)
);
}
);
width = 172;
}
);
unicode = 39;
},
{
glyphname = at;
lastChange = "2024-10-10 14:02:32 +0000";
layers = (
{
layerId = m01;
shapes = (
{
closed = 1;
nodes = (
(387,518,o),
(316,452,o),
(301,428,c),
(267,386,o),
(219,349,o),
(280,308,c),
(310,247,o),
(347,320,o),
(332,339,c),
(342,364,o),
(342,391,o),
(370,414,c),
(379,418,o),
(391,431,o),
(395,435,c)
);
},
{
closed = 1;
nodes = (
(176,401,o),
(226,520,o),
(304,540,c),
(365,532,o),
(429,549,o),
(435,476,c),
(434,470,o),
(468,439,o),
(451,415,c),
(470,417,o),
(424,388,o),
(427,367,c),
(449,373,o),
(499,280,o),
(517,298,cs),
(539,318,o),
(513,364,o),
(532,387,c),
(537,391,o),
(540,405,o),
(573,407,c),
(556,434,o),
(546,482,o),
(565,478,c),
(539,500,o),
(542,547,o),
(495,585,cs),
(419,647,o),
(322,622,o),
(243,541,c),
(156,492,o),
(109,456,o),
(113,336,c),
(108,253,o),
(144,176,o),
(215,137,c),
(279,129,o),
(342,123,o),
(407,152,c),
(400,155,o),
(441,186,o),
(485,197,c),
(489,234,o),
(467,220,o),
(478,224,c),
(435,242,o),
(413,289,o),
(414,273,c),
(388,279,o),
(387,231,o),
(344,216,c),
(282,163,o),
(192,226,o),
(174,317,c)
);
},
{
closed = 1;
nodes = (
(22,464,o),
(115,595,o),
(218,621,c),
(296,664,o),
(361,671,o),
(454,662,c),
(498,667,o),
(565,644,o),
(560,621,c),
(590,550,o),
(611,503,o),
(617,445,c),
(632,399,o),
(653,294,o),
(592,251,c),
(582,210,o),
(553,193,o),
(546,180,c),
(522,178,o),
(520,125,o),
(508,100,c),
(414,80,o),
(348,69,o),
(276,65,c),
(221,46,o),
(151,106,o),
(117,149,c),
(64,202,o),
(60,239,o),
(51,324,c)
);
}
);
width = 677;
},
{
layerId = "3EED4E43-93E5-49B5-B4F5-8693E91ADEE2";
shapes = (
{
closed = 1;
nodes = (
(409,551,o),
(327,520,o),
(291,453,c),
(274,430,o),
(212,336,o),
(241,305,c),
(261,229,o),
(360,295,o),
(372,357,cs),
(380,390,o),
(356,405,o),
(384,424,c),
(361,451,o),
(409,450,o),
(419,476,c)
);
},
{
closed = 1;
nodes = (
(167,448,o),
(228,580,o),
(359,590,c),
(398,616,o),
(471,596,o),
(471,519,c),
(498,513,o),
(477,481,o),
(483,428,c),
(476,419,o),
(472,405,o),
(468,377,c),
(457,373,o),
(524,257,o),
(546,277,c),
(588,284,o),
(531,369,o),
(587,397,c),
(587,392,o),
(604,404,o),
(612,423,c),
(598,423,o),
(595,491,o),
(602,517,c),
(625,568,o),
(591,598,o),
(547,652,c),
(480,708,o),
(323,668,o),
(254,615,c),
(148,561,o),
(85,506,o),
(101,392,c),
(85,278,o),
(102,137,o),
(179,95,c),
(266,95,o),
(310,68,o),
(363,81,c),
(408,88,o),
(473,123,o),
(489,138,c),
(516,202,o),
(509,201,o),
(494,218,c),
(459,202,o),
(430,231,o),
(425,238,cs),
(405,261,o),
(366,198,o),
(337,185,cs),
(266,156,o),
(138,209,o),
(139,310,c)
);
},
{
closed = 1;
nodes = (
(-2,532,o),
(105,676,o),
(256,720,c),
(325,755,o),
(416,775,o),
(505,763,c),
(564,729,o),
(633,713,o),
(637,649,c),
(684,580,o),
(698,514,o),
(679,455,c),
(719,365,o),
(705,251,o),
(643,211,cs),
(603,185,o),
(610,162,o),
(588,112,c),
(579,97,o),
(529,79,o),
(505,63,c),
(431,-2,o),
(324,-9,o),
(268,-5,cs),
(181,-3,o),
(119,48,o),
(69,86,c),
(-10,155,o),
(-22,277,o),
(-25,363,c)
);
}
);
width = 677;
},
{
layerId = "B7F60EEF-5018-4FBA-9984-B24EB61DE206";
shapes = (
{
closed = 1;
nodes = (
(405,431,o),
(372,438,o),
(346,423,c),
(323,380,o),
(283,345,o),
(312,310,c),
(294,278,o),
(338,327,o),
(337,333,c),
(358,369,o),
(359,391,o),
(367,400,c),
(401,394,o),
(402,382,o),
(380,403,c)
);
},
{
closed = 1;
nodes = (
(246,424,o),
(301,481,o),
(364,477,c),
(423,503,o),
(434,453,o),
(426,429,c),
(453,411,o),
(427,415,o),
(443,381,c),
(457,382,o),
(430,342,o),
(429,334,c),
(410,315,o),
(423,251,o),
(466,284,c),
(455,274,o),
(460,338,o),
(471,330,c),
(471,369,o),
(501,366,o),
(511,348,c),
(502,376,o),
(488,376,o),
(502,410,c),
(501,426,o),
(498,469,o),
(475,494,c),
(447,541,o),
(382,552,o),
(321,523,c),
(264,507,o),
(221,447,o),
(200,385,c),
(203,340,o),
(201,255,o),
(231,203,c),
(265,215,o),
(320,201,o),
(329,180,c),
(346,192,o),
(392,188,o),
(408,214,c),
(407,233,o),
(415,222,o),
(411,261,c),
(393,239,o),
(384,277,o),
(369,259,c),
(374,277,o),
(351,258,o),
(323,237,c),
(278,222,o),
(217,287,o),
(255,341,c)
);
},
{
closed = 1;
nodes = (
(201,486,o),
(260,539,o),
(350,584,c),
(363,572,o),
(433,592,o),
(468,557,c),
(502,566,o),
(539,506,o),
(548,506,c),
(570,442,o),
(536,394,o),
(567,369,c),
(558,307,o),
(525,260,o),
(496,210,c),
(461,210,o),
(466,214,o),
(442,199,c),
(454,169,o),
(431,177,o),
(399,136,c),
(357,135,o),
(316,132,o),
(256,148,cs),
(224,157,o),
(199,174,o),
(169,246,c),
(145,264,o),
(150,327,o),
(174,397,cs)
);
}
);
width = 677;
},
{
layerId = "33631C71-1333-4331-8A89-BDCD639A4A27";
shapes = (
{
closed = 1;
nodes = (
(361,507,o),
(318,479,o),
(300,447,cs),
(270,390,o),
(259,344,o),
(263,271,c),
(289,217,o),
(334,305,o),
(343,320,c),
(358,354,o),
(343,398,o),
(364,418,c),
(366,418,o),
(390,438,o),
(380,459,c)
);
},
{
closed = 1;
nodes = (
(200,397,o),
(254,555,o),
(334,557,c),
(369,567,o),
(424,537,o),
(420,524,c),
(448,486,o),
(459,474,o),
(461,443,c),
(441,416,o),
(441,415,o),
(440,371,c),
(424,353,o),
(479,276,o),
(486,278,c),
(513,305,o),
(489,394,o),
(510,401,c),
(519,416,o),
(531,392,o),
(537,425,c),
(535,424,o),
(526,477,o),
(535,494,c),
(526,550,o),
(505,586,o),
(488,605,cs),
(416,675,o),
(312,635,o),
(265,597,c),
(200,521,o),
(152,456,o),
(154,348,c),
(129,271,o),
(172,141,o),
(232,120,c),
(277,78,o),
(333,86,o),
(391,107,c),
(401,125,o),
(439,147,o),
(460,161,c),
(466,198,o),
(463,200,o),
(454,218,c),
(442,211,o),
(406,270,o),
(399,263,c),
(384,261,o),
(356,186,o),
(348,171,c),
(290,158,o),
(204,224,o),
(204,317,c)
);
},
{
closed = 1;
nodes = (
(71,458,o),
(143,613,o),
(250,679,cs),
(307,711,o),
(374,737,o),
(427,704,c),
(457,727,o),
(513,664,o),
(538,647,c),
(589,592,o),
(594,504,o),
(610,453,c),
(622,379,o),
(621,288,o),
(571,232,c),
(565,188,o),
(556,186,o),
(531,168,c),
(528,129,o),
(497,81,o),
(477,81,c),
(412,41,o),
(350,24,o),
(291,21,c),
(241,1,o),
(173,51,o),
(152,92,c),
(97,147,o),
(60,247,o),
(76,339,c)
);
}
);
width = 677;
}
);
unicode = 64;
},
